<svg xmlns="http://www.w3.org/2000/svg" height="742" preserveAspectRatio="none" style="width:1804px;height:742px" width="1804">
  <defs>
    <filter height="300%" id="a" width="300%" x="-1" y="-1">
      <feGaussianBlur result="blurOut" stdDeviation="2"/>
      <feColorMatrix in="blurOut" result="blurOut2" values="0 0 0 0 0 0 0 0 0 0 0 0 0 0 0 0 0 0 .4 0"/>
      <feOffset dx="4" dy="4" in="blurOut2" result="blurOut3"/>
      <feBlend in="SourceGraphic" in2="blurOut3"/>
    </filter>
  </defs>
  <text font-family="sans-serif" font-size="18" lengthAdjust="spacingAndGlyphs" textLength="330" x="739.5" y="28.708">
    Adapters Tandem: clashing endpoints
  </text>
  <path fill="#DDD" stroke="#a80036" d="M1 40.953h73v695.383H1z"/>
  <text font-family="sans-serif" font-size="13" font-weight="bold" lengthAdjust="spacingAndGlyphs" textLength="67" x="4" y="53.02">
    Mojaloop
  </text>
  <path fill="#DDD" stroke="#a80036" d="M207 40.953h431.5v695.383H207z"/>
  <text font-family="sans-serif" font-size="13" font-weight="bold" lengthAdjust="spacingAndGlyphs" textLength="156" x="344.75" y="53.02">
    SDK-scheme-adapter
  </text>
  <path fill="#DDD" stroke="#a80036" d="M640.5 40.953H1311v695.383H640.5z"/>
  <text font-family="sans-serif" font-size="13" font-weight="bold" lengthAdjust="spacingAndGlyphs" textLength="202" x="874.75" y="53.02">
    Thirdparty-scheme-adapter
  </text>
  <path fill="#FFF" filter="url(#a)" stroke="#a80036" d="M32.5 294.445h10v244.063h-10zM263.5 538.508h10v92.398h-10zM717 367.844h10v321.195h-10zM1224 265.313h10V689.04h-10zM1564 105.383h10v583.656h-10z"/>
  <path stroke="#a80036" stroke-dasharray="5,5" d="M37 95.383v602.656M268 95.383v602.656M576.5 95.383v602.656M721.5 95.383v602.656M1229 95.383v602.656M1569 95.383v602.656"/>
  <path fill="#FEFECE" filter="url(#a)" stroke="#a80036" stroke-width="1.5" d="M6 60.086h59v30.297H6z"/>
  <text font-family="sans-serif" font-size="14" lengthAdjust="spacingAndGlyphs" textLength="45" x="13" y="80.081">
    Switch
  </text>
  <path fill="#FEFECE" filter="url(#a)" stroke="#a80036" stroke-width="1.5" d="M6 697.039h59v30.297H6z"/>
  <text font-family="sans-serif" font-size="14" lengthAdjust="spacingAndGlyphs" textLength="45" x="13" y="717.034">
    Switch
  </text>
  <path fill="#FEFECE" filter="url(#a)" stroke="#a80036" stroke-width="1.5" d="M211 60.086h111v30.297H211z"/>
  <text font-family="sans-serif" font-size="14" lengthAdjust="spacingAndGlyphs" textLength="97" x="218" y="80.081">
    SDK-Incoming
  </text>
  <path fill="#FEFECE" filter="url(#a)" stroke="#a80036" stroke-width="1.5" d="M211 697.039h111v30.297H211z"/>
  <text font-family="sans-serif" font-size="14" lengthAdjust="spacingAndGlyphs" textLength="97" x="218" y="717.034">
    SDK-Incoming
  </text>
  <path fill="#FEFECE" filter="url(#a)" stroke="#a80036" stroke-width="1.5" d="M518.5 60.086h112v30.297h-112z"/>
  <text font-family="sans-serif" font-size="14" lengthAdjust="spacingAndGlyphs" textLength="98" x="525.5" y="80.081">
    SDK-Outgoing
  </text>
  <path fill="#FEFECE" filter="url(#a)" stroke="#a80036" stroke-width="1.5" d="M518.5 697.039h112v30.297h-112z"/>
  <text font-family="sans-serif" font-size="14" lengthAdjust="spacingAndGlyphs" textLength="98" x="525.5" y="717.034">
    SDK-Outgoing
  </text>
  <path fill="#FEFECE" filter="url(#a)" stroke="#a80036" stroke-width="1.5" d="M644.5 60.086h151v30.297h-151z"/>
  <text font-family="sans-serif" font-size="14" lengthAdjust="spacingAndGlyphs" textLength="137" x="651.5" y="80.081">
    Thridparty-Incoming
  </text>
  <path fill="#FEFECE" filter="url(#a)" stroke="#a80036" stroke-width="1.5" d="M644.5 697.039h151v30.297h-151z"/>
  <text font-family="sans-serif" font-size="14" lengthAdjust="spacingAndGlyphs" textLength="137" x="651.5" y="717.034">
    Thridparty-Incoming
  </text>
  <path fill="#FEFECE" filter="url(#a)" stroke="#a80036" stroke-width="1.5" d="M1151 60.086h152v30.297h-152z"/>
  <text font-family="sans-serif" font-size="14" lengthAdjust="spacingAndGlyphs" textLength="138" x="1158" y="80.081">
    Thirdparty-Outgoing
  </text>
  <path fill="#FEFECE" filter="url(#a)" stroke="#a80036" stroke-width="1.5" d="M1151 697.039h152v30.297h-152z"/>
  <text font-family="sans-serif" font-size="14" lengthAdjust="spacingAndGlyphs" textLength="138" x="1158" y="717.034">
    Thirdparty-Outgoing
  </text>
  <path fill="#FEFECE" filter="url(#a)" stroke="#a80036" stroke-width="1.5" d="M1545 60.086h44v30.297h-44z"/>
  <text font-family="sans-serif" font-size="14" lengthAdjust="spacingAndGlyphs" textLength="30" x="1552" y="80.081">
    PISP
  </text>
  <path fill="#FEFECE" filter="url(#a)" stroke="#a80036" stroke-width="1.5" d="M1545 697.039h44v30.297h-44z"/>
  <text font-family="sans-serif" font-size="14" lengthAdjust="spacingAndGlyphs" textLength="30" x="1552" y="717.034">
    PISP
  </text>
  <path fill="#FFF" filter="url(#a)" stroke="#a80036" d="M32.5 294.445h10v244.063h-10zM263.5 538.508h10v92.398h-10zM717 367.844h10v321.195h-10zM1224 265.313h10V689.04h-10zM1564 105.383h10v583.656h-10z"/>
  <path d="M181 110.383v55h170v-45l-10-10H181" fill="#FBFB77" filter="url(#a)" stroke="#a80036"/>
  <path d="M341 110.383v10h10l-10-10" fill="#FBFB77" stroke="#a80036"/>
  <text font-family="sans-serif" font-size="13" lengthAdjust="spacingAndGlyphs" textLength="149" x="187" y="127.45">
    PUT /parties/MSISDN/...
  </text>
  <text font-family="sans-serif" font-size="13" lengthAdjust="spacingAndGlyphs" textLength="120" x="195" y="142.583">
    callback registered
  </text>
  <text font-family="sans-serif" font-size="13" lengthAdjust="spacingAndGlyphs" textLength="140" x="195" y="157.715">
    in the Mojaloop switch
  </text>
  <path d="M585 179.781v55h270v-45l-10-10H585" fill="#FBFB77" filter="url(#a)" stroke="#a80036"/>
  <path d="M845 179.781v10h10l-10-10" fill="#FBFB77" stroke="#a80036"/>
  <text font-family="sans-serif" font-size="13" lengthAdjust="spacingAndGlyphs" textLength="149" x="591" y="196.848">
    PUT /parties/MSISDN/...
  </text>
  <text font-family="sans-serif" font-size="13" lengthAdjust="spacingAndGlyphs" textLength="230" x="599" y="211.981">
    two callbacks for the same endpoint
  </text>
  <text font-family="sans-serif" font-size="13" lengthAdjust="spacingAndGlyphs" textLength="241" x="599" y="227.114">
    can&apos;t be registered in Mojaloop Switch
  </text>
  <path fill="#A80036" stroke="#a80036" d="M1245 261.313l-10 4 10 4-4-4z"/>
  <path stroke="#a80036" d="M1239 265.313h324"/>
  <text font-family="sans-serif" font-size="13" lengthAdjust="spacingAndGlyphs" textLength="201" x="1251" y="260.247">
    GET /parties/MSISDN/12345678
  </text>
  <path fill="#A80036" stroke="#a80036" d="M53.5 290.445l-10 4 10 4-4-4z"/>
  <path stroke="#a80036" d="M47.5 294.445H1223"/>
  <text font-family="sans-serif" font-size="13" lengthAdjust="spacingAndGlyphs" textLength="201" x="59.5" y="289.379">
    GET /parties/MSISDN/12345678
  </text>
  <path fill="#A80036" stroke="#a80036" d="M1212 319.578l10 4-10 4 4-4z"/>
  <path stroke="#a80036" stroke-dasharray="2,2" d="M42.5 323.578H1218"/>
  <text font-family="sans-serif" font-size="13" lengthAdjust="spacingAndGlyphs" textLength="46" x="49.5" y="318.512">
    200 OK
  </text>
  <path fill="#A80036" stroke="#a80036" d="M738 363.844l-10 4 10 4-4-4z"/>
  <path stroke="#a80036" stroke-dasharray="2,2" d="M732 367.844h491"/>
  <text font-family="sans-serif" font-size="13" lengthAdjust="spacingAndGlyphs" textLength="153" x="744" y="347.645">
    setup PUB/SUB channel
  </text>
  <text font-family="sans-serif" font-size="13" lengthAdjust="spacingAndGlyphs" textLength="211" x="744" y="362.778">
    to receive data from PUT /parties
  </text>
  <path stroke="#a80036" d="M727 396.977h42M769 396.977v13M728 409.977h41"/>
  <path fill="#A80036" stroke="#a80036" d="M738 405.977l-10 4 10 4-4-4z"/>
  <text font-family="sans-serif" font-size="13" lengthAdjust="spacingAndGlyphs" textLength="272" x="734" y="391.911">
    waiting on PUT /parties/MSISDN/... callback
  </text>
  <path stroke="#a80036" d="M1234 454.242h42M1276 454.242v13M1235 467.242h41"/>
  <path fill="#A80036" stroke="#a80036" d="M1245 463.242l-10 4 10 4-4-4z"/>
  <text font-family="sans-serif" font-size="13" lengthAdjust="spacingAndGlyphs" textLength="221" x="1241" y="434.043">
    keeping open connection with PISP
  </text>
  <text font-family="sans-serif" font-size="13" lengthAdjust="spacingAndGlyphs" textLength="316" x="1241" y="449.176">
    and waiting on data to be send down as response
  </text>
  <path stroke="#a80036" d="M42.5 496.375h42M84.5 496.375v13M43.5 509.375h41"/>
  <path fill="#A80036" stroke="#a80036" d="M53.5 505.375l-10 4 10 4-4-4z"/>
  <text font-family="sans-serif" font-size="13" lengthAdjust="spacingAndGlyphs" textLength="171" x="49.5" y="491.309">
    resolving party information
  </text>
  <path fill="#A80036" stroke="#a80036" d="M251.5 534.508l10 4-10 4 4-4z"/>
  <path stroke="#a80036" d="M37.5 538.508h220"/>
  <text font-family="sans-serif" font-size="13" lengthAdjust="spacingAndGlyphs" textLength="201" x="44.5" y="533.442">
    PUT /parties/MSISDN/12345678
  </text>
  <path stroke="#a80036" d="M273.5 567.641h42M315.5 567.641v13M274.5 580.641h41"/>
  <path fill="#A80036" stroke="#a80036" d="M284.5 576.64l-10 4 10 4-4-4z"/>
  <text font-family="sans-serif" font-size="13" lengthAdjust="spacingAndGlyphs" textLength="284" x="280.5" y="562.575">
    unexpected PUT /parties - what to do with it?
  </text>
  <path stroke="#a80036" d="M727 629.906h42M769 629.906v13M722 642.906h47"/>
  <path fill="#A80036" stroke="#a80036" d="M732 638.906l-10 4 10 4-4-4z"/>
  <text font-family="sans-serif" font-size="13" lengthAdjust="spacingAndGlyphs" textLength="483" x="734" y="609.707">
    still waiting on PUT /parties - it will never be delivered to Thirdparty-Incoming
  </text>
  <text font-family="sans-serif" font-size="13" lengthAdjust="spacingAndGlyphs" textLength="261" x="738" y="624.84">
    so it can&apos;t be PUB to Thirdparty-Outgoing
  </text>
  <path stroke="#a80036" d="M1574 667.039h42M1616 667.039v13M1575 680.039h41"/>
  <path fill="#A80036" stroke="#a80036" d="M1585 676.04l-10 4 10 4-4-4z"/>
  <text font-family="sans-serif" font-size="13" lengthAdjust="spacingAndGlyphs" textLength="216" x="1581" y="661.973">
    still open connection and listening
  </text>
</svg>
