<svg xmlns="http://www.w3.org/2000/svg" height="718" preserveAspectRatio="none" style="width:1732px;height:718px" width="1732">
  <defs>
    <filter height="300%" id="a" width="300%" x="-1" y="-1">
      <feGaussianBlur result="blurOut" stdDeviation="2"/>
      <feColorMatrix in="blurOut" result="blurOut2" values="0 0 0 0 0 0 0 0 0 0 0 0 0 0 0 0 0 0 .4 0"/>
      <feOffset dx="4" dy="4" in="blurOut2" result="blurOut3"/>
      <feBlend in="SourceGraphic" in2="blurOut3"/>
    </filter>
  </defs>
  <path fill="#DDD" stroke="#a80036" d="M1 6h73v706.117H1z"/>
  <text font-family="sans-serif" font-size="13" font-weight="bold" lengthAdjust="spacingAndGlyphs" textLength="67" x="4" y="18.067">
    Mojaloop
  </text>
  <path fill="#DDD" stroke="#a80036" d="M207 6h426.5v706.117H207z"/>
  <text font-family="sans-serif" font-size="13" font-weight="bold" lengthAdjust="spacingAndGlyphs" textLength="156" x="342.25" y="18.067">
    SDK-scheme-adapter
  </text>
  <path fill="#DDD" stroke="#a80036" d="M727 6h445.5v706.117H727z"/>
  <text font-family="sans-serif" font-size="13" font-weight="bold" lengthAdjust="spacingAndGlyphs" textLength="106" x="896.75" y="18.067">
    thirdparty-sdk
  </text>
  <path fill="#FFF" filter="url(#a)" stroke="#a80036" d="M32.5 308.625h10v130.398h-10zM263.5 439.023h10v116.398h-10zM566.5 135.828h10v231.93h-10zM803.5 525.422h10v59.133h-10zM1085.5 106.695h10v231.93h-10zM1085.5 584.555h10v80.266h-10zM1693.5 106.695h10V664.82h-10z"/>
  <path stroke="#a80036" stroke-dasharray="5,5" d="M37 60.43v613.39M268 60.43v613.39M571.5 60.43v613.39M808 60.43v613.39M1090.5 60.43v613.39M1698.5 60.43v613.39"/>
  <path fill="#FEFECE" filter="url(#a)" stroke="#a80036" stroke-width="1.5" d="M6 25.133h59V55.43H6z"/>
  <text font-family="sans-serif" font-size="14" lengthAdjust="spacingAndGlyphs" textLength="45" x="13" y="45.128">
    Switch
  </text>
  <path fill="#FEFECE" filter="url(#a)" stroke="#a80036" stroke-width="1.5" d="M6 672.82h59v30.297H6z"/>
  <text font-family="sans-serif" font-size="14" lengthAdjust="spacingAndGlyphs" textLength="45" x="13" y="692.815">
    Switch
  </text>
  <path fill="#FEFECE" filter="url(#a)" stroke="#a80036" stroke-width="1.5" d="M211 25.133h111V55.43H211z"/>
  <text font-family="sans-serif" font-size="14" lengthAdjust="spacingAndGlyphs" textLength="97" x="218" y="45.128">
    SDK-Incoming
  </text>
  <path fill="#FEFECE" filter="url(#a)" stroke="#a80036" stroke-width="1.5" d="M211 672.82h111v30.297H211z"/>
  <text font-family="sans-serif" font-size="14" lengthAdjust="spacingAndGlyphs" textLength="97" x="218" y="692.815">
    SDK-Incoming
  </text>
  <path fill="#FEFECE" filter="url(#a)" stroke="#a80036" stroke-width="1.5" d="M513.5 25.133h112V55.43h-112z"/>
  <text font-family="sans-serif" font-size="14" lengthAdjust="spacingAndGlyphs" textLength="98" x="520.5" y="45.128">
    SDK-Outgoing
  </text>
  <path fill="#FEFECE" filter="url(#a)" stroke="#a80036" stroke-width="1.5" d="M513.5 672.82h112v30.297h-112z"/>
  <text font-family="sans-serif" font-size="14" lengthAdjust="spacingAndGlyphs" textLength="98" x="520.5" y="692.815">
    SDK-Outgoing
  </text>
  <path fill="#FEFECE" filter="url(#a)" stroke="#a80036" stroke-width="1.5" d="M731 25.133h151V55.43H731z"/>
  <text font-family="sans-serif" font-size="14" lengthAdjust="spacingAndGlyphs" textLength="137" x="738" y="45.128">
    Thirdparty-Incoming
  </text>
  <path fill="#FEFECE" filter="url(#a)" stroke="#a80036" stroke-width="1.5" d="M731 672.82h151v30.297H731z"/>
  <text font-family="sans-serif" font-size="14" lengthAdjust="spacingAndGlyphs" textLength="137" x="738" y="692.815">
    Thirdparty-Incoming
  </text>
  <path fill="#FEFECE" filter="url(#a)" stroke="#a80036" stroke-width="1.5" d="M1012.5 25.133h152V55.43h-152z"/>
  <text font-family="sans-serif" font-size="14" lengthAdjust="spacingAndGlyphs" textLength="138" x="1019.5" y="45.128">
    Thirdparty-Outgoing
  </text>
  <path fill="#FEFECE" filter="url(#a)" stroke="#a80036" stroke-width="1.5" d="M1012.5 672.82h152v30.297h-152z"/>
  <text font-family="sans-serif" font-size="14" lengthAdjust="spacingAndGlyphs" textLength="138" x="1019.5" y="692.815">
    Thirdparty-Outgoing
  </text>
  <path fill="#FEFECE" filter="url(#a)" stroke="#a80036" stroke-width="1.5" d="M1674.5 25.133h44V55.43h-44z"/>
  <text font-family="sans-serif" font-size="14" lengthAdjust="spacingAndGlyphs" textLength="30" x="1681.5" y="45.128">
    PISP
  </text>
  <path fill="#FEFECE" filter="url(#a)" stroke="#a80036" stroke-width="1.5" d="M1674.5 672.82h44v30.297h-44z"/>
  <text font-family="sans-serif" font-size="14" lengthAdjust="spacingAndGlyphs" textLength="30" x="1681.5" y="692.815">
    PISP
  </text>
  <path fill="#FFF" filter="url(#a)" stroke="#a80036" d="M32.5 308.625h10v130.398h-10zM263.5 439.023h10v116.398h-10zM566.5 135.828h10v231.93h-10zM803.5 525.422h10v59.133h-10zM1085.5 106.695h10v231.93h-10zM1085.5 584.555h10v80.266h-10zM1693.5 106.695h10V664.82h-10z"/>
  <path fill="#A80036" stroke="#a80036" d="M1106.5 102.695l-10 4 10 4-4-4z"/>
  <path stroke="#a80036" d="M1100.5 106.695h592"/>
  <text font-family="sans-serif" font-size="13" lengthAdjust="spacingAndGlyphs" textLength="280" x="1112.5" y="86.497">
    start the Transfer flow which involes using of
  </text>
  <text font-family="sans-serif" font-size="13" lengthAdjust="spacingAndGlyphs" textLength="201" x="1112.5" y="101.629">
    GET /parties/MSISDN/12345678
  </text>
  <path fill="#A80036" stroke="#a80036" d="M587.5 131.828l-10 4 10 4-4-4z"/>
  <path stroke="#a80036" d="M581.5 135.828h503"/>
  <text font-family="sans-serif" font-size="13" lengthAdjust="spacingAndGlyphs" textLength="201" x="593.5" y="130.762">
    GET /parties/MSISDN/12345678
  </text>
  <path fill="#A80036" stroke="#a80036" d="M1073.5 160.96l10 4-10 4 4-4z"/>
  <path stroke="#a80036" stroke-dasharray="2,2" d="M576.5 164.961h503"/>
  <text font-family="sans-serif" font-size="13" lengthAdjust="spacingAndGlyphs" textLength="46" x="583.5" y="159.895">
    200 OK
  </text>
  <path stroke="#a80036" d="M576.5 209.227h42M618.5 209.227v13M577.5 222.227h41"/>
  <path fill="#A80036" stroke="#a80036" d="M587.5 218.227l-10 4 10 4-4-4z"/>
  <text font-family="sans-serif" font-size="13" lengthAdjust="spacingAndGlyphs" textLength="213" x="583.5" y="189.028">
    discover that this call is comming
  </text>
  <text font-family="sans-serif" font-size="13" lengthAdjust="spacingAndGlyphs" textLength="123" x="583.5" y="204.161">
    from thirdparty-sdk
  </text>
  <path stroke="#a80036" d="M1095.5 266.492h42M1137.5 266.492v13M1096.5 279.492h41"/>
  <path fill="#A80036" stroke="#a80036" d="M1106.5 275.492l-10 4 10 4-4-4z"/>
  <text font-family="sans-serif" font-size="13" lengthAdjust="spacingAndGlyphs" textLength="183" x="1102.5" y="246.293">
    register to PUB/SUB channel
  </text>
  <text font-family="sans-serif" font-size="13" lengthAdjust="spacingAndGlyphs" textLength="137" x="1102.5" y="261.426">
    and wait for response
  </text>
  <path fill="#A80036" stroke="#a80036" d="M53.5 304.625l-10 4 10 4-4-4z"/>
  <path stroke="#a80036" d="M47.5 308.625h518"/>
  <text font-family="sans-serif" font-size="13" lengthAdjust="spacingAndGlyphs" textLength="201" x="59.5" y="303.559">
    GET /parties/MSISDN/12345678
  </text>
  <path fill="#A80036" stroke="#a80036" d="M559.5 363.758l10 4-10 4 4-4z"/>
  <path stroke="#a80036" stroke-dasharray="2,2" d="M42.5 367.758h523"/>
  <text font-family="sans-serif" font-size="13" lengthAdjust="spacingAndGlyphs" textLength="46" x="49.5" y="362.692">
    200 OK
  </text>
  <path stroke="#a80036" d="M42.5 396.891h42M84.5 396.891v13M43.5 409.891h41"/>
  <path fill="#A80036" stroke="#a80036" d="M53.5 405.89l-10 4 10 4-4-4z"/>
  <text font-family="sans-serif" font-size="13" lengthAdjust="spacingAndGlyphs" textLength="156" x="49.5" y="391.825">
    finding party information
  </text>
  <path fill="#A80036" stroke="#a80036" d="M251.5 435.023l10 4-10 4 4-4z"/>
  <path stroke="#a80036" d="M37.5 439.023h220"/>
  <text font-family="sans-serif" font-size="13" lengthAdjust="spacingAndGlyphs" textLength="201" x="44.5" y="433.957">
    PUT /parties/MSISDN/12345678
  </text>
  <path stroke="#a80036" d="M273.5 483.289h42M315.5 483.289v13M274.5 496.289h41"/>
  <path fill="#A80036" stroke="#a80036" d="M284.5 492.29l-10 4 10 4-4-4z"/>
  <text font-family="sans-serif" font-size="13" lengthAdjust="spacingAndGlyphs" textLength="279" x="280.5" y="463.09">
    discover that this call should be propagated
  </text>
  <text font-family="sans-serif" font-size="13" lengthAdjust="spacingAndGlyphs" textLength="235" x="280.5" y="478.223">
    to the proper thirdparty-sdk&apos; callback
  </text>
  <path fill="#A80036" stroke="#a80036" d="M791.5 521.422l10 4-10 4 4-4z"/>
  <path stroke="#a80036" d="M273.5 525.422h524"/>
  <text font-family="sans-serif" font-size="13" lengthAdjust="spacingAndGlyphs" textLength="201" x="280.5" y="520.356">
    PUT /parties/MSISDN/12345678
  </text>
  <path fill="#A80036" stroke="#a80036" d="M1073.5 580.555l10 4-10 4 4-4z"/>
  <path stroke="#a80036" d="M808.5 584.555h271"/>
  <text font-family="sans-serif" font-size="13" lengthAdjust="spacingAndGlyphs" textLength="253" x="815.5" y="579.489">
    send PUT payload via PUB/SUB channel
  </text>
  <path stroke="#a80036" d="M1095.5 613.688h42M1137.5 613.688v13M1096.5 626.688h41"/>
  <path fill="#A80036" stroke="#a80036" d="M1106.5 622.688l-10 4 10 4-4-4z"/>
  <text font-family="sans-serif" font-size="13" lengthAdjust="spacingAndGlyphs" textLength="584" x="1102.5" y="608.622">
    consume PUT payload received via PUB/SUB channel to PISP and continue the Transfer flow
  </text>
  <path fill="#A80036" stroke="#a80036" d="M1681.5 651.82l10 4-10 4 4-4z"/>
  <path stroke="#a80036" d="M1095.5 655.82h592"/>
  <text font-family="sans-serif" font-size="13" lengthAdjust="spacingAndGlyphs" textLength="171" x="1102.5" y="650.754">
    send result of Transfer flow
  </text>
</svg>
