<svg xmlns="http://www.w3.org/2000/svg" height="1092" preserveAspectRatio="none" style="width:1481px;height:1092px" width="1481">
  <defs>
    <filter height="300%" id="a" width="300%" x="-1" y="-1">
      <feGaussianBlur result="blurOut" stdDeviation="2"/>
      <feColorMatrix in="blurOut" result="blurOut2" values="0 0 0 0 0 0 0 0 0 0 0 0 0 0 0 0 0 0 .4 0"/>
      <feOffset dx="4" dy="4" in="blurOut2" result="blurOut3"/>
      <feBlend in="SourceGraphic" in2="blurOut3"/>
    </filter>
  </defs>
  <text font-family="sans-serif" font-size="18" lengthAdjust="spacingAndGlyphs" textLength="314" x="583.75" y="28.708">
    Transfer: 1.2.4 Verify Authorization
  </text>
  <path fill="#DDD" stroke="#a80036" d="M1 40.953h444v1045.766H1z"/>
  <text font-family="sans-serif" font-size="13" font-weight="bold" lengthAdjust="spacingAndGlyphs" textLength="67" x="189.5" y="53.02">
    Mojaloop
  </text>
  <path fill="#DDD" stroke="#a80036" d="M720.5 40.953h76v1045.766h-76z"/>
  <text font-family="sans-serif" font-size="13" font-weight="bold" lengthAdjust="spacingAndGlyphs" textLength="54" x="731.5" y="53.02">
    DFSP A
  </text>
  <path stroke="#a80036" stroke-dasharray="5,5" d="M36 111.68v920.445M388 111.68v920.445M758.5 111.68v920.445"/>
  <path fill="#FEFECE" filter="url(#a)" stroke="#a80036" stroke-width="1.5" d="M5 76.383h59v30.297H5z"/>
  <text font-family="sans-serif" font-size="14" lengthAdjust="spacingAndGlyphs" textLength="45" x="12" y="96.378">
    Switch
  </text>
  <path fill="#FEFECE" filter="url(#a)" stroke="#a80036" stroke-width="1.5" d="M5 1031.125h59v30.297H5z"/>
  <text font-family="sans-serif" font-size="14" lengthAdjust="spacingAndGlyphs" textLength="45" x="12" y="1051.12">
    Switch
  </text>
  <path fill="#FEFECE" filter="url(#a)" stroke="#a80036" stroke-width="1.5" d="M336 76.383h101v30.297H336z"/>
  <text font-family="sans-serif" font-size="14" lengthAdjust="spacingAndGlyphs" textLength="87" x="343" y="96.378">
    Auth-Service
  </text>
  <path fill="#FEFECE" filter="url(#a)" stroke="#a80036" stroke-width="1.5" d="M336 1031.125h101v30.297H336z"/>
  <text font-family="sans-serif" font-size="14" lengthAdjust="spacingAndGlyphs" textLength="87" x="343" y="1051.12">
    Auth-Service
  </text>
  <path fill="#FEFECE" filter="url(#a)" stroke="#a80036" stroke-width="1.5" d="M724.5 60.086h64v46.594h-64z"/>
  <text font-family="sans-serif" font-size="14" lengthAdjust="spacingAndGlyphs" textLength="50" x="731.5" y="80.081">
    DFSP A
  </text>
  <text font-family="sans-serif" font-size="14" lengthAdjust="spacingAndGlyphs" textLength="48" x="732.5" y="96.378">
    (Payer)
  </text>
  <path fill="#FEFECE" filter="url(#a)" stroke="#a80036" stroke-width="1.5" d="M724.5 1031.125h64v46.594h-64z"/>
  <text font-family="sans-serif" font-size="14" lengthAdjust="spacingAndGlyphs" textLength="50" x="731.5" y="1051.12">
    DFSP A
  </text>
  <text font-family="sans-serif" font-size="14" lengthAdjust="spacingAndGlyphs" textLength="48" x="732.5" y="1067.417">
    (Payer)
  </text>
  <path stroke="#a80036" d="M758.5 142.813h42M800.5 142.813v13M759.5 155.813h41"/>
  <path fill="#A80036" stroke="#a80036" d="M769.5 151.813l-10 4 10 4-4-4z"/>
  <text font-family="sans-serif" font-size="13" lengthAdjust="spacingAndGlyphs" textLength="101" x="765.5" y="137.747">
    Generate a new
  </text>
  <text font-family="monospace" font-size="13" lengthAdjust="spacingAndGlyphs" textLength="392" x="870.5" y="137.747">
    verificationRequestId&quot;, and associate it with the
  </text>
  <text font-family="sans-serif" font-size="13" lengthAdjust="spacingAndGlyphs" textLength="204" x="1270.5" y="137.747">
    thirdpartyTransactionRequestId&quot;
  </text>
  <path fill="#FFF" filter="url(#a)" stroke="#a80036" d="M278 168.813h475v280H278z"/>
  <text font-family="monospace" font-size="13" font-weight="bold" lengthAdjust="spacingAndGlyphs" textLength="304" x="282" y="184.879">
    POST /thirdpartyRequests/verifications
  </text>
  <text font-family="monospace" font-size="13" lengthAdjust="spacingAndGlyphs" textLength="160" x="282" y="200.012">
    FSPIOP-Source: dfspa
  </text>
  <text font-family="monospace" font-size="13" lengthAdjust="spacingAndGlyphs" textLength="256" x="282" y="215.145">
    FSPIOP-Destination: central-auth
  </text>
  <text font-family="sans-serif" font-size="13" lengthAdjust="spacingAndGlyphs" textLength="8" x="282" y="230.278">
    {
  </text>
  <text font-family="sans-serif" font-size="13" lengthAdjust="spacingAndGlyphs" textLength="440" x="290" y="245.411">
    &quot;verificationRequestId&quot;: &quot;44444444-0000-0000-0000-000000000000&quot;,
  </text>
  <text font-family="sans-serif" font-size="13" lengthAdjust="spacingAndGlyphs" textLength="75" x="290" y="260.543">
    &quot;challenge&quot;:
  </text>
  <text font-family="monospace" font-size="13" lengthAdjust="spacingAndGlyphs" textLength="376" x="369" y="260.543">
    &lt;base64 encoded binary - the encoded challenge&gt;
  </text>
  <text font-family="sans-serif" font-size="13" lengthAdjust="spacingAndGlyphs" textLength="4" x="745" y="260.543">
    ,
  </text>
  <text font-family="sans-serif" font-size="13" lengthAdjust="spacingAndGlyphs" textLength="60" x="290" y="275.676">
    &quot;value&quot;: {
  </text>
  <text font-family="sans-serif" font-size="13" lengthAdjust="spacingAndGlyphs" textLength="141" x="298" y="290.809">
    &quot;authenticationInfo&quot;: {
  </text>
  <text font-family="sans-serif" font-size="13" lengthAdjust="spacingAndGlyphs" textLength="149" x="306" y="305.942">
    &quot;authentication&quot;: &quot;U2F&quot;,
  </text>
  <text font-family="sans-serif" font-size="13" lengthAdjust="spacingAndGlyphs" textLength="154" x="306" y="321.075">
    &quot;authenticationValue&quot;: {
  </text>
  <text font-family="sans-serif" font-size="13" lengthAdjust="spacingAndGlyphs" textLength="403" x="314" y="336.207">
    &quot;pinValue&quot;: &quot;&lt;base64 encoded binary - the signed challenge&gt;&quot;,
  </text>
  <text font-family="sans-serif" font-size="13" lengthAdjust="spacingAndGlyphs" textLength="85" x="314" y="351.34">
    &quot;counter&quot;: &quot;1&quot;
  </text>
  <text font-family="sans-serif" font-size="13" lengthAdjust="spacingAndGlyphs" textLength="8" x="306" y="366.473">
    }
  </text>
  <text font-family="sans-serif" font-size="13" lengthAdjust="spacingAndGlyphs" textLength="8" x="298" y="381.606">
    }
  </text>
  <text font-family="sans-serif" font-size="13" lengthAdjust="spacingAndGlyphs" textLength="176" x="298" y="396.739">
    &quot;responseType&quot;: &quot;ENTERED&quot;
  </text>
  <text font-family="sans-serif" font-size="13" lengthAdjust="spacingAndGlyphs" textLength="12" x="290" y="411.872">
    },
  </text>
  <text font-family="sans-serif" font-size="13" lengthAdjust="spacingAndGlyphs" textLength="114" x="290" y="427.004">
    &quot;consentId&quot;: &quot;123&quot;
  </text>
  <text font-family="sans-serif" font-size="13" lengthAdjust="spacingAndGlyphs" textLength="8" x="282" y="442.137">
    }
  </text>
  <path fill="#A80036" stroke="#a80036" d="M47.5 471.336l-10 4 10 4-4-4z"/>
  <path stroke="#a80036" d="M41.5 475.336h716"/>
  <text font-family="monospace" font-size="13" lengthAdjust="spacingAndGlyphs" textLength="304" x="53.5" y="470.27">
    POST /thirdpartyRequests/verifications
  </text>
  <path fill="#A80036" stroke="#a80036" d="M746.5 500.469l10 4-10 4 4-4z"/>
  <path stroke="#a80036" stroke-dasharray="2,2" d="M36.5 504.469h716"/>
  <text font-family="monospace" font-size="13" lengthAdjust="spacingAndGlyphs" textLength="96" x="43.5" y="499.403">
    202 Accepted
  </text>
  <path fill="#A80036" stroke="#a80036" d="M376.5 529.602l10 4-10 4 4-4z"/>
  <path stroke="#a80036" d="M36.5 533.602h346"/>
  <text font-family="monospace" font-size="13" lengthAdjust="spacingAndGlyphs" textLength="304" x="43.5" y="528.536">
    POST /thirdpartyRequests/verifications
  </text>
  <path fill="#A80036" stroke="#a80036" d="M47.5 558.734l-10 4 10 4-4-4z"/>
  <path stroke="#a80036" stroke-dasharray="2,2" d="M41.5 562.734h346"/>
  <text font-family="monospace" font-size="13" lengthAdjust="spacingAndGlyphs" textLength="96" x="53.5" y="557.668">
    202 Accepted
  </text>
  <path stroke="#a80036" d="M388.5 591.867h42M430.5 591.867v13M389.5 604.867h41"/>
  <path fill="#A80036" stroke="#a80036" d="M399.5 600.867l-10 4 10 4-4-4z"/>
  <text font-family="sans-serif" font-size="13" lengthAdjust="spacingAndGlyphs" textLength="257" x="395.5" y="586.801">
    Lookup this consent based on consentId
  </text>
  <path stroke="#a80036" d="M388.5 634h42M430.5 634v13M389.5 647h41"/>
  <path fill="#A80036" stroke="#a80036" d="M399.5 643l-10 4 10 4-4-4z"/>
  <text font-family="sans-serif" font-size="13" lengthAdjust="spacingAndGlyphs" textLength="356" x="395.5" y="628.934">
    Ensure the accountAddress matches what is in Consent
  </text>
  <path stroke="#a80036" d="M388.5 691.266h42M430.5 691.266v13M389.5 704.266h41"/>
  <path fill="#A80036" stroke="#a80036" d="M399.5 700.266l-10 4 10 4-4-4z"/>
  <text font-family="sans-serif" font-size="13" lengthAdjust="spacingAndGlyphs" textLength="249" x="395.5" y="671.067">
    Check that the signed bytes match the
  </text>
  <text font-family="sans-serif" font-size="13" lengthAdjust="spacingAndGlyphs" textLength="261" x="395.5" y="686.2">
    publickey we have stored for the consent
  </text>
  <path fill="#FFF" filter="url(#a)" stroke="#a80036" d="M393 717.266h600v98H393z"/>
  <text font-family="monospace" font-size="13" font-weight="bold" lengthAdjust="spacingAndGlyphs" textLength="592" x="397" y="733.332">
    PUT /thirdpartyRequests/verifications/44444444-0000-0000-0000-000000000000
  </text>
  <text font-family="monospace" font-size="13" lengthAdjust="spacingAndGlyphs" textLength="216" x="397" y="748.465">
    FSPIOP-Source: central-auth
  </text>
  <text font-family="monospace" font-size="13" lengthAdjust="spacingAndGlyphs" textLength="200" x="397" y="763.598">
    FSPIOP-Destination: dfspa
  </text>
  <text font-family="sans-serif" font-size="13" lengthAdjust="spacingAndGlyphs" textLength="8" x="397" y="778.731">
    {
  </text>
  <text font-family="sans-serif" font-size="13" lengthAdjust="spacingAndGlyphs" textLength="238" x="405" y="793.864">
    &quot;authenticationResponse&quot;: &quot;VERIFIED&quot;
  </text>
  <text font-family="sans-serif" font-size="13" lengthAdjust="spacingAndGlyphs" textLength="8" x="397" y="808.997">
    }
  </text>
  <path fill="#A80036" stroke="#a80036" d="M47.5 853.328l-10 4 10 4-4-4z"/>
  <path stroke="#a80036" d="M41.5 857.328h346"/>
  <text font-family="monospace" font-size="13" lengthAdjust="spacingAndGlyphs" textLength="296" x="53.5" y="837.129">
    PUT /thirdpartyRequests/verifications
  </text>
  <text font-family="monospace" font-size="13" lengthAdjust="spacingAndGlyphs" textLength="296" x="85.5" y="852.262">
    /44444444-0000-0000-0000-000000000000
  </text>
  <path fill="#A80036" stroke="#a80036" d="M376.5 882.46l10 4-10 4 4-4z"/>
  <path stroke="#a80036" stroke-dasharray="2,2" d="M36.5 886.461h346"/>
  <text font-family="monospace" font-size="13" lengthAdjust="spacingAndGlyphs" textLength="48" x="43.5" y="881.395">
    200 OK
  </text>
  <path fill="#A80036" stroke="#a80036" d="M746.5 926.727l10 4-10 4 4-4z"/>
  <path stroke="#a80036" d="M36.5 930.727h716"/>
  <text font-family="monospace" font-size="13" lengthAdjust="spacingAndGlyphs" textLength="296" x="43.5" y="910.528">
    PUT /thirdpartyRequests/verifications
  </text>
  <text font-family="monospace" font-size="13" lengthAdjust="spacingAndGlyphs" textLength="296" x="75.5" y="925.661">
    /44444444-0000-0000-0000-000000000000
  </text>
  <path fill="#A80036" stroke="#a80036" d="M47.5 955.86l-10 4 10 4-4-4z"/>
  <path stroke="#a80036" stroke-dasharray="2,2" d="M41.5 959.859h716"/>
  <text font-family="monospace" font-size="13" lengthAdjust="spacingAndGlyphs" textLength="48" x="53.5" y="954.793">
    200 OK
  </text>
  <path d="M570 972.86v40h372v-30l-10-10H570" fill="#FBFB77" filter="url(#a)" stroke="#a80036"/>
  <path d="M932 972.86v10h10l-10-10" fill="#FBFB77" stroke="#a80036"/>
  <text font-family="sans-serif" font-size="13" lengthAdjust="spacingAndGlyphs" textLength="351" x="576" y="989.926">
    DFSPA now knows that the user signed this transaction
  </text>
  <text font-family="sans-serif" font-size="13" lengthAdjust="spacingAndGlyphs" textLength="269" x="576" y="1005.059">
    and can go ahead and initiate the transfer
  </text>
</svg>
