<svg xmlns="http://www.w3.org/2000/svg" height="1655" preserveAspectRatio="none" style="width:1560px;height:1655px" width="1560">
  <defs>
    <filter height="300%" id="a" width="300%" x="-1" y="-1">
      <feGaussianBlur result="blurOut" stdDeviation="2"/>
      <feColorMatrix in="blurOut" result="blurOut2" values="0 0 0 0 0 0 0 0 0 0 0 0 0 0 0 0 0 0 .4 0"/>
      <feOffset dx="4" dy="4" in="blurOut2" result="blurOut3"/>
      <feBlend in="SourceGraphic" in2="blurOut3"/>
    </filter>
  </defs>
  <text font-family="sans-serif" font-size="18" lengthAdjust="spacingAndGlyphs" textLength="236" x="658.5" y="28.708">
    Transfer: 1.3 Final transfer
  </text>
  <path fill="#DDD" stroke="#a80036" d="M73 40.953h104v1608.891H73z"/>
  <text font-family="sans-serif" font-size="13" font-weight="bold" lengthAdjust="spacingAndGlyphs" textLength="33" x="108.5" y="53.02">
    PISP
  </text>
  <path fill="#DDD" stroke="#a80036" d="M433.5 40.953h73v1608.891h-73z"/>
  <text font-family="sans-serif" font-size="13" font-weight="bold" lengthAdjust="spacingAndGlyphs" textLength="67" x="436.5" y="53.02">
    Mojaloop
  </text>
  <path fill="#DDD" stroke="#a80036" d="M777 40.953h76v1608.891h-76z"/>
  <text font-family="sans-serif" font-size="13" font-weight="bold" lengthAdjust="spacingAndGlyphs" textLength="54" x="788" y="53.02">
    DFSP A
  </text>
  <path fill="#DDD" stroke="#a80036" d="M1169 40.953h78v1608.891h-78z"/>
  <text font-family="sans-serif" font-size="13" font-weight="bold" lengthAdjust="spacingAndGlyphs" textLength="54" x="1181" y="53.02">
    DFSP B
  </text>
  <path stroke="#a80036" d="M125 139.547v53.133"/>
  <path stroke="#a80036" stroke-dasharray="1,4" d="M125 192.68v40.804"/>
  <path stroke="#a80036" d="M125 233.484V1547.25M469.5 139.547v53.133"/>
  <path stroke="#a80036" stroke-dasharray="1,4" d="M469.5 192.68v40.804"/>
  <path stroke="#a80036" d="M469.5 233.484V1547.25M815 139.547v53.133"/>
  <path stroke="#a80036" stroke-dasharray="1,4" d="M815 192.68v40.804"/>
  <path stroke="#a80036" d="M815 233.484V1547.25M1208 139.547v53.133"/>
  <path stroke="#a80036" stroke-dasharray="1,4" d="M1208 192.68v40.804"/>
  <path stroke="#a80036" d="M1208 233.484V1547.25M1485 139.547v53.133"/>
  <path stroke="#a80036" stroke-dasharray="1,4" d="M1485 192.68v40.804"/>
  <path stroke="#a80036" d="M1485 233.484V1547.25"/>
  <path fill="#FEFECE" filter="url(#a)" stroke="#a80036" stroke-width="1.5" d="M77 104.25h92v30.297H77z"/>
  <text font-family="sans-serif" font-size="14" lengthAdjust="spacingAndGlyphs" textLength="78" x="84" y="124.245">
    PISP Server
  </text>
  <path fill="#FEFECE" filter="url(#a)" stroke="#a80036" stroke-width="1.5" d="M77 1546.25h92v30.297H77z"/>
  <text font-family="sans-serif" font-size="14" lengthAdjust="spacingAndGlyphs" textLength="78" x="84" y="1566.245">
    PISP Server
  </text>
  <path fill="#FEFECE" filter="url(#a)" stroke="#a80036" stroke-width="1.5" d="M438.5 104.25h59v30.297h-59z"/>
  <text font-family="sans-serif" font-size="14" lengthAdjust="spacingAndGlyphs" textLength="45" x="445.5" y="124.245">
    Switch
  </text>
  <path fill="#FEFECE" filter="url(#a)" stroke="#a80036" stroke-width="1.5" d="M438.5 1546.25h59v30.297h-59z"/>
  <text font-family="sans-serif" font-size="14" lengthAdjust="spacingAndGlyphs" textLength="45" x="445.5" y="1566.245">
    Switch
  </text>
  <path fill="#FEFECE" filter="url(#a)" stroke="#a80036" stroke-width="1.5" d="M781 87.953h64v46.594h-64z"/>
  <text font-family="sans-serif" font-size="14" lengthAdjust="spacingAndGlyphs" textLength="50" x="788" y="107.948">
    DFSP A
  </text>
  <text font-family="sans-serif" font-size="14" lengthAdjust="spacingAndGlyphs" textLength="48" x="789" y="124.245">
    (Payer)
  </text>
  <path fill="#FEFECE" filter="url(#a)" stroke="#a80036" stroke-width="1.5" d="M781 1546.25h64v46.594h-64z"/>
  <text font-family="sans-serif" font-size="14" lengthAdjust="spacingAndGlyphs" textLength="50" x="788" y="1566.245">
    DFSP A
  </text>
  <text font-family="sans-serif" font-size="14" lengthAdjust="spacingAndGlyphs" textLength="48" x="789" y="1582.542">
    (Payer)
  </text>
  <path fill="#FEFECE" filter="url(#a)" stroke="#a80036" stroke-width="1.5" d="M1173 87.953h66v46.594h-66z"/>
  <text font-family="sans-serif" font-size="14" lengthAdjust="spacingAndGlyphs" textLength="51" x="1180.5" y="107.948">
    DFSP B
  </text>
  <text font-family="sans-serif" font-size="14" lengthAdjust="spacingAndGlyphs" textLength="52" x="1180" y="124.245">
    (Payee)
  </text>
  <path fill="#FEFECE" filter="url(#a)" stroke="#a80036" stroke-width="1.5" d="M1173 1546.25h66v46.594h-66z"/>
  <text font-family="sans-serif" font-size="14" lengthAdjust="spacingAndGlyphs" textLength="51" x="1180.5" y="1566.245">
    DFSP B
  </text>
  <text font-family="sans-serif" font-size="14" lengthAdjust="spacingAndGlyphs" textLength="52" x="1180" y="1582.542">
    (Payee)
  </text>
  <text font-family="sans-serif" font-size="14" lengthAdjust="spacingAndGlyphs" textLength="60" x="1452" y="119.948">
    Bhavesh
  </text>
  <text font-family="sans-serif" font-size="14" lengthAdjust="spacingAndGlyphs" textLength="120" x="1422" y="136.245">
    (+44 1234 5678)
  </text>
  <circle cx="1485" cy="49.953" fill="#FEFECE" filter="url(#a)" stroke="#a80036" stroke-width="2" r="8"/>
  <path d="M1485 57.953v27m-13-19h26m-13 19l-13 15m13-15l13 15" fill="none" filter="url(#a)" stroke="#a80036" stroke-width="2"/>
  <text font-family="sans-serif" font-size="14" lengthAdjust="spacingAndGlyphs" textLength="60" x="1452" y="1559.245">
    Bhavesh
  </text>
  <text font-family="sans-serif" font-size="14" lengthAdjust="spacingAndGlyphs" textLength="120" x="1422" y="1575.542">
    (+44 1234 5678)
  </text>
  <circle cx="1485" cy="1588.844" fill="#FEFECE" filter="url(#a)" stroke="#a80036" stroke-width="2" r="8"/>
  <path d="M1485 1596.844v27m-13-19h26m-13 19l-13 15m13-15l13 15" fill="none" filter="url(#a)" stroke="#a80036" stroke-width="2"/>
  <path fill="#EEE" filter="url(#a)" stroke="#eee" d="M0 170.113h1553v3H0z"/>
  <path stroke="#000" d="M0 170.113h1553M0 173.113h1553"/>
  <path fill="#EEE" filter="url(#a)" stroke="#000" stroke-width="2" d="M711.5 159.547h130v23.133h-130z"/>
  <text font-family="sans-serif" font-size="13" font-weight="bold" lengthAdjust="spacingAndGlyphs" textLength="111" x="717.5" y="175.614">
    Transfer Phase
  </text>
  <text font-family="sans-serif" font-size="11" lengthAdjust="spacingAndGlyphs" textLength="276" x="667" y="216.89">
    DFSP A initiates a normal Mojaloop P2P Transfer
  </text>
  <path fill="#FFF" filter="url(#a)" stroke="#a80036" d="M677 238.484h276v250H677z"/>
  <text font-family="monospace" font-size="13" font-weight="bold" lengthAdjust="spacingAndGlyphs" textLength="120" x="681" y="254.551">
    POST /transfers
  </text>
  <text font-family="monospace" font-size="13" lengthAdjust="spacingAndGlyphs" textLength="160" x="681" y="269.684">
    FSPIOP-Source: dfspa
  </text>
  <text font-family="monospace" font-size="13" lengthAdjust="spacingAndGlyphs" textLength="200" x="681" y="284.817">
    FSPIOP-Destination: dfspb
  </text>
  <text font-family="sans-serif" font-size="13" lengthAdjust="spacingAndGlyphs" textLength="8" x="681" y="299.95">
    {
  </text>
  <text font-family="sans-serif" font-size="13" lengthAdjust="spacingAndGlyphs" textLength="117" x="689" y="315.082">
    &quot;transferId&quot;: &quot;321&quot;,
  </text>
  <text font-family="sans-serif" font-size="13" lengthAdjust="spacingAndGlyphs" textLength="104" x="689" y="330.215">
    &quot;quoteId&quot;: &quot;456&quot;,
  </text>
  <text font-family="sans-serif" font-size="13" lengthAdjust="spacingAndGlyphs" textLength="125" x="689" y="345.348">
    &quot;payerFsp&quot;: &quot;dfspa&quot;,
  </text>
  <text font-family="sans-serif" font-size="13" lengthAdjust="spacingAndGlyphs" textLength="128" x="689" y="360.481">
    &quot;payeeFsp&quot;: &quot;dfspb&quot;,
  </text>
  <text font-family="sans-serif" font-size="13" lengthAdjust="spacingAndGlyphs" textLength="76" x="689" y="375.614">
    &quot;amount&quot;: {
  </text>
  <text font-family="sans-serif" font-size="13" lengthAdjust="spacingAndGlyphs" textLength="106" x="697" y="390.747">
    &quot;amount&quot;: &quot;100&quot;,
  </text>
  <text font-family="sans-serif" font-size="13" lengthAdjust="spacingAndGlyphs" textLength="112" x="697" y="405.879">
    &quot;currency&quot;: &quot;USD&quot;
  </text>
  <text font-family="sans-serif" font-size="13" lengthAdjust="spacingAndGlyphs" textLength="12" x="689" y="421.012">
    },
  </text>
  <text font-family="sans-serif" font-size="13" lengthAdjust="spacingAndGlyphs" textLength="260" x="689" y="436.145">
    &quot;expiration&quot;: &quot;2020-06-15T13:00:00.000&quot;,
  </text>
  <text font-family="sans-serif" font-size="13" lengthAdjust="spacingAndGlyphs" textLength="101" x="689" y="451.278">
    &quot;ilpPacket&quot;: &quot;...&quot;,
  </text>
  <text font-family="sans-serif" font-size="13" lengthAdjust="spacingAndGlyphs" textLength="102" x="689" y="466.411">
    &quot;condition&quot;: &quot;...&quot;,
  </text>
  <text font-family="sans-serif" font-size="13" lengthAdjust="spacingAndGlyphs" textLength="8" x="681" y="481.543">
    }
  </text>
  <path fill="#A80036" stroke="#a80036" d="M481 510.742l-10 4 10 4-4-4z"/>
  <path stroke="#a80036" d="M475 514.742h339"/>
  <text font-family="monospace" font-size="13" lengthAdjust="spacingAndGlyphs" textLength="120" x="487" y="509.676">
    POST /transfers
  </text>
  <path fill="#A80036" stroke="#a80036" d="M803 539.875l10 4-10 4 4-4z"/>
  <path stroke="#a80036" stroke-dasharray="2,2" d="M470 543.875h339"/>
  <text font-family="monospace" font-size="13" lengthAdjust="spacingAndGlyphs" textLength="96" x="477" y="538.809">
    202 Accepted
  </text>
  <path fill="#FFF" filter="url(#a)" stroke="#a80036" d="M332 556.875h276v250H332z"/>
  <text font-family="monospace" font-size="13" font-weight="bold" lengthAdjust="spacingAndGlyphs" textLength="120" x="336" y="572.942">
    POST /transfers
  </text>
  <text font-family="monospace" font-size="13" lengthAdjust="spacingAndGlyphs" textLength="160" x="336" y="588.075">
    FSPIOP-Source: dfspa
  </text>
  <text font-family="monospace" font-size="13" lengthAdjust="spacingAndGlyphs" textLength="200" x="336" y="603.207">
    FSPIOP-Destination: dfspb
  </text>
  <text font-family="sans-serif" font-size="13" lengthAdjust="spacingAndGlyphs" textLength="8" x="336" y="618.34">
    {
  </text>
  <text font-family="sans-serif" font-size="13" lengthAdjust="spacingAndGlyphs" textLength="117" x="344" y="633.473">
    &quot;transferId&quot;: &quot;321&quot;,
  </text>
  <text font-family="sans-serif" font-size="13" lengthAdjust="spacingAndGlyphs" textLength="104" x="344" y="648.606">
    &quot;quoteId&quot;: &quot;456&quot;,
  </text>
  <text font-family="sans-serif" font-size="13" lengthAdjust="spacingAndGlyphs" textLength="125" x="344" y="663.739">
    &quot;payerFsp&quot;: &quot;dfspa&quot;,
  </text>
  <text font-family="sans-serif" font-size="13" lengthAdjust="spacingAndGlyphs" textLength="128" x="344" y="678.872">
    &quot;payeeFsp&quot;: &quot;dfspb&quot;,
  </text>
  <text font-family="sans-serif" font-size="13" lengthAdjust="spacingAndGlyphs" textLength="76" x="344" y="694.004">
    &quot;amount&quot;: {
  </text>
  <text font-family="sans-serif" font-size="13" lengthAdjust="spacingAndGlyphs" textLength="106" x="352" y="709.137">
    &quot;amount&quot;: &quot;100&quot;,
  </text>
  <text font-family="sans-serif" font-size="13" lengthAdjust="spacingAndGlyphs" textLength="112" x="352" y="724.27">
    &quot;currency&quot;: &quot;USD&quot;
  </text>
  <text font-family="sans-serif" font-size="13" lengthAdjust="spacingAndGlyphs" textLength="12" x="344" y="739.403">
    },
  </text>
  <text font-family="sans-serif" font-size="13" lengthAdjust="spacingAndGlyphs" textLength="260" x="344" y="754.536">
    &quot;expiration&quot;: &quot;2020-06-15T13:00:00.000&quot;,
  </text>
  <text font-family="sans-serif" font-size="13" lengthAdjust="spacingAndGlyphs" textLength="101" x="344" y="769.668">
    &quot;ilpPacket&quot;: &quot;...&quot;,
  </text>
  <text font-family="sans-serif" font-size="13" lengthAdjust="spacingAndGlyphs" textLength="102" x="344" y="784.801">
    &quot;condition&quot;: &quot;...&quot;,
  </text>
  <text font-family="sans-serif" font-size="13" lengthAdjust="spacingAndGlyphs" textLength="8" x="336" y="799.934">
    }
  </text>
  <path fill="#A80036" stroke="#a80036" d="M1196 829.133l10 4-10 4 4-4z"/>
  <path stroke="#a80036" d="M470 833.133h732"/>
  <text font-family="monospace" font-size="13" lengthAdjust="spacingAndGlyphs" textLength="120" x="477" y="828.067">
    POST /transfers
  </text>
  <path fill="#A80036" stroke="#a80036" d="M481 858.266l-10 4 10 4-4-4z"/>
  <path stroke="#a80036" stroke-dasharray="2,2" d="M475 862.266h732"/>
  <text font-family="monospace" font-size="13" lengthAdjust="spacingAndGlyphs" textLength="96" x="487" y="857.2">
    202 Accepted
  </text>
  <path fill="#FFF" filter="url(#a)" stroke="#a80036" d="M850 875.266h353v129H850z"/>
  <text font-family="monospace" font-size="13" font-weight="bold" lengthAdjust="spacingAndGlyphs" textLength="144" x="854" y="891.332">
    PUT /transfers/321
  </text>
  <text font-family="monospace" font-size="13" lengthAdjust="spacingAndGlyphs" textLength="160" x="854" y="906.465">
    FSPIOP-Source: dfspb
  </text>
  <text font-family="monospace" font-size="13" lengthAdjust="spacingAndGlyphs" textLength="200" x="854" y="921.598">
    FSPIOP-Destination: dfspa
  </text>
  <text font-family="sans-serif" font-size="13" lengthAdjust="spacingAndGlyphs" textLength="8" x="854" y="936.731">
    {
  </text>
  <text font-family="sans-serif" font-size="13" lengthAdjust="spacingAndGlyphs" textLength="103" x="862" y="951.864">
    &quot;fulfilment&quot;: &quot;...&quot;,
  </text>
  <text font-family="sans-serif" font-size="13" lengthAdjust="spacingAndGlyphs" textLength="337" x="862" y="966.997">
    &quot;completedTimestamp&quot;: &quot;2020-06-15T12:01:00.000&quot;,
  </text>
  <text font-family="sans-serif" font-size="13" lengthAdjust="spacingAndGlyphs" textLength="189" x="862" y="982.129">
    &quot;transferState&quot;: &quot;COMMITTED&quot;
  </text>
  <text font-family="sans-serif" font-size="13" lengthAdjust="spacingAndGlyphs" textLength="8" x="854" y="997.262">
    }
  </text>
  <path fill="#A80036" stroke="#a80036" d="M481 1026.46l-10 4 10 4-4-4z"/>
  <path stroke="#a80036" d="M475 1030.461h732"/>
  <text font-family="monospace" font-size="13" lengthAdjust="spacingAndGlyphs" textLength="144" x="487" y="1025.395">
    PUT /transfers/321
  </text>
  <path fill="#A80036" stroke="#a80036" d="M1196 1055.594l10 4-10 4 4-4z"/>
  <path stroke="#a80036" stroke-dasharray="2,2" d="M470 1059.594h732"/>
  <text font-family="monospace" font-size="13" lengthAdjust="spacingAndGlyphs" textLength="48" x="477" y="1054.528">
    200 OK
  </text>
  <path fill="#A80036" stroke="#a80036" d="M1473 1084.727l10 4-10 4 4-4z"/>
  <path stroke="#a80036" d="M1208 1088.727h271"/>
  <text font-family="sans-serif" font-size="13" lengthAdjust="spacingAndGlyphs" textLength="253" x="1215" y="1083.661">
    You have received funds from Ayeesha!
  </text>
  <path fill="#A80036" stroke="#a80036" d="M803 1113.86l10 4-10 4 4-4z"/>
  <path stroke="#a80036" d="M470 1117.859h339"/>
  <text font-family="monospace" font-size="13" lengthAdjust="spacingAndGlyphs" textLength="144" x="477" y="1112.793">
    PUT /transfers/321
  </text>
  <path fill="#A80036" stroke="#a80036" d="M481 1142.992l-10 4 10 4-4-4z"/>
  <path stroke="#a80036" stroke-dasharray="2,2" d="M475 1146.992h339"/>
  <text font-family="monospace" font-size="13" lengthAdjust="spacingAndGlyphs" textLength="48" x="487" y="1141.926">
    200 OK
  </text>
  <path stroke="#a80036" d="M815 1176.125h42M857 1176.125v13M816 1189.125h41"/>
  <path fill="#A80036" stroke="#a80036" d="M826 1185.125l-10 4 10 4-4-4z"/>
  <text font-family="sans-serif" font-size="13" lengthAdjust="spacingAndGlyphs" textLength="379" x="822" y="1171.059">
    Look up ThirdpartyTransactionRequestId from the transferId
  </text>
  <path fill="#FFF" filter="url(#a)" stroke="#a80036" d="M511 1202.125h608v129H511z"/>
  <text font-family="monospace" font-size="13" font-weight="bold" lengthAdjust="spacingAndGlyphs" textLength="600" x="515" y="1218.192">
    PATCH /thirdpartyRequests/transactions/00000000-0000-0000-0000-000000000000
  </text>
  <text font-family="monospace" font-size="13" lengthAdjust="spacingAndGlyphs" textLength="160" x="515" y="1233.325">
    FSPIOP-Source: dfspa
  </text>
  <text font-family="monospace" font-size="13" lengthAdjust="spacingAndGlyphs" textLength="200" x="515" y="1248.457">
    FSPIOP-Destination: pispa
  </text>
  <text font-family="sans-serif" font-size="13" lengthAdjust="spacingAndGlyphs" textLength="8" x="515" y="1263.59">
    {
  </text>
  <text font-family="sans-serif" font-size="13" lengthAdjust="spacingAndGlyphs" textLength="391" x="523" y="1278.723">
    &quot;transactionId&quot;: &quot;11111111-0000-0000-0000-000000000000&quot;,
  </text>
  <text font-family="sans-serif" font-size="13" lengthAdjust="spacingAndGlyphs" textLength="259" x="523" y="1293.856">
    &quot;transactionRequestState&quot;: &quot;ACCEPTED&quot;,
  </text>
  <text font-family="sans-serif" font-size="13" lengthAdjust="spacingAndGlyphs" textLength="211" x="523" y="1308.989">
    &quot;transactionState&quot;: &quot;COMMITTED&quot;
  </text>
  <text font-family="sans-serif" font-size="13" lengthAdjust="spacingAndGlyphs" textLength="8" x="515" y="1324.122">
    }
  </text>
  <path fill="#A80036" stroke="#a80036" d="M481 1368.453l-10 4 10 4-4-4z"/>
  <path stroke="#a80036" d="M475 1372.453h339"/>
  <text font-family="monospace" font-size="13" lengthAdjust="spacingAndGlyphs" textLength="304" x="487" y="1352.254">
    PATCH /thirdpartyRequests/transactions
  </text>
  <text font-family="monospace" font-size="13" lengthAdjust="spacingAndGlyphs" textLength="296" x="511" y="1367.387">
    /00000000-0000-0000-0000-000000000000
  </text>
  <path fill="#A80036" stroke="#a80036" d="M803 1397.586l10 4-10 4 4-4z"/>
  <path stroke="#a80036" stroke-dasharray="2,2" d="M470 1401.586h339"/>
  <text font-family="monospace" font-size="13" lengthAdjust="spacingAndGlyphs" textLength="48" x="477" y="1396.52">
    200 OK
  </text>
  <path fill="#A80036" stroke="#a80036" d="M136 1441.852l-10 4 10 4-4-4z"/>
  <path stroke="#a80036" d="M130 1445.852h339"/>
  <text font-family="monospace" font-size="13" lengthAdjust="spacingAndGlyphs" textLength="304" x="142" y="1425.653">
    PATCH /thirdpartyRequests/transactions
  </text>
  <text font-family="monospace" font-size="13" lengthAdjust="spacingAndGlyphs" textLength="296" x="166" y="1440.786">
    /00000000-0000-0000-0000-000000000000
  </text>
  <path fill="#A80036" stroke="#a80036" d="M458 1470.984l10 4-10 4 4-4z"/>
  <path stroke="#a80036" stroke-dasharray="2,2" d="M125 1474.984h339"/>
  <text font-family="monospace" font-size="13" lengthAdjust="spacingAndGlyphs" textLength="48" x="132" y="1469.918">
    200 OK
  </text>
  <path d="M5 1487.984v40h236v-30l-10-10H5" fill="#FBFB77" filter="url(#a)" stroke="#a80036"/>
  <path d="M231 1487.984v10h10l-10-10" fill="#FBFB77" stroke="#a80036"/>
  <text font-family="sans-serif" font-size="13" lengthAdjust="spacingAndGlyphs" textLength="211" x="11" y="1505.051">
    PISP can now inform the user the
  </text>
  <text font-family="sans-serif" font-size="13" lengthAdjust="spacingAndGlyphs" textLength="138" x="11" y="1520.184">
    funds have been sent
  </text>
</svg>
