<svg xmlns="http://www.w3.org/2000/svg" height="1697" preserveAspectRatio="none" style="width:1693px;height:1697px" width="1693">
  <defs>
    <filter height="300%" id="a" width="300%" x="-1" y="-1">
      <feGaussianBlur result="blurOut" stdDeviation="2"/>
      <feColorMatrix in="blurOut" result="blurOut2" values="0 0 0 0 0 0 0 0 0 0 0 0 0 0 0 0 0 0 .4 0"/>
      <feOffset dx="4" dy="4" in="blurOut2" result="blurOut3"/>
      <feBlend in="SourceGraphic" in2="blurOut3"/>
    </filter>
  </defs>
  <text font-family="sans-serif" font-size="18" lengthAdjust="spacingAndGlyphs" textLength="236" x="725" y="28.708">
    Transfer: 1.3 Final transfer
  </text>
  <path fill="#DDD" stroke="#a80036" d="M73 40.953h104v1651.023H73z"/>
  <text font-family="sans-serif" font-size="13" font-weight="bold" lengthAdjust="spacingAndGlyphs" textLength="33" x="108.5" y="53.02">
    PISP
  </text>
  <path fill="#DDD" stroke="#a80036" d="M433.5 40.953h73v1651.023h-73z"/>
  <text font-family="sans-serif" font-size="13" font-weight="bold" lengthAdjust="spacingAndGlyphs" textLength="67" x="436.5" y="53.02">
    Mojaloop
  </text>
  <path fill="#DDD" stroke="#a80036" d="M777 40.953h76v1651.023h-76z"/>
  <text font-family="sans-serif" font-size="13" font-weight="bold" lengthAdjust="spacingAndGlyphs" textLength="54" x="788" y="53.02">
    DFSP A
  </text>
  <path fill="#DDD" stroke="#a80036" d="M1302 40.953h78v1651.023h-78z"/>
  <text font-family="sans-serif" font-size="13" font-weight="bold" lengthAdjust="spacingAndGlyphs" textLength="54" x="1314" y="53.02">
    DFSP B
  </text>
  <path stroke="#a80036" d="M125 139.547v53.133"/>
  <path stroke="#a80036" stroke-dasharray="1,4" d="M125 192.68v40.804"/>
  <path stroke="#a80036" d="M125 233.484v1355.899M469.5 139.547v53.133"/>
  <path stroke="#a80036" stroke-dasharray="1,4" d="M469.5 192.68v40.804"/>
  <path stroke="#a80036" d="M469.5 233.484v1355.899M815 139.547v53.133"/>
  <path stroke="#a80036" stroke-dasharray="1,4" d="M815 192.68v40.804"/>
  <path stroke="#a80036" d="M815 233.484v1355.899M1341 139.547v53.133"/>
  <path stroke="#a80036" stroke-dasharray="1,4" d="M1341 192.68v40.804"/>
  <path stroke="#a80036" d="M1341 233.484v1355.899M1618 139.547v53.133"/>
  <path stroke="#a80036" stroke-dasharray="1,4" d="M1618 192.68v40.804"/>
  <path stroke="#a80036" d="M1618 233.484v1355.899"/>
  <path fill="#FEFECE" filter="url(#a)" stroke="#a80036" stroke-width="1.5" d="M77 104.25h92v30.297H77z"/>
  <text font-family="sans-serif" font-size="14" lengthAdjust="spacingAndGlyphs" textLength="78" x="84" y="124.245">
    PISP Server
  </text>
  <path fill="#FEFECE" filter="url(#a)" stroke="#a80036" stroke-width="1.5" d="M77 1588.383h92v30.297H77z"/>
  <text font-family="sans-serif" font-size="14" lengthAdjust="spacingAndGlyphs" textLength="78" x="84" y="1608.378">
    PISP Server
  </text>
  <path fill="#FEFECE" filter="url(#a)" stroke="#a80036" stroke-width="1.5" d="M438.5 104.25h59v30.297h-59z"/>
  <text font-family="sans-serif" font-size="14" lengthAdjust="spacingAndGlyphs" textLength="45" x="445.5" y="124.245">
    Switch
  </text>
  <path fill="#FEFECE" filter="url(#a)" stroke="#a80036" stroke-width="1.5" d="M438.5 1588.383h59v30.297h-59z"/>
  <text font-family="sans-serif" font-size="14" lengthAdjust="spacingAndGlyphs" textLength="45" x="445.5" y="1608.378">
    Switch
  </text>
  <path fill="#FEFECE" filter="url(#a)" stroke="#a80036" stroke-width="1.5" d="M781 87.953h64v46.594h-64z"/>
  <text font-family="sans-serif" font-size="14" lengthAdjust="spacingAndGlyphs" textLength="50" x="788" y="107.948">
    DFSP A
  </text>
  <text font-family="sans-serif" font-size="14" lengthAdjust="spacingAndGlyphs" textLength="48" x="789" y="124.245">
    (Payer)
  </text>
  <path fill="#FEFECE" filter="url(#a)" stroke="#a80036" stroke-width="1.5" d="M781 1588.383h64v46.594h-64z"/>
  <text font-family="sans-serif" font-size="14" lengthAdjust="spacingAndGlyphs" textLength="50" x="788" y="1608.378">
    DFSP A
  </text>
  <text font-family="sans-serif" font-size="14" lengthAdjust="spacingAndGlyphs" textLength="48" x="789" y="1624.675">
    (Payer)
  </text>
  <path fill="#FEFECE" filter="url(#a)" stroke="#a80036" stroke-width="1.5" d="M1306 87.953h66v46.594h-66z"/>
  <text font-family="sans-serif" font-size="14" lengthAdjust="spacingAndGlyphs" textLength="51" x="1313.5" y="107.948">
    DFSP B
  </text>
  <text font-family="sans-serif" font-size="14" lengthAdjust="spacingAndGlyphs" textLength="52" x="1313" y="124.245">
    (Payee)
  </text>
  <path fill="#FEFECE" filter="url(#a)" stroke="#a80036" stroke-width="1.5" d="M1306 1588.383h66v46.594h-66z"/>
  <text font-family="sans-serif" font-size="14" lengthAdjust="spacingAndGlyphs" textLength="51" x="1313.5" y="1608.378">
    DFSP B
  </text>
  <text font-family="sans-serif" font-size="14" lengthAdjust="spacingAndGlyphs" textLength="52" x="1313" y="1624.675">
    (Payee)
  </text>
  <text font-family="sans-serif" font-size="14" lengthAdjust="spacingAndGlyphs" textLength="60" x="1585" y="119.948">
    Bhavesh
  </text>
  <text font-family="sans-serif" font-size="14" lengthAdjust="spacingAndGlyphs" textLength="120" x="1555" y="136.245">
    (+44 1234 5678)
  </text>
  <circle cx="1618" cy="49.953" fill="#FEFECE" filter="url(#a)" stroke="#a80036" stroke-width="2" r="8"/>
  <path d="M1618 57.953v27m-13-19h26m-13 19l-13 15m13-15l13 15" fill="none" filter="url(#a)" stroke="#a80036" stroke-width="2"/>
  <text font-family="sans-serif" font-size="14" lengthAdjust="spacingAndGlyphs" textLength="60" x="1585" y="1601.378">
    Bhavesh
  </text>
  <text font-family="sans-serif" font-size="14" lengthAdjust="spacingAndGlyphs" textLength="120" x="1555" y="1617.675">
    (+44 1234 5678)
  </text>
  <circle cx="1618" cy="1630.977" fill="#FEFECE" filter="url(#a)" stroke="#a80036" stroke-width="2" r="8"/>
  <path d="M1618 1638.977v27m-13-19h26m-13 19l-13 15m13-15l13 15" fill="none" filter="url(#a)" stroke="#a80036" stroke-width="2"/>
  <path fill="#EEE" filter="url(#a)" stroke="#eee" d="M0 170.113h1686v3H0z"/>
  <path stroke="#000" d="M0 170.113h1686M0 173.113h1686"/>
  <path fill="#EEE" filter="url(#a)" stroke="#000" stroke-width="2" d="M778 159.547h130v23.133H778z"/>
  <text font-family="sans-serif" font-size="13" font-weight="bold" lengthAdjust="spacingAndGlyphs" textLength="111" x="784" y="175.614">
    Transfer Phase
  </text>
  <text font-family="sans-serif" font-size="11" lengthAdjust="spacingAndGlyphs" textLength="276" x="733.5" y="216.89">
    DFSP A initiates a normal Mojaloop P2P Transfer
  </text>
  <path stroke="#a80036" d="M815 254.617h42M857 254.617v13M816 267.617h41"/>
  <path fill="#A80036" stroke="#a80036" d="M826 263.617l-10 4 10 4-4-4z"/>
  <text font-family="sans-serif" font-size="13" lengthAdjust="spacingAndGlyphs" textLength="101" x="822" y="249.551">
    Generate a new
  </text>
  <text font-family="monospace" font-size="13" lengthAdjust="spacingAndGlyphs" textLength="80" x="927" y="249.551">
    transferId
  </text>
  <text font-family="sans-serif" font-size="13" lengthAdjust="spacingAndGlyphs" textLength="163" x="1007" y="249.551">
    , and associate it with the
  </text>
  <text font-family="monospace" font-size="13" lengthAdjust="spacingAndGlyphs" textLength="160" x="1174" y="249.551">
    transactionRequestId
  </text>
  <path fill="#FFF" filter="url(#a)" stroke="#a80036" d="M677 280.617h276v250H677z"/>
  <text font-family="monospace" font-size="13" font-weight="bold" lengthAdjust="spacingAndGlyphs" textLength="120" x="681" y="296.684">
    POST /transfers
  </text>
  <text font-family="monospace" font-size="13" lengthAdjust="spacingAndGlyphs" textLength="160" x="681" y="311.817">
    FSPIOP-Source: dfspa
  </text>
  <text font-family="monospace" font-size="13" lengthAdjust="spacingAndGlyphs" textLength="200" x="681" y="326.95">
    FSPIOP-Destination: dfspb
  </text>
  <text font-family="sans-serif" font-size="13" lengthAdjust="spacingAndGlyphs" textLength="8" x="681" y="342.082">
    {
  </text>
  <text font-family="sans-serif" font-size="13" lengthAdjust="spacingAndGlyphs" textLength="117" x="689" y="357.215">
    &quot;transferId&quot;: &quot;321&quot;,
  </text>
  <text font-family="sans-serif" font-size="13" lengthAdjust="spacingAndGlyphs" textLength="104" x="689" y="372.348">
    &quot;quoteId&quot;: &quot;456&quot;,
  </text>
  <text font-family="sans-serif" font-size="13" lengthAdjust="spacingAndGlyphs" textLength="125" x="689" y="387.481">
    &quot;payerFsp&quot;: &quot;dfspa&quot;,
  </text>
  <text font-family="sans-serif" font-size="13" lengthAdjust="spacingAndGlyphs" textLength="128" x="689" y="402.614">
    &quot;payeeFsp&quot;: &quot;dfspb&quot;,
  </text>
  <text font-family="sans-serif" font-size="13" lengthAdjust="spacingAndGlyphs" textLength="76" x="689" y="417.747">
    &quot;amount&quot;: {
  </text>
  <text font-family="sans-serif" font-size="13" lengthAdjust="spacingAndGlyphs" textLength="106" x="697" y="432.879">
    &quot;amount&quot;: &quot;100&quot;,
  </text>
  <text font-family="sans-serif" font-size="13" lengthAdjust="spacingAndGlyphs" textLength="112" x="697" y="448.012">
    &quot;currency&quot;: &quot;USD&quot;
  </text>
  <text font-family="sans-serif" font-size="13" lengthAdjust="spacingAndGlyphs" textLength="12" x="689" y="463.145">
    },
  </text>
  <text font-family="sans-serif" font-size="13" lengthAdjust="spacingAndGlyphs" textLength="260" x="689" y="478.278">
    &quot;expiration&quot;: &quot;2020-06-15T13:00:00.000&quot;,
  </text>
  <text font-family="sans-serif" font-size="13" lengthAdjust="spacingAndGlyphs" textLength="101" x="689" y="493.411">
    &quot;ilpPacket&quot;: &quot;...&quot;,
  </text>
  <text font-family="sans-serif" font-size="13" lengthAdjust="spacingAndGlyphs" textLength="102" x="689" y="508.543">
    &quot;condition&quot;: &quot;...&quot;,
  </text>
  <text font-family="sans-serif" font-size="13" lengthAdjust="spacingAndGlyphs" textLength="8" x="681" y="523.676">
    }
  </text>
  <path fill="#A80036" stroke="#a80036" d="M481 552.875l-10 4 10 4-4-4z"/>
  <path stroke="#a80036" d="M475 556.875h339"/>
  <text font-family="monospace" font-size="13" lengthAdjust="spacingAndGlyphs" textLength="120" x="487" y="551.809">
    POST /transfers
  </text>
  <path fill="#A80036" stroke="#a80036" d="M803 582.008l10 4-10 4 4-4z"/>
  <path stroke="#a80036" stroke-dasharray="2,2" d="M470 586.008h339"/>
  <text font-family="monospace" font-size="13" lengthAdjust="spacingAndGlyphs" textLength="96" x="477" y="580.942">
    202 Accepted
  </text>
  <path fill="#FFF" filter="url(#a)" stroke="#a80036" d="M332 599.008h276v250H332z"/>
  <text font-family="monospace" font-size="13" font-weight="bold" lengthAdjust="spacingAndGlyphs" textLength="120" x="336" y="615.075">
    POST /transfers
  </text>
  <text font-family="monospace" font-size="13" lengthAdjust="spacingAndGlyphs" textLength="160" x="336" y="630.207">
    FSPIOP-Source: dfspa
  </text>
  <text font-family="monospace" font-size="13" lengthAdjust="spacingAndGlyphs" textLength="200" x="336" y="645.34">
    FSPIOP-Destination: dfspb
  </text>
  <text font-family="sans-serif" font-size="13" lengthAdjust="spacingAndGlyphs" textLength="8" x="336" y="660.473">
    {
  </text>
  <text font-family="sans-serif" font-size="13" lengthAdjust="spacingAndGlyphs" textLength="117" x="344" y="675.606">
    &quot;transferId&quot;: &quot;321&quot;,
  </text>
  <text font-family="sans-serif" font-size="13" lengthAdjust="spacingAndGlyphs" textLength="104" x="344" y="690.739">
    &quot;quoteId&quot;: &quot;456&quot;,
  </text>
  <text font-family="sans-serif" font-size="13" lengthAdjust="spacingAndGlyphs" textLength="125" x="344" y="705.872">
    &quot;payerFsp&quot;: &quot;dfspa&quot;,
  </text>
  <text font-family="sans-serif" font-size="13" lengthAdjust="spacingAndGlyphs" textLength="128" x="344" y="721.004">
    &quot;payeeFsp&quot;: &quot;dfspb&quot;,
  </text>
  <text font-family="sans-serif" font-size="13" lengthAdjust="spacingAndGlyphs" textLength="76" x="344" y="736.137">
    &quot;amount&quot;: {
  </text>
  <text font-family="sans-serif" font-size="13" lengthAdjust="spacingAndGlyphs" textLength="106" x="352" y="751.27">
    &quot;amount&quot;: &quot;100&quot;,
  </text>
  <text font-family="sans-serif" font-size="13" lengthAdjust="spacingAndGlyphs" textLength="112" x="352" y="766.403">
    &quot;currency&quot;: &quot;USD&quot;
  </text>
  <text font-family="sans-serif" font-size="13" lengthAdjust="spacingAndGlyphs" textLength="12" x="344" y="781.536">
    },
  </text>
  <text font-family="sans-serif" font-size="13" lengthAdjust="spacingAndGlyphs" textLength="260" x="344" y="796.668">
    &quot;expiration&quot;: &quot;2020-06-15T13:00:00.000&quot;,
  </text>
  <text font-family="sans-serif" font-size="13" lengthAdjust="spacingAndGlyphs" textLength="101" x="344" y="811.801">
    &quot;ilpPacket&quot;: &quot;...&quot;,
  </text>
  <text font-family="sans-serif" font-size="13" lengthAdjust="spacingAndGlyphs" textLength="102" x="344" y="826.934">
    &quot;condition&quot;: &quot;...&quot;,
  </text>
  <text font-family="sans-serif" font-size="13" lengthAdjust="spacingAndGlyphs" textLength="8" x="336" y="842.067">
    }
  </text>
  <path fill="#A80036" stroke="#a80036" d="M1329 871.266l10 4-10 4 4-4z"/>
  <path stroke="#a80036" d="M470 875.266h865"/>
  <text font-family="monospace" font-size="13" lengthAdjust="spacingAndGlyphs" textLength="120" x="477" y="870.2">
    POST /transfers
  </text>
  <path fill="#A80036" stroke="#a80036" d="M481 900.398l-10 4 10 4-4-4z"/>
  <path stroke="#a80036" stroke-dasharray="2,2" d="M475 904.398h865"/>
  <text font-family="monospace" font-size="13" lengthAdjust="spacingAndGlyphs" textLength="96" x="487" y="899.332">
    202 Accepted
  </text>
  <path fill="#FFF" filter="url(#a)" stroke="#a80036" d="M983 917.398h353v129H983z"/>
  <text font-family="monospace" font-size="13" font-weight="bold" lengthAdjust="spacingAndGlyphs" textLength="144" x="987" y="933.465">
    PUT /transfers/321
  </text>
  <text font-family="monospace" font-size="13" lengthAdjust="spacingAndGlyphs" textLength="160" x="987" y="948.598">
    FSPIOP-Source: dfspb
  </text>
  <text font-family="monospace" font-size="13" lengthAdjust="spacingAndGlyphs" textLength="200" x="987" y="963.731">
    FSPIOP-Destination: dfspa
  </text>
  <text font-family="sans-serif" font-size="13" lengthAdjust="spacingAndGlyphs" textLength="8" x="987" y="978.864">
    {
  </text>
  <text font-family="sans-serif" font-size="13" lengthAdjust="spacingAndGlyphs" textLength="103" x="995" y="993.997">
    &quot;fulfilment&quot;: &quot;...&quot;,
  </text>
  <text font-family="sans-serif" font-size="13" lengthAdjust="spacingAndGlyphs" textLength="337" x="995" y="1009.129">
    &quot;completedTimestamp&quot;: &quot;2020-06-15T12:01:00.000&quot;,
  </text>
  <text font-family="sans-serif" font-size="13" lengthAdjust="spacingAndGlyphs" textLength="189" x="995" y="1024.262">
    &quot;transferState&quot;: &quot;COMMITTED&quot;
  </text>
  <text font-family="sans-serif" font-size="13" lengthAdjust="spacingAndGlyphs" textLength="8" x="987" y="1039.395">
    }
  </text>
  <path fill="#A80036" stroke="#a80036" d="M481 1068.594l-10 4 10 4-4-4z"/>
  <path stroke="#a80036" d="M475 1072.594h865"/>
  <text font-family="monospace" font-size="13" lengthAdjust="spacingAndGlyphs" textLength="144" x="487" y="1067.528">
    PUT /transfers/321
  </text>
  <path fill="#A80036" stroke="#a80036" d="M1329 1097.727l10 4-10 4 4-4z"/>
  <path stroke="#a80036" stroke-dasharray="2,2" d="M470 1101.727h865"/>
  <text font-family="monospace" font-size="13" lengthAdjust="spacingAndGlyphs" textLength="48" x="477" y="1096.661">
    200 OK
  </text>
  <path fill="#A80036" stroke="#a80036" d="M1606 1126.86l10 4-10 4 4-4z"/>
  <path stroke="#a80036" d="M1341 1130.859h271"/>
  <text font-family="sans-serif" font-size="13" lengthAdjust="spacingAndGlyphs" textLength="253" x="1348" y="1125.793">
    You have received funds from Ayeesha!
  </text>
  <path fill="#A80036" stroke="#a80036" d="M803 1155.992l10 4-10 4 4-4z"/>
  <path stroke="#a80036" d="M470 1159.992h339"/>
  <text font-family="monospace" font-size="13" lengthAdjust="spacingAndGlyphs" textLength="144" x="477" y="1154.926">
    PUT /transfers/321
  </text>
  <path fill="#A80036" stroke="#a80036" d="M481 1185.125l-10 4 10 4-4-4z"/>
  <path stroke="#a80036" stroke-dasharray="2,2" d="M475 1189.125h339"/>
  <text font-family="monospace" font-size="13" lengthAdjust="spacingAndGlyphs" textLength="48" x="487" y="1184.059">
    200 OK
  </text>
  <path stroke="#a80036" d="M815 1218.258h42M857 1218.258v13M816 1231.258h41"/>
  <path fill="#A80036" stroke="#a80036" d="M826 1227.258l-10 4 10 4-4-4z"/>
  <text font-family="sans-serif" font-size="13" lengthAdjust="spacingAndGlyphs" textLength="50" x="822" y="1213.192">
    Look up
  </text>
  <text font-family="monospace" font-size="13" lengthAdjust="spacingAndGlyphs" textLength="160" x="876" y="1213.192">
    transactionRequestId
  </text>
  <text font-family="sans-serif" font-size="13" lengthAdjust="spacingAndGlyphs" textLength="55" x="1040" y="1213.192">
    from the
  </text>
  <text font-family="monospace" font-size="13" lengthAdjust="spacingAndGlyphs" textLength="80" x="1099" y="1213.192">
    transferId
  </text>
  <path fill="#FFF" filter="url(#a)" stroke="#a80036" d="M511 1244.258h608v129H511z"/>
  <text font-family="monospace" font-size="13" font-weight="bold" lengthAdjust="spacingAndGlyphs" textLength="600" x="515" y="1260.325">
    PATCH /thirdpartyRequests/transactions/00000000-0000-0000-0000-000000000000
  </text>
  <text font-family="monospace" font-size="13" lengthAdjust="spacingAndGlyphs" textLength="160" x="515" y="1275.457">
    FSPIOP-Source: dfspa
  </text>
  <text font-family="monospace" font-size="13" lengthAdjust="spacingAndGlyphs" textLength="200" x="515" y="1290.59">
    FSPIOP-Destination: pispa
  </text>
  <text font-family="sans-serif" font-size="13" lengthAdjust="spacingAndGlyphs" textLength="8" x="515" y="1305.723">
    {
  </text>
  <text font-family="sans-serif" font-size="13" lengthAdjust="spacingAndGlyphs" textLength="391" x="523" y="1320.856">
    &quot;transactionId&quot;: &quot;11111111-0000-0000-0000-000000000000&quot;,
  </text>
  <text font-family="sans-serif" font-size="13" lengthAdjust="spacingAndGlyphs" textLength="259" x="523" y="1335.989">
    &quot;transactionRequestState&quot;: &quot;ACCEPTED&quot;,
  </text>
  <text font-family="sans-serif" font-size="13" lengthAdjust="spacingAndGlyphs" textLength="211" x="523" y="1351.122">
    &quot;transactionState&quot;: &quot;COMMITTED&quot;
  </text>
  <text font-family="sans-serif" font-size="13" lengthAdjust="spacingAndGlyphs" textLength="8" x="515" y="1366.254">
    }
  </text>
  <path fill="#A80036" stroke="#a80036" d="M481 1410.586l-10 4 10 4-4-4z"/>
  <path stroke="#a80036" d="M475 1414.586h339"/>
  <text font-family="monospace" font-size="13" lengthAdjust="spacingAndGlyphs" textLength="304" x="487" y="1394.387">
    PATCH /thirdpartyRequests/transactions
  </text>
  <text font-family="monospace" font-size="13" lengthAdjust="spacingAndGlyphs" textLength="296" x="511" y="1409.52">
    /00000000-0000-0000-0000-000000000000
  </text>
  <path fill="#A80036" stroke="#a80036" d="M803 1439.719l10 4-10 4 4-4z"/>
  <path stroke="#a80036" stroke-dasharray="2,2" d="M470 1443.719h339"/>
  <text font-family="monospace" font-size="13" lengthAdjust="spacingAndGlyphs" textLength="48" x="477" y="1438.653">
    200 OK
  </text>
  <path fill="#A80036" stroke="#a80036" d="M136 1483.984l-10 4 10 4-4-4z"/>
  <path stroke="#a80036" d="M130 1487.984h339"/>
  <text font-family="monospace" font-size="13" lengthAdjust="spacingAndGlyphs" textLength="304" x="142" y="1467.786">
    PATCH /thirdpartyRequests/transactions
  </text>
  <text font-family="monospace" font-size="13" lengthAdjust="spacingAndGlyphs" textLength="296" x="166" y="1482.918">
    /00000000-0000-0000-0000-000000000000
  </text>
  <path fill="#A80036" stroke="#a80036" d="M458 1513.117l10 4-10 4 4-4z"/>
  <path stroke="#a80036" stroke-dasharray="2,2" d="M125 1517.117h339"/>
  <text font-family="monospace" font-size="13" lengthAdjust="spacingAndGlyphs" textLength="48" x="132" y="1512.051">
    200 OK
  </text>
  <path d="M5 1530.117v40h236v-30l-10-10H5" fill="#FBFB77" filter="url(#a)" stroke="#a80036"/>
  <path d="M231 1530.117v10h10l-10-10" fill="#FBFB77" stroke="#a80036"/>
  <text font-family="sans-serif" font-size="13" lengthAdjust="spacingAndGlyphs" textLength="211" x="11" y="1547.184">
    PISP can now inform the user the
  </text>
  <text font-family="sans-serif" font-size="13" lengthAdjust="spacingAndGlyphs" textLength="138" x="11" y="1562.317">
    funds have been sent
  </text>
</svg>
