<svg xmlns="http://www.w3.org/2000/svg" height="2126" preserveAspectRatio="none" style="width:1523px;height:2126px" width="1523">
  <defs>
    <filter height="300%" id="a" width="300%" x="-1" y="-1">
      <feGaussianBlur result="blurOut" stdDeviation="2"/>
      <feColorMatrix in="blurOut" result="blurOut2" values="0 0 0 0 0 0 0 0 0 0 0 0 0 0 0 0 0 0 .4 0"/>
      <feOffset dx="4" dy="4" in="blurOut2" result="blurOut3"/>
      <feBlend in="SourceGraphic" in2="blurOut3"/>
    </filter>
  </defs>
  <text font-family="sans-serif" font-size="18" lengthAdjust="spacingAndGlyphs" textLength="573" x="475" y="28.708">
    Transfer: 3.4.2 Bad Signed Challenge - Hub Hosted Auth-Service
  </text>
  <path fill="#DDD" stroke="#a80036" d="M1 40.953h104v2079.75H1z"/>
  <text font-family="sans-serif" font-size="13" font-weight="bold" lengthAdjust="spacingAndGlyphs" textLength="33" x="36.5" y="53.02">
    PISP
  </text>
  <path fill="#DDD" stroke="#a80036" d="M369.5 40.953h444v2079.75h-444z"/>
  <text font-family="sans-serif" font-size="13" font-weight="bold" lengthAdjust="spacingAndGlyphs" textLength="67" x="558" y="53.02">
    Mojaloop
  </text>
  <path fill="#DDD" stroke="#a80036" d="M1089 40.953h76v2079.75h-76z"/>
  <text font-family="sans-serif" font-size="13" font-weight="bold" lengthAdjust="spacingAndGlyphs" textLength="54" x="1100" y="53.02">
    DFSP A
  </text>
  <path stroke="#a80036" d="M53 111.68v10"/>
  <path stroke="#a80036" stroke-dasharray="1,4" d="M53 121.68v40.804"/>
  <path stroke="#a80036" d="M53 162.484h0"/>
  <path stroke="#a80036" stroke-dasharray="1,4" d="M53 162.484v40.805"/>
  <path stroke="#a80036" d="M53 203.289v1862.82M404.5 111.68v10"/>
  <path stroke="#a80036" stroke-dasharray="1,4" d="M404.5 121.68v40.804"/>
  <path stroke="#a80036" d="M404.5 162.484h0"/>
  <path stroke="#a80036" stroke-dasharray="1,4" d="M404.5 162.484v40.805"/>
  <path stroke="#a80036" d="M404.5 203.289v1862.82M756.5 111.68v10"/>
  <path stroke="#a80036" stroke-dasharray="1,4" d="M756.5 121.68v40.804"/>
  <path stroke="#a80036" d="M756.5 162.484h0"/>
  <path stroke="#a80036" stroke-dasharray="1,4" d="M756.5 162.484v40.805"/>
  <path stroke="#a80036" d="M756.5 203.289v1862.82M1127 111.68v10"/>
  <path stroke="#a80036" stroke-dasharray="1,4" d="M1127 121.68v40.804"/>
  <path stroke="#a80036" d="M1127 162.484h0"/>
  <path stroke="#a80036" stroke-dasharray="1,4" d="M1127 162.484v40.805"/>
  <path stroke="#a80036" d="M1127 203.289v1862.82"/>
  <path fill="#FEFECE" filter="url(#a)" stroke="#a80036" stroke-width="1.5" d="M5 76.383h92v30.297H5z"/>
  <text font-family="sans-serif" font-size="14" lengthAdjust="spacingAndGlyphs" textLength="78" x="12" y="96.378">
    PISP Server
  </text>
  <path fill="#FEFECE" filter="url(#a)" stroke="#a80036" stroke-width="1.5" d="M5 2065.109h92v30.297H5z"/>
  <text font-family="sans-serif" font-size="14" lengthAdjust="spacingAndGlyphs" textLength="78" x="12" y="2085.104">
    PISP Server
  </text>
  <path fill="#FEFECE" filter="url(#a)" stroke="#a80036" stroke-width="1.5" d="M373.5 76.383h59v30.297h-59z"/>
  <text font-family="sans-serif" font-size="14" lengthAdjust="spacingAndGlyphs" textLength="45" x="380.5" y="96.378">
    Switch
  </text>
  <path fill="#FEFECE" filter="url(#a)" stroke="#a80036" stroke-width="1.5" d="M373.5 2065.109h59v30.297h-59z"/>
  <text font-family="sans-serif" font-size="14" lengthAdjust="spacingAndGlyphs" textLength="45" x="380.5" y="2085.104">
    Switch
  </text>
  <path fill="#FEFECE" filter="url(#a)" stroke="#a80036" stroke-width="1.5" d="M704.5 76.383h101v30.297h-101z"/>
  <text font-family="sans-serif" font-size="14" lengthAdjust="spacingAndGlyphs" textLength="87" x="711.5" y="96.378">
    Auth-Service
  </text>
  <path fill="#FEFECE" filter="url(#a)" stroke="#a80036" stroke-width="1.5" d="M704.5 2065.109h101v30.297h-101z"/>
  <text font-family="sans-serif" font-size="14" lengthAdjust="spacingAndGlyphs" textLength="87" x="711.5" y="2085.104">
    Auth-Service
  </text>
  <path fill="#FEFECE" filter="url(#a)" stroke="#a80036" stroke-width="1.5" d="M1093 60.086h64v46.594h-64z"/>
  <text font-family="sans-serif" font-size="14" lengthAdjust="spacingAndGlyphs" textLength="50" x="1100" y="80.081">
    DFSP A
  </text>
  <text font-family="sans-serif" font-size="14" lengthAdjust="spacingAndGlyphs" textLength="48" x="1101" y="96.378">
    (Payer)
  </text>
  <path fill="#FEFECE" filter="url(#a)" stroke="#a80036" stroke-width="1.5" d="M1093 2065.109h64v46.594h-64z"/>
  <text font-family="sans-serif" font-size="14" lengthAdjust="spacingAndGlyphs" textLength="50" x="1100" y="2085.104">
    DFSP A
  </text>
  <text font-family="sans-serif" font-size="14" lengthAdjust="spacingAndGlyphs" textLength="48" x="1101" y="2101.401">
    (Payer)
  </text>
  <text font-family="sans-serif" font-size="11" lengthAdjust="spacingAndGlyphs" textLength="309" x="306" y="145.89">
    PISP has initiated Thirdparty Transaction Request with
  </text>
  <text font-family="monospace" font-size="11" lengthAdjust="spacingAndGlyphs" textLength="259" x="619" y="145.89">
    POST /thirdpartyRequests/transactions
  </text>
  <text font-family="sans-serif" font-size="11" lengthAdjust="spacingAndGlyphs" textLength="299" x="442.5" y="186.695">
    DFSP A has received quote, and asked PISP to verify
  </text>
  <path d="M58 208.29v70h323v-60l-10-10H58" fill="#FBFB77" filter="url(#a)" stroke="#a80036"/>
  <path d="M371 208.29v10h10l-10-10" fill="#FBFB77" stroke="#a80036"/>
  <text font-family="sans-serif" font-size="13" lengthAdjust="spacingAndGlyphs" textLength="110" x="64" y="225.356">
    PISP looks up the
  </text>
  <text font-family="monospace" font-size="13" lengthAdjust="spacingAndGlyphs" textLength="160" x="178" y="225.356">
    transactionRequestId
  </text>
  <text font-family="sans-serif" font-size="13" lengthAdjust="spacingAndGlyphs" textLength="24" x="342" y="225.356">
    and
  </text>
  <text font-family="sans-serif" font-size="13" lengthAdjust="spacingAndGlyphs" textLength="200" x="64" y="240.489">
    checks the quote with the user,
  </text>
  <text font-family="sans-serif" font-size="13" lengthAdjust="spacingAndGlyphs" textLength="213" x="64" y="255.622">
    and uses the FIDO API to sign the
  </text>
  <text font-family="sans-serif" font-size="13" lengthAdjust="spacingAndGlyphs" textLength="21" x="64" y="270.754">
    the
  </text>
  <text font-family="monospace" font-size="13" font-weight="bold" lengthAdjust="spacingAndGlyphs" textLength="72" x="89" y="270.754">
    challenge
  </text>
  <text font-family="sans-serif" font-size="13" lengthAdjust="spacingAndGlyphs" textLength="36" x="165" y="270.754">
    string
  </text>
  <path fill="#FFF" filter="url(#a)" stroke="#a80036" d="M58 292.82h378v325H58z"/>
  <text font-family="monospace" font-size="13" font-weight="bold" lengthAdjust="spacingAndGlyphs" textLength="304" x="62" y="308.887">
    PUT /thirdpartyRequests/authorizations
  </text>
  <text font-family="monospace" font-size="13" font-weight="bold" lengthAdjust="spacingAndGlyphs" textLength="296" x="94" y="324.02">
    /33333333-0000-0000-0000-000000000000
  </text>
  <text font-family="monospace" font-size="13" lengthAdjust="spacingAndGlyphs" textLength="160" x="62" y="339.153">
    FSPIOP-Source: pispa
  </text>
  <text font-family="monospace" font-size="13" lengthAdjust="spacingAndGlyphs" textLength="200" x="62" y="354.286">
    FSPIOP-Destination: dfspa
  </text>
  <text font-family="sans-serif" font-size="13" lengthAdjust="spacingAndGlyphs" textLength="8" x="62" y="369.418">
    {
  </text>
  <text font-family="sans-serif" font-size="13" lengthAdjust="spacingAndGlyphs" textLength="185" x="70" y="384.551">
    &quot;responseType&quot;: &quot;ACCEPTED&quot;
  </text>
  <text font-family="sans-serif" font-size="13" lengthAdjust="spacingAndGlyphs" textLength="118" x="70" y="399.684">
    &quot;signedPayload&quot;: {
  </text>
  <text font-family="sans-serif" font-size="13" lengthAdjust="spacingAndGlyphs" textLength="184" x="78" y="414.817">
    &quot;signedPayloadType&quot;: &quot;FIDO&quot;,
  </text>
  <text font-family="sans-serif" font-size="13" lengthAdjust="spacingAndGlyphs" textLength="60" x="78" y="429.95">
    &quot;value&quot;: {
  </text>
  <text font-family="sans-serif" font-size="13" lengthAdjust="spacingAndGlyphs" textLength="79" x="86" y="445.082">
    &quot;id&quot;: &quot;string&quot;,
  </text>
  <text font-family="sans-serif" font-size="13" lengthAdjust="spacingAndGlyphs" textLength="254" x="86" y="460.215">
    &quot;rawId&quot;: &quot;string - base64 encoded utf-8&quot;,
  </text>
  <text font-family="sans-serif" font-size="13" lengthAdjust="spacingAndGlyphs" textLength="85" x="86" y="475.348">
    &quot;response&quot;: {
  </text>
  <text font-family="sans-serif" font-size="13" lengthAdjust="spacingAndGlyphs" textLength="338" x="94" y="490.481">
    &quot;authenticatorData&quot;: &quot;string - base64 encoded utf-8&quot;,
  </text>
  <text font-family="sans-serif" font-size="13" lengthAdjust="spacingAndGlyphs" textLength="318" x="94" y="505.614">
    &quot;clientDataJSON&quot;: &quot;string - base64 encoded utf-8&quot;,
  </text>
  <text font-family="sans-serif" font-size="13" lengthAdjust="spacingAndGlyphs" textLength="281" x="94" y="520.747">
    &quot;signature&quot;: &quot;string - base64 encoded utf-8&quot;,
  </text>
  <text font-family="sans-serif" font-size="13" lengthAdjust="spacingAndGlyphs" textLength="294" x="94" y="535.879">
    &quot;userHandle&quot;: &quot;string - base64 encoded utf-8&quot;,
  </text>
  <text font-family="sans-serif" font-size="13" lengthAdjust="spacingAndGlyphs" textLength="12" x="86" y="551.012">
    },
  </text>
  <text font-family="sans-serif" font-size="13" lengthAdjust="spacingAndGlyphs" textLength="120" x="86" y="566.145">
    &quot;type&quot;: &quot;public-key&quot;
  </text>
  <text font-family="sans-serif" font-size="13" lengthAdjust="spacingAndGlyphs" textLength="8" x="78" y="581.278">
    }
  </text>
  <text font-family="sans-serif" font-size="13" lengthAdjust="spacingAndGlyphs" textLength="8" x="70" y="596.411">
    }
  </text>
  <text font-family="sans-serif" font-size="13" lengthAdjust="spacingAndGlyphs" textLength="8" x="62" y="611.543">
    }
  </text>
  <path fill="#A80036" stroke="#a80036" d="M393 655.875l10 4-10 4 4-4z"/>
  <path stroke="#a80036" d="M53 659.875h346"/>
  <text font-family="monospace" font-size="13" lengthAdjust="spacingAndGlyphs" textLength="304" x="60" y="639.676">
    PUT /thirdpartyRequests/authorizations
  </text>
  <text font-family="monospace" font-size="13" lengthAdjust="spacingAndGlyphs" textLength="296" x="60" y="654.809">
    /33333333-0000-0000-0000-000000000000
  </text>
  <path fill="#A80036" stroke="#a80036" d="M64 685.008l-10 4 10 4-4-4z"/>
  <path stroke="#a80036" stroke-dasharray="2,2" d="M58 689.008h346"/>
  <text font-family="monospace" font-size="13" lengthAdjust="spacingAndGlyphs" textLength="48" x="70" y="683.942">
    200 OK
  </text>
  <path fill="#A80036" stroke="#a80036" d="M1115 729.273l10 4-10 4 4-4z"/>
  <path stroke="#a80036" d="M405 733.273h716"/>
  <text font-family="monospace" font-size="13" lengthAdjust="spacingAndGlyphs" textLength="304" x="412" y="713.075">
    PUT /thirdpartyRequests/authorizations
  </text>
  <text font-family="monospace" font-size="13" lengthAdjust="spacingAndGlyphs" textLength="296" x="412" y="728.207">
    /33333333-0000-0000-0000-000000000000
  </text>
  <path fill="#A80036" stroke="#a80036" d="M416 758.406l-10 4 10 4-4-4z"/>
  <path stroke="#a80036" stroke-dasharray="2,2" d="M410 762.406h716"/>
  <text font-family="monospace" font-size="13" lengthAdjust="spacingAndGlyphs" textLength="48" x="422" y="757.34">
    200 OK
  </text>
  <path stroke="#a80036" d="M1127 791.539h42M1169 791.539v13M1128 804.539h41"/>
  <path fill="#A80036" stroke="#a80036" d="M1138 800.54l-10 4 10 4-4-4z"/>
  <text font-family="sans-serif" font-size="13" lengthAdjust="spacingAndGlyphs" textLength="46" x="1134" y="786.473">
    Lookup
  </text>
  <text font-family="monospace" font-size="13" lengthAdjust="spacingAndGlyphs" textLength="160" x="1184" y="786.473">
    transactionRequestId
  </text>
  <text font-family="sans-serif" font-size="13" lengthAdjust="spacingAndGlyphs" textLength="44" x="1348" y="786.473">
    for this
  </text>
  <text font-family="monospace" font-size="13" lengthAdjust="spacingAndGlyphs" textLength="120" x="1396" y="786.473">
    authorizationId
  </text>
  <path stroke="#a80036" d="M1127 833.672h42M1169 833.672v13M1128 846.672h41"/>
  <path fill="#A80036" stroke="#a80036" d="M1138 842.672l-10 4 10 4-4-4z"/>
  <text font-family="sans-serif" font-size="13" lengthAdjust="spacingAndGlyphs" textLength="46" x="1134" y="828.606">
    Lookup
  </text>
  <text font-family="monospace" font-size="13" lengthAdjust="spacingAndGlyphs" textLength="72" x="1184" y="828.606">
    consentId
  </text>
  <text font-family="sans-serif" font-size="13" lengthAdjust="spacingAndGlyphs" textLength="44" x="1260" y="828.606">
    for this
  </text>
  <text font-family="monospace" font-size="13" lengthAdjust="spacingAndGlyphs" textLength="160" x="1308" y="828.606">
    transactionRequestId
  </text>
  <path stroke="#a80036" d="M1127 890.938h42M1169 890.938v13M1128 903.938h41"/>
  <path fill="#A80036" stroke="#a80036" d="M1138 899.938l-10 4 10 4-4-4z"/>
  <text font-family="sans-serif" font-size="13" lengthAdjust="spacingAndGlyphs" textLength="101" x="1134" y="870.739">
    Generate a new
  </text>
  <text font-family="monospace" font-size="13" lengthAdjust="spacingAndGlyphs" textLength="168" x="1239" y="870.739">
    verificationRequestId
  </text>
  <text font-family="sans-serif" font-size="13" lengthAdjust="spacingAndGlyphs" textLength="97" x="1407" y="870.739">
    , and associate
  </text>
  <text font-family="sans-serif" font-size="13" lengthAdjust="spacingAndGlyphs" textLength="62" x="1138" y="885.872">
    it with the
  </text>
  <text font-family="monospace" font-size="13" lengthAdjust="spacingAndGlyphs" textLength="240" x="1204" y="885.872">
    thirdpartyTransactionRequestId
  </text>
  <path fill="#FFF" filter="url(#a)" stroke="#a80036" d="M647 916.938h475v295H647z"/>
  <text font-family="monospace" font-size="13" font-weight="bold" lengthAdjust="spacingAndGlyphs" textLength="304" x="651" y="933.004">
    POST /thirdpartyRequests/verifications
  </text>
  <text font-family="monospace" font-size="13" lengthAdjust="spacingAndGlyphs" textLength="160" x="651" y="948.137">
    FSPIOP-Source: dfspa
  </text>
  <text font-family="monospace" font-size="13" lengthAdjust="spacingAndGlyphs" textLength="256" x="651" y="963.27">
    FSPIOP-Destination: central-auth
  </text>
  <text font-family="sans-serif" font-size="13" lengthAdjust="spacingAndGlyphs" textLength="8" x="651" y="978.403">
    {
  </text>
  <text font-family="sans-serif" font-size="13" lengthAdjust="spacingAndGlyphs" textLength="440" x="659" y="993.536">
    &quot;verificationRequestId&quot;: &quot;44444444-0000-0000-0000-000000000000&quot;,
  </text>
  <text font-family="sans-serif" font-size="13" lengthAdjust="spacingAndGlyphs" textLength="75" x="659" y="1008.668">
    &quot;challenge&quot;:
  </text>
  <text font-family="monospace" font-size="13" lengthAdjust="spacingAndGlyphs" textLength="376" x="738" y="1008.668">
    &lt;base64 encoded binary - the encoded challenge&gt;
  </text>
  <text font-family="sans-serif" font-size="13" lengthAdjust="spacingAndGlyphs" textLength="4" x="1114" y="1008.668">
    ,
  </text>
  <text font-family="sans-serif" font-size="13" lengthAdjust="spacingAndGlyphs" textLength="60" x="659" y="1023.801">
    &quot;value&quot;: {
  </text>
  <text font-family="sans-serif" font-size="13" lengthAdjust="spacingAndGlyphs" textLength="79" x="667" y="1038.934">
    &quot;id&quot;: &quot;string&quot;,
  </text>
  <text font-family="sans-serif" font-size="13" lengthAdjust="spacingAndGlyphs" textLength="254" x="667" y="1054.067">
    &quot;rawId&quot;: &quot;string - base64 encoded utf-8&quot;,
  </text>
  <text font-family="sans-serif" font-size="13" lengthAdjust="spacingAndGlyphs" textLength="85" x="667" y="1069.2">
    &quot;response&quot;: {
  </text>
  <text font-family="sans-serif" font-size="13" lengthAdjust="spacingAndGlyphs" textLength="338" x="675" y="1084.332">
    &quot;authenticatorData&quot;: &quot;string - base64 encoded utf-8&quot;,
  </text>
  <text font-family="sans-serif" font-size="13" lengthAdjust="spacingAndGlyphs" textLength="318" x="675" y="1099.465">
    &quot;clientDataJSON&quot;: &quot;string - base64 encoded utf-8&quot;,
  </text>
  <text font-family="sans-serif" font-size="13" lengthAdjust="spacingAndGlyphs" textLength="281" x="675" y="1114.598">
    &quot;signature&quot;: &quot;string - base64 encoded utf-8&quot;,
  </text>
  <text font-family="sans-serif" font-size="13" lengthAdjust="spacingAndGlyphs" textLength="294" x="675" y="1129.731">
    &quot;userHandle&quot;: &quot;string - base64 encoded utf-8&quot;,
  </text>
  <text font-family="sans-serif" font-size="13" lengthAdjust="spacingAndGlyphs" textLength="12" x="667" y="1144.864">
    },
  </text>
  <text font-family="sans-serif" font-size="13" lengthAdjust="spacingAndGlyphs" textLength="120" x="667" y="1159.997">
    &quot;type&quot;: &quot;public-key&quot;
  </text>
  <text font-family="sans-serif" font-size="13" lengthAdjust="spacingAndGlyphs" textLength="8" x="659" y="1175.129">
    }
  </text>
  <text font-family="sans-serif" font-size="13" lengthAdjust="spacingAndGlyphs" textLength="114" x="659" y="1190.262">
    &quot;consentId&quot;: &quot;123&quot;
  </text>
  <text font-family="sans-serif" font-size="13" lengthAdjust="spacingAndGlyphs" textLength="8" x="651" y="1205.395">
    }
  </text>
  <path fill="#A80036" stroke="#a80036" d="M416 1234.594l-10 4 10 4-4-4z"/>
  <path stroke="#a80036" d="M410 1238.594h716"/>
  <text font-family="monospace" font-size="13" lengthAdjust="spacingAndGlyphs" textLength="304" x="422" y="1233.528">
    POST /thirdpartyRequests/verifications
  </text>
  <path fill="#A80036" stroke="#a80036" d="M1115 1263.727l10 4-10 4 4-4z"/>
  <path stroke="#a80036" stroke-dasharray="2,2" d="M405 1267.727h716"/>
  <text font-family="monospace" font-size="13" lengthAdjust="spacingAndGlyphs" textLength="96" x="412" y="1262.661">
    202 Accepted
  </text>
  <path fill="#A80036" stroke="#a80036" d="M745 1292.86l10 4-10 4 4-4z"/>
  <path stroke="#a80036" d="M405 1296.859h346"/>
  <text font-family="monospace" font-size="13" lengthAdjust="spacingAndGlyphs" textLength="304" x="412" y="1291.793">
    POST /thirdpartyRequests/verifications
  </text>
  <path fill="#A80036" stroke="#a80036" d="M416 1321.992l-10 4 10 4-4-4z"/>
  <path stroke="#a80036" stroke-dasharray="2,2" d="M410 1325.992h346"/>
  <text font-family="monospace" font-size="13" lengthAdjust="spacingAndGlyphs" textLength="96" x="422" y="1320.926">
    202 Accepted
  </text>
  <path stroke="#a80036" d="M757 1355.125h42M799 1355.125v13M758 1368.125h41"/>
  <path fill="#A80036" stroke="#a80036" d="M768 1364.125l-10 4 10 4-4-4z"/>
  <text font-family="sans-serif" font-size="13" lengthAdjust="spacingAndGlyphs" textLength="257" x="764" y="1350.059">
    Lookup this consent based on consentId
  </text>
  <path stroke="#a80036" d="M757 1397.258h42M799 1397.258v13M758 1410.258h41"/>
  <path fill="#A80036" stroke="#a80036" d="M768 1406.258l-10 4 10 4-4-4z"/>
  <text font-family="sans-serif" font-size="13" lengthAdjust="spacingAndGlyphs" textLength="356" x="764" y="1392.192">
    Ensure the accountAddress matches what is in Consent
  </text>
  <path stroke="#a80036" d="M757 1454.523h42M799 1454.523v13M758 1467.523h41"/>
  <path fill="#A80036" stroke="#a80036" d="M768 1463.523l-10 4 10 4-4-4z"/>
  <text font-family="sans-serif" font-size="13" lengthAdjust="spacingAndGlyphs" textLength="249" x="764" y="1434.325">
    Check that the signed bytes match the
  </text>
  <text font-family="sans-serif" font-size="13" lengthAdjust="spacingAndGlyphs" textLength="261" x="764" y="1449.457">
    publickey we have stored for the consent
  </text>
  <path fill="#FFF" filter="url(#a)" stroke="#a80036" d="M762 1480.523h336v113H762z"/>
  <text font-family="monospace" font-size="13" font-weight="bold" lengthAdjust="spacingAndGlyphs" textLength="296" x="766" y="1496.59">
    PUT /thirdpartyRequests/verifications
  </text>
  <text font-family="monospace" font-size="13" font-weight="bold" lengthAdjust="spacingAndGlyphs" textLength="296" x="798" y="1511.723">
    /44444444-0000-0000-0000-000000000000
  </text>
  <text font-family="monospace" font-size="13" lengthAdjust="spacingAndGlyphs" textLength="216" x="766" y="1526.856">
    FSPIOP-Source: central-auth
  </text>
  <text font-family="monospace" font-size="13" lengthAdjust="spacingAndGlyphs" textLength="200" x="766" y="1541.989">
    FSPIOP-Destination: dfspa
  </text>
  <text font-family="sans-serif" font-size="13" lengthAdjust="spacingAndGlyphs" textLength="8" x="766" y="1557.122">
    {
  </text>
  <text font-family="sans-serif" font-size="13" lengthAdjust="spacingAndGlyphs" textLength="243" x="774" y="1572.254">
    &quot;authenticationResponse&quot;: &quot;REJECTED&quot;
  </text>
  <text font-family="sans-serif" font-size="13" lengthAdjust="spacingAndGlyphs" textLength="8" x="766" y="1587.387">
    }
  </text>
  <path fill="#A80036" stroke="#a80036" d="M416 1631.719l-10 4 10 4-4-4z"/>
  <path stroke="#a80036" d="M410 1635.719h346"/>
  <text font-family="monospace" font-size="13" lengthAdjust="spacingAndGlyphs" textLength="296" x="422" y="1615.52">
    PUT /thirdpartyRequests/verifications
  </text>
  <text font-family="monospace" font-size="13" lengthAdjust="spacingAndGlyphs" textLength="296" x="454" y="1630.653">
    /44444444-0000-0000-0000-000000000000
  </text>
  <path fill="#A80036" stroke="#a80036" d="M745 1660.852l10 4-10 4 4-4z"/>
  <path stroke="#a80036" stroke-dasharray="2,2" d="M405 1664.852h346"/>
  <text font-family="monospace" font-size="13" lengthAdjust="spacingAndGlyphs" textLength="48" x="412" y="1659.786">
    200 OK
  </text>
  <path fill="#A80036" stroke="#a80036" d="M1115 1705.117l10 4-10 4 4-4z"/>
  <path stroke="#a80036" d="M405 1709.117h716"/>
  <text font-family="monospace" font-size="13" lengthAdjust="spacingAndGlyphs" textLength="296" x="412" y="1688.918">
    PUT /thirdpartyRequests/verifications
  </text>
  <text font-family="monospace" font-size="13" lengthAdjust="spacingAndGlyphs" textLength="296" x="444" y="1704.051">
    /44444444-0000-0000-0000-000000000000
  </text>
  <path fill="#A80036" stroke="#a80036" d="M416 1734.25l-10 4 10 4-4-4z"/>
  <path stroke="#a80036" stroke-dasharray="2,2" d="M410 1738.25h716"/>
  <text font-family="monospace" font-size="13" lengthAdjust="spacingAndGlyphs" textLength="48" x="422" y="1733.184">
    200 OK
  </text>
  <path d="M941 1751.25v25h368v-15l-10-10H941" fill="#FBFB77" filter="url(#a)" stroke="#a80036"/>
  <path d="M1299 1751.25v10h10l-10-10" fill="#FBFB77" stroke="#a80036"/>
  <text font-family="sans-serif" font-size="13" lengthAdjust="spacingAndGlyphs" textLength="347" x="947" y="1768.317">
    Signed challenge is invalid. Transaction Request failed.
  </text>
  <path fill="#FFF" filter="url(#a)" stroke="#a80036" d="M786 1790.383h336v113H786z"/>
  <text font-family="monospace" font-size="13" font-weight="bold" lengthAdjust="spacingAndGlyphs" textLength="288" x="790" y="1806.45">
    PUT /thirdpartyRequests/transactions
  </text>
  <text font-family="monospace" font-size="13" font-weight="bold" lengthAdjust="spacingAndGlyphs" textLength="296" x="822" y="1821.582">
    /00000000-0000-0000-0000-000000000000
  </text>
  <text font-family="monospace" font-size="13" lengthAdjust="spacingAndGlyphs" textLength="160" x="790" y="1836.715">
    FSPIOP-Source: dfspa
  </text>
  <text font-family="monospace" font-size="13" lengthAdjust="spacingAndGlyphs" textLength="200" x="790" y="1851.848">
    FSPIOP-Destination: pispa
  </text>
  <text font-family="sans-serif" font-size="13" lengthAdjust="spacingAndGlyphs" textLength="8" x="790" y="1866.981">
    {
  </text>
  <text font-family="sans-serif" font-size="13" lengthAdjust="spacingAndGlyphs" textLength="243" x="798" y="1882.114">
    &quot;authenticationResponse&quot;: &quot;REJECTED&quot;
  </text>
  <text font-family="sans-serif" font-size="13" lengthAdjust="spacingAndGlyphs" textLength="8" x="790" y="1897.247">
    }
  </text>
  <path fill="#A80036" stroke="#a80036" d="M416 1941.578l-10 4 10 4-4-4z"/>
  <path stroke="#a80036" d="M410 1945.578h716"/>
  <text font-family="monospace" font-size="13" lengthAdjust="spacingAndGlyphs" textLength="288" x="422" y="1925.379">
    PUT /thirdpartyRequests/transactions
  </text>
  <text font-family="monospace" font-size="13" lengthAdjust="spacingAndGlyphs" textLength="296" x="454" y="1940.512">
    /00000000-0000-0000-0000-000000000000
  </text>
  <path fill="#A80036" stroke="#a80036" d="M1115 1970.71l10 4-10 4 4-4z"/>
  <path stroke="#a80036" stroke-dasharray="2,2" d="M405 1974.711h716"/>
  <text font-family="monospace" font-size="13" lengthAdjust="spacingAndGlyphs" textLength="48" x="412" y="1969.645">
    200 OK
  </text>
  <path fill="#A80036" stroke="#a80036" d="M64 2014.977l-10 4 10 4-4-4z"/>
  <path stroke="#a80036" d="M58 2018.977h346"/>
  <text font-family="monospace" font-size="13" lengthAdjust="spacingAndGlyphs" textLength="288" x="70" y="1998.778">
    PUT /thirdpartyRequests/transactions
  </text>
  <text font-family="monospace" font-size="13" lengthAdjust="spacingAndGlyphs" textLength="296" x="102" y="2013.911">
    /00000000-0000-0000-0000-000000000000
  </text>
  <path fill="#A80036" stroke="#a80036" d="M393 2044.11l10 4-10 4 4-4z"/>
  <path stroke="#a80036" stroke-dasharray="2,2" d="M53 2048.109h346"/>
  <text font-family="monospace" font-size="13" lengthAdjust="spacingAndGlyphs" textLength="48" x="60" y="2043.043">
    200 OK
  </text>
</svg>
