<svg xmlns="http://www.w3.org/2000/svg" height="4124" preserveAspectRatio="none" style="width:1595px;height:4124px" width="1595">
  <defs>
    <filter height="300%" id="a" width="300%" x="-1" y="-1">
      <feGaussianBlur result="blurOut" stdDeviation="2"/>
      <feColorMatrix in="blurOut" result="blurOut2" values="0 0 0 0 0 0 0 0 0 0 0 0 0 0 0 0 0 0 .4 0"/>
      <feOffset dx="4" dy="4" in="blurOut2" result="blurOut3"/>
      <feBlend in="SourceGraphic" in2="blurOut3"/>
    </filter>
  </defs>
  <text font-family="sans-serif" font-size="18" lengthAdjust="spacingAndGlyphs" textLength="216" x="686" y="28.708">
    PISPTransferDetailedAPI
  </text>
  <path fill="#DDD" stroke="#a80036" d="M1 40.953h104v4077.086H1z"/>
  <text font-family="sans-serif" font-size="13" font-weight="bold" lengthAdjust="spacingAndGlyphs" textLength="33" x="36.5" y="53.02">
    PISP
  </text>
  <path fill="#DDD" stroke="#a80036" d="M361.5 40.953h308v4077.086h-308z"/>
  <text font-family="sans-serif" font-size="13" font-weight="bold" lengthAdjust="spacingAndGlyphs" textLength="67" x="482" y="53.02">
    Mojaloop
  </text>
  <path fill="#DDD" stroke="#a80036" d="M945 40.953h76v4077.086h-76z"/>
  <text font-family="sans-serif" font-size="13" font-weight="bold" lengthAdjust="spacingAndGlyphs" textLength="54" x="956" y="53.02">
    DFSP A
  </text>
  <path fill="#DDD" stroke="#a80036" d="M1373 40.953h78v4077.086h-78z"/>
  <text font-family="sans-serif" font-size="13" font-weight="bold" lengthAdjust="spacingAndGlyphs" textLength="54" x="1385" y="53.02">
    DFSP B
  </text>
  <path stroke="#a80036" stroke-dasharray="5,5" d="M53 139.547v3875.898M396.5 139.547v3875.898M459.5 139.547v3875.898M612.5 139.547v3875.898M983 139.547v3875.898M1412 139.547v3875.898M1520 139.547v3875.898"/>
  <path fill="#FEFECE" filter="url(#a)" stroke="#a80036" stroke-width="1.5" d="M5 104.25h92v30.297H5z"/>
  <text font-family="sans-serif" font-size="14" lengthAdjust="spacingAndGlyphs" textLength="78" x="12" y="124.245">
    PISP Server
  </text>
  <path fill="#FEFECE" filter="url(#a)" stroke="#a80036" stroke-width="1.5" d="M5 4014.445h92v30.297H5z"/>
  <text font-family="sans-serif" font-size="14" lengthAdjust="spacingAndGlyphs" textLength="78" x="12" y="4034.44">
    PISP Server
  </text>
  <path fill="#FEFECE" filter="url(#a)" stroke="#a80036" stroke-width="1.5" d="M365.5 104.25h59v30.297h-59z"/>
  <text font-family="sans-serif" font-size="14" lengthAdjust="spacingAndGlyphs" textLength="45" x="372.5" y="124.245">
    Switch
  </text>
  <path fill="#FEFECE" filter="url(#a)" stroke="#a80036" stroke-width="1.5" d="M365.5 4014.445h59v30.297h-59z"/>
  <text font-family="sans-serif" font-size="14" lengthAdjust="spacingAndGlyphs" textLength="45" x="372.5" y="4034.44">
    Switch
  </text>
  <path fill="#FEFECE" filter="url(#a)" stroke="#a80036" stroke-width="1.5" d="M438.5 104.25h39v30.297h-39z"/>
  <text font-family="sans-serif" font-size="14" lengthAdjust="spacingAndGlyphs" textLength="25" x="445.5" y="124.245">
    ALS
  </text>
  <path fill="#FEFECE" filter="url(#a)" stroke="#a80036" stroke-width="1.5" d="M438.5 4014.445h39v30.297h-39z"/>
  <text font-family="sans-serif" font-size="14" lengthAdjust="spacingAndGlyphs" textLength="25" x="445.5" y="4034.44">
    ALS
  </text>
  <path fill="#FEFECE" filter="url(#a)" stroke="#a80036" stroke-width="1.5" d="M560.5 104.25h101v30.297h-101z"/>
  <text font-family="sans-serif" font-size="14" lengthAdjust="spacingAndGlyphs" textLength="87" x="567.5" y="124.245">
    Auth-Service
  </text>
  <path fill="#FEFECE" filter="url(#a)" stroke="#a80036" stroke-width="1.5" d="M560.5 4014.445h101v30.297h-101z"/>
  <text font-family="sans-serif" font-size="14" lengthAdjust="spacingAndGlyphs" textLength="87" x="567.5" y="4034.44">
    Auth-Service
  </text>
  <path fill="#FEFECE" filter="url(#a)" stroke="#a80036" stroke-width="1.5" d="M949 87.953h64v46.594h-64z"/>
  <text font-family="sans-serif" font-size="14" lengthAdjust="spacingAndGlyphs" textLength="50" x="956" y="107.948">
    DFSP A
  </text>
  <text font-family="sans-serif" font-size="14" lengthAdjust="spacingAndGlyphs" textLength="48" x="957" y="124.245">
    (Payer)
  </text>
  <path fill="#FEFECE" filter="url(#a)" stroke="#a80036" stroke-width="1.5" d="M949 4014.445h64v46.594h-64z"/>
  <text font-family="sans-serif" font-size="14" lengthAdjust="spacingAndGlyphs" textLength="50" x="956" y="4034.44">
    DFSP A
  </text>
  <text font-family="sans-serif" font-size="14" lengthAdjust="spacingAndGlyphs" textLength="48" x="957" y="4050.737">
    (Payer)
  </text>
  <path fill="#FEFECE" filter="url(#a)" stroke="#a80036" stroke-width="1.5" d="M1377 87.953h66v46.594h-66z"/>
  <text font-family="sans-serif" font-size="14" lengthAdjust="spacingAndGlyphs" textLength="51" x="1384.5" y="107.948">
    DFSP B
  </text>
  <text font-family="sans-serif" font-size="14" lengthAdjust="spacingAndGlyphs" textLength="52" x="1384" y="124.245">
    (Payee)
  </text>
  <path fill="#FEFECE" filter="url(#a)" stroke="#a80036" stroke-width="1.5" d="M1377 4014.445h66v46.594h-66z"/>
  <text font-family="sans-serif" font-size="14" lengthAdjust="spacingAndGlyphs" textLength="51" x="1384.5" y="4034.44">
    DFSP B
  </text>
  <text font-family="sans-serif" font-size="14" lengthAdjust="spacingAndGlyphs" textLength="52" x="1384" y="4050.737">
    (Payee)
  </text>
  <text font-family="sans-serif" font-size="14" lengthAdjust="spacingAndGlyphs" textLength="60" x="1487" y="119.948">
    Bhavesh
  </text>
  <text font-family="sans-serif" font-size="14" lengthAdjust="spacingAndGlyphs" textLength="120" x="1457" y="136.245">
    (+44 1234 5678)
  </text>
  <circle cx="1520" cy="49.953" fill="#FEFECE" filter="url(#a)" stroke="#a80036" stroke-width="2" r="8"/>
  <path d="M1520 57.953v27m-13-19h26m-13 19l-13 15m13-15l13 15" fill="none" filter="url(#a)" stroke="#a80036" stroke-width="2"/>
  <text font-family="sans-serif" font-size="14" lengthAdjust="spacingAndGlyphs" textLength="60" x="1487" y="4027.44">
    Bhavesh
  </text>
  <text font-family="sans-serif" font-size="14" lengthAdjust="spacingAndGlyphs" textLength="120" x="1457" y="4043.737">
    (+44 1234 5678)
  </text>
  <circle cx="1520" cy="4057.039" fill="#FEFECE" filter="url(#a)" stroke="#a80036" stroke-width="2" r="8"/>
  <path d="M1520 4065.04v27m-13-19h26m-13 19l-13 15m13-15l13 15" fill="none" filter="url(#a)" stroke="#a80036" stroke-width="2"/>
  <path fill="#EEE" filter="url(#a)" stroke="#eee" d="M0 170.113h1588v3H0z"/>
  <path stroke="#000" d="M0 170.113h1588M0 173.113h1588"/>
  <path fill="#EEE" filter="url(#a)" stroke="#000" stroke-width="2" d="M718.5 159.547h151v23.133h-151z"/>
  <text font-family="sans-serif" font-size="13" font-weight="bold" lengthAdjust="spacingAndGlyphs" textLength="132" x="724.5" y="175.614">
    Agreement Phase
  </text>
  <path fill="#FFF" filter="url(#a)" stroke="#a80036" d="M58 197.68h313v446H58z"/>
  <text font-family="monospace" font-size="13" font-weight="bold" lengthAdjust="spacingAndGlyphs" textLength="296" x="62" y="213.747">
    POST /thirdpartyRequests/transactions
  </text>
  <text font-family="monospace" font-size="13" lengthAdjust="spacingAndGlyphs" textLength="160" x="62" y="228.879">
    FSPIOP-Source: pispa
  </text>
  <text font-family="monospace" font-size="13" lengthAdjust="spacingAndGlyphs" textLength="200" x="62" y="244.012">
    FSPIOP-Destination: dfspa
  </text>
  <text font-family="sans-serif" font-size="13" lengthAdjust="spacingAndGlyphs" textLength="8" x="62" y="259.145">
    {
  </text>
  <text font-family="sans-serif" font-size="13" lengthAdjust="spacingAndGlyphs" textLength="191" x="70" y="274.278">
    &quot;transactionRequestId&quot;: &quot;123&quot;,
  </text>
  <text font-family="sans-serif" font-size="13" lengthAdjust="spacingAndGlyphs" textLength="65" x="70" y="289.411">
    &quot;payee&quot;: {
  </text>
  <text font-family="sans-serif" font-size="13" lengthAdjust="spacingAndGlyphs" textLength="93" x="78" y="304.543">
    &quot;partyIdInfo&quot;: {
  </text>
  <text font-family="sans-serif" font-size="13" lengthAdjust="spacingAndGlyphs" textLength="158" x="86" y="319.676">
    &quot;partyIdType&quot;: &quot;MSISDN&quot;,
  </text>
  <text font-family="sans-serif" font-size="13" lengthAdjust="spacingAndGlyphs" textLength="211" x="86" y="334.809">
    &quot;partyIdentifier&quot;: &quot;+4412345678&quot;,
  </text>
  <text font-family="sans-serif" font-size="13" lengthAdjust="spacingAndGlyphs" textLength="93" x="86" y="349.942">
    &quot;fspId&quot;: &quot;dfspb&quot;
  </text>
  <text font-family="sans-serif" font-size="13" lengthAdjust="spacingAndGlyphs" textLength="8" x="78" y="365.075">
    }
  </text>
  <text font-family="sans-serif" font-size="13" lengthAdjust="spacingAndGlyphs" textLength="12" x="70" y="380.207">
    },
  </text>
  <text font-family="sans-serif" font-size="13" lengthAdjust="spacingAndGlyphs" textLength="62" x="70" y="395.34">
    &quot;payer&quot;: {
  </text>
  <text font-family="sans-serif" font-size="13" lengthAdjust="spacingAndGlyphs" textLength="225" x="78" y="410.473">
    &quot;partyIdType&quot;: &quot;THIRD_PARTY_LINK&quot;,
  </text>
  <text font-family="sans-serif" font-size="13" lengthAdjust="spacingAndGlyphs" textLength="207" x="78" y="425.606">
    &quot;partyIdentifier&quot;: &quot;qwerty-56789&quot;,
  </text>
  <text font-family="sans-serif" font-size="13" lengthAdjust="spacingAndGlyphs" textLength="93" x="78" y="440.739">
    &quot;fspId&quot;: &quot;dfspa&quot;
  </text>
  <text font-family="sans-serif" font-size="13" lengthAdjust="spacingAndGlyphs" textLength="12" x="70" y="455.872">
    },
  </text>
  <text font-family="sans-serif" font-size="13" lengthAdjust="spacingAndGlyphs" textLength="149" x="70" y="471.004">
    &quot;amountType&quot;: &quot;SEND&quot;,
  </text>
  <text font-family="sans-serif" font-size="13" lengthAdjust="spacingAndGlyphs" textLength="76" x="70" y="486.137">
    &quot;amount&quot;: {
  </text>
  <text font-family="sans-serif" font-size="13" lengthAdjust="spacingAndGlyphs" textLength="106" x="78" y="501.27">
    &quot;amount&quot;: &quot;100&quot;,
  </text>
  <text font-family="sans-serif" font-size="13" lengthAdjust="spacingAndGlyphs" textLength="112" x="78" y="516.403">
    &quot;currency&quot;: &quot;USD&quot;
  </text>
  <text font-family="sans-serif" font-size="13" lengthAdjust="spacingAndGlyphs" textLength="12" x="70" y="531.536">
    },
  </text>
  <text font-family="sans-serif" font-size="13" lengthAdjust="spacingAndGlyphs" textLength="128" x="70" y="546.668">
    &quot;transactionType&quot;: {
  </text>
  <text font-family="sans-serif" font-size="13" lengthAdjust="spacingAndGlyphs" textLength="152" x="78" y="561.801">
    &quot;scenario&quot;: &quot;TRANSFER&quot;,
  </text>
  <text font-family="sans-serif" font-size="13" lengthAdjust="spacingAndGlyphs" textLength="120" x="78" y="576.934">
    &quot;initiator&quot;: &quot;PAYER&quot;,
  </text>
  <text font-family="sans-serif" font-size="13" lengthAdjust="spacingAndGlyphs" textLength="181" x="78" y="592.067">
    &quot;initiatorType&quot;: &quot;CONSUMER&quot;
  </text>
  <text font-family="sans-serif" font-size="13" lengthAdjust="spacingAndGlyphs" textLength="12" x="70" y="607.2">
    },
  </text>
  <text font-family="sans-serif" font-size="13" lengthAdjust="spacingAndGlyphs" textLength="297" x="70" y="622.332">
    &quot;expiration&quot;: &quot;2020-06-15T22:17:28.985-01:00&quot;
  </text>
  <text font-family="sans-serif" font-size="13" lengthAdjust="spacingAndGlyphs" textLength="8" x="62" y="637.465">
    }
  </text>
  <path fill="#A80036" stroke="#a80036" d="M385 666.664l10 4-10 4 4-4z"/>
  <path stroke="#a80036" d="M53 670.664h338"/>
  <text font-family="monospace" font-size="13" lengthAdjust="spacingAndGlyphs" textLength="296" x="60" y="665.598">
    POST /thirdpartyRequests/transactions
  </text>
  <path fill="#A80036" stroke="#a80036" d="M64 695.797l-10 4 10 4-4-4z"/>
  <path stroke="#a80036" stroke-dasharray="2,2" d="M58 699.797h338"/>
  <text font-family="monospace" font-size="13" lengthAdjust="spacingAndGlyphs" textLength="96" x="70" y="694.731">
    202 Accepted
  </text>
  <path fill="#A80036" stroke="#a80036" d="M971 724.93l10 4-10 4 4-4z"/>
  <path stroke="#a80036" d="M397 728.93h580"/>
  <text font-family="monospace" font-size="13" lengthAdjust="spacingAndGlyphs" textLength="296" x="404" y="723.864">
    POST /thirdpartyRequests/transactions
  </text>
  <path fill="#A80036" stroke="#a80036" d="M408 754.063l-10 4 10 4-4-4z"/>
  <path stroke="#a80036" stroke-dasharray="2,2" d="M402 758.063h580"/>
  <text font-family="monospace" font-size="13" lengthAdjust="spacingAndGlyphs" textLength="96" x="414" y="752.997">
    202 Accepted
  </text>
  <path stroke="#a80036" d="M983 802.328h42M1025 802.328v13M984 815.328h41"/>
  <path fill="#A80036" stroke="#a80036" d="M994 811.328l-10 4 10 4-4-4z"/>
  <text font-family="sans-serif" font-size="13" lengthAdjust="spacingAndGlyphs" textLength="73" x="990" y="782.129">
    Lookup this
  </text>
  <text font-family="monospace" font-size="13" lengthAdjust="spacingAndGlyphs" textLength="40" x="1067" y="782.129">
    payer
  </text>
  <text font-family="sans-serif" font-size="13" lengthAdjust="spacingAndGlyphs" textLength="225" x="1107" y="782.129">
    , verify that they exist, and consent
  </text>
  <text font-family="sans-serif" font-size="13" lengthAdjust="spacingAndGlyphs" textLength="205" x="990" y="797.262">
    is granted with a valid credential
  </text>
  <path stroke="#a80036" d="M983 844.461h42M1025 844.461v13M984 857.461h41"/>
  <path fill="#A80036" stroke="#a80036" d="M994 853.46l-10 4 10 4-4-4z"/>
  <text font-family="sans-serif" font-size="13" lengthAdjust="spacingAndGlyphs" textLength="387" x="990" y="839.395">
    Generate a unique transactionId for this transaction request:
  </text>
  <text font-family="monospace" font-size="13" lengthAdjust="spacingAndGlyphs" textLength="24" x="1381" y="839.395">
    987
  </text>
  <path fill="#FFF" filter="url(#a)" stroke="#a80036" d="M650 870.461h328v113H650z"/>
  <text font-family="monospace" font-size="13" font-weight="bold" lengthAdjust="spacingAndGlyphs" textLength="320" x="654" y="886.528">
    PUT /thirdpartyRequests/transactions/123
  </text>
  <text font-family="monospace" font-size="13" lengthAdjust="spacingAndGlyphs" textLength="160" x="654" y="901.661">
    FSPIOP-Source: dfspa
  </text>
  <text font-family="monospace" font-size="13" lengthAdjust="spacingAndGlyphs" textLength="200" x="654" y="916.793">
    FSPIOP-Destination: pispa
  </text>
  <text font-family="sans-serif" font-size="13" lengthAdjust="spacingAndGlyphs" textLength="8" x="654" y="931.926">
    {
  </text>
  <text font-family="sans-serif" font-size="13" lengthAdjust="spacingAndGlyphs" textLength="139" x="662" y="947.059">
    &quot;transactionId&quot;: &quot;987&quot;,
  </text>
  <text font-family="sans-serif" font-size="13" lengthAdjust="spacingAndGlyphs" textLength="250" x="662" y="962.192">
    &quot;transactionRequestState&quot;: &quot;RECEIVED&quot;
  </text>
  <text font-family="sans-serif" font-size="13" lengthAdjust="spacingAndGlyphs" textLength="8" x="654" y="977.325">
    }
  </text>
  <path fill="#A80036" stroke="#a80036" d="M408 1006.523l-10 4 10 4-4-4z"/>
  <path stroke="#a80036" d="M402 1010.523h580"/>
  <text font-family="monospace" font-size="13" lengthAdjust="spacingAndGlyphs" textLength="320" x="414" y="1005.457">
    PUT /thirdpartyRequests/transactions/123
  </text>
  <path fill="#A80036" stroke="#a80036" d="M971 1035.656l10 4-10 4 4-4z"/>
  <path stroke="#a80036" stroke-dasharray="2,2" d="M397 1039.656h580"/>
  <text font-family="monospace" font-size="13" lengthAdjust="spacingAndGlyphs" textLength="48" x="404" y="1034.59">
    200 OK
  </text>
  <path fill="#A80036" stroke="#a80036" d="M64 1064.79l-10 4 10 4-4-4z"/>
  <path stroke="#a80036" d="M58 1068.789h338"/>
  <text font-family="monospace" font-size="13" lengthAdjust="spacingAndGlyphs" textLength="320" x="70" y="1063.723">
    PUT /thirdpartyRequests/transactions/123
  </text>
  <path fill="#A80036" stroke="#a80036" d="M385 1093.922l10 4-10 4 4-4z"/>
  <path stroke="#a80036" stroke-dasharray="2,2" d="M53 1097.922h338"/>
  <text font-family="monospace" font-size="13" lengthAdjust="spacingAndGlyphs" textLength="48" x="60" y="1092.856">
    200 OK
  </text>
  <path fill="#FFF" filter="url(#a)" stroke="#a80036" d="M483 1110.922h495v613H483z"/>
  <text font-family="monospace" font-size="13" font-weight="bold" lengthAdjust="spacingAndGlyphs" textLength="96" x="487" y="1126.989">
    POST /quotes
  </text>
  <text font-family="monospace" font-size="13" lengthAdjust="spacingAndGlyphs" textLength="160" x="487" y="1142.122">
    FSPIOP-Source: dfspa
  </text>
  <text font-family="monospace" font-size="13" lengthAdjust="spacingAndGlyphs" textLength="200" x="487" y="1157.254">
    FSPIOP-Destination: dfspb
  </text>
  <text font-family="sans-serif" font-size="13" lengthAdjust="spacingAndGlyphs" textLength="8" x="487" y="1172.387">
    {
  </text>
  <text font-family="sans-serif" font-size="13" lengthAdjust="spacingAndGlyphs" textLength="253" x="495" y="1187.52">
    &quot;quoteId&quot;: &quot;456&quot;, //Set by the payer dfsp
  </text>
  <text font-family="sans-serif" font-size="13" lengthAdjust="spacingAndGlyphs" textLength="288" x="495" y="1202.653">
    &quot;transactionId&quot;: &quot;987&quot;, //Set by the payer dfsp
  </text>
  <text font-family="sans-serif" font-size="13" lengthAdjust="spacingAndGlyphs" textLength="479" x="495" y="1217.786">
    *&quot;transactionRequestId&quot;: &quot;123&quot;, //Relates to the original thirdpartyRequest!*
  </text>
  <text font-family="sans-serif" font-size="13" lengthAdjust="spacingAndGlyphs" textLength="65" x="495" y="1232.918">
    &quot;payee&quot;: {
  </text>
  <text font-family="sans-serif" font-size="13" lengthAdjust="spacingAndGlyphs" textLength="93" x="503" y="1248.051">
    &quot;partyIdInfo&quot;: {
  </text>
  <text font-family="sans-serif" font-size="13" lengthAdjust="spacingAndGlyphs" textLength="158" x="511" y="1263.184">
    &quot;partyIdType&quot;: &quot;MSISDN&quot;,
  </text>
  <text font-family="sans-serif" font-size="13" lengthAdjust="spacingAndGlyphs" textLength="211" x="511" y="1278.317">
    &quot;partyIdentifier&quot;: &quot;+4412345678&quot;,
  </text>
  <text font-family="sans-serif" font-size="13" lengthAdjust="spacingAndGlyphs" textLength="93" x="511" y="1293.45">
    &quot;fspId&quot;: &quot;dfspb&quot;
  </text>
  <text font-family="sans-serif" font-size="13" lengthAdjust="spacingAndGlyphs" textLength="8" x="503" y="1308.582">
    }
  </text>
  <text font-family="sans-serif" font-size="13" lengthAdjust="spacingAndGlyphs" textLength="12" x="495" y="1323.715">
    },
  </text>
  <text font-family="sans-serif" font-size="13" lengthAdjust="spacingAndGlyphs" textLength="62" x="495" y="1338.848">
    &quot;payer&quot;: {
  </text>
  <text font-family="sans-serif" font-size="13" lengthAdjust="spacingAndGlyphs" textLength="104" x="503" y="1353.981">
    &quot;personalInfo&quot;: {
  </text>
  <text font-family="sans-serif" font-size="13" lengthAdjust="spacingAndGlyphs" textLength="119" x="511" y="1369.114">
    &quot;complexName&quot;: {
  </text>
  <text font-family="sans-serif" font-size="13" lengthAdjust="spacingAndGlyphs" textLength="142" x="519" y="1384.247">
    &quot;firstName&quot;: &quot;Ayesha&quot;,
  </text>
  <text font-family="sans-serif" font-size="13" lengthAdjust="spacingAndGlyphs" textLength="123" x="519" y="1399.379">
    &quot;lastName&quot;: &quot;Takia&quot;
  </text>
  <text font-family="sans-serif" font-size="13" lengthAdjust="spacingAndGlyphs" textLength="8" x="511" y="1414.512">
    }
  </text>
  <text font-family="sans-serif" font-size="13" lengthAdjust="spacingAndGlyphs" textLength="12" x="503" y="1429.645">
    },
  </text>
  <text font-family="sans-serif" font-size="13" lengthAdjust="spacingAndGlyphs" textLength="93" x="503" y="1444.778">
    &quot;partyIdInfo&quot;: {
  </text>
  <text font-family="sans-serif" font-size="13" lengthAdjust="spacingAndGlyphs" textLength="225" x="511" y="1459.911">
    &quot;partyIdType&quot;: &quot;THIRD_PARTY_LINK&quot;,
  </text>
  <text font-family="sans-serif" font-size="13" lengthAdjust="spacingAndGlyphs" textLength="207" x="511" y="1475.043">
    &quot;partyIdentifier&quot;: &quot;qwerty-56789&quot;,
  </text>
  <text font-family="sans-serif" font-size="13" lengthAdjust="spacingAndGlyphs" textLength="93" x="511" y="1490.176">
    &quot;fspId&quot;: &quot;dfspa&quot;
  </text>
  <text font-family="sans-serif" font-size="13" lengthAdjust="spacingAndGlyphs" textLength="12" x="503" y="1505.309">
    },
  </text>
  <text font-family="sans-serif" font-size="13" lengthAdjust="spacingAndGlyphs" textLength="12" x="503" y="1520.442">
    },
  </text>
  <text font-family="sans-serif" font-size="13" lengthAdjust="spacingAndGlyphs" textLength="12" x="495" y="1535.575">
    },
  </text>
  <text font-family="sans-serif" font-size="13" lengthAdjust="spacingAndGlyphs" textLength="149" x="495" y="1550.707">
    &quot;amountType&quot;: &quot;SEND&quot;,
  </text>
  <text font-family="sans-serif" font-size="13" lengthAdjust="spacingAndGlyphs" textLength="76" x="495" y="1565.84">
    &quot;amount&quot;: {
  </text>
  <text font-family="sans-serif" font-size="13" lengthAdjust="spacingAndGlyphs" textLength="106" x="503" y="1580.973">
    &quot;amount&quot;: &quot;100&quot;,
  </text>
  <text font-family="sans-serif" font-size="13" lengthAdjust="spacingAndGlyphs" textLength="112" x="503" y="1596.106">
    &quot;currency&quot;: &quot;USD&quot;
  </text>
  <text font-family="sans-serif" font-size="13" lengthAdjust="spacingAndGlyphs" textLength="12" x="495" y="1611.239">
    },
  </text>
  <text font-family="sans-serif" font-size="13" lengthAdjust="spacingAndGlyphs" textLength="128" x="495" y="1626.372">
    &quot;transactionType&quot;: {
  </text>
  <text font-family="sans-serif" font-size="13" lengthAdjust="spacingAndGlyphs" textLength="152" x="503" y="1641.504">
    &quot;scenario&quot;: &quot;TRANSFER&quot;,
  </text>
  <text font-family="sans-serif" font-size="13" lengthAdjust="spacingAndGlyphs" textLength="120" x="503" y="1656.637">
    &quot;initiator&quot;: &quot;PAYER&quot;,
  </text>
  <text font-family="sans-serif" font-size="13" lengthAdjust="spacingAndGlyphs" textLength="181" x="503" y="1671.77">
    &quot;initiatorType&quot;: &quot;CONSUMER&quot;
  </text>
  <text font-family="sans-serif" font-size="13" lengthAdjust="spacingAndGlyphs" textLength="12" x="495" y="1686.903">
    },
  </text>
  <text font-family="sans-serif" font-size="13" lengthAdjust="spacingAndGlyphs" textLength="127" x="495" y="1702.036">
    &quot;note&quot;: &quot;quote note&quot;
  </text>
  <text font-family="sans-serif" font-size="13" lengthAdjust="spacingAndGlyphs" textLength="8" x="487" y="1717.168">
    }
  </text>
  <path fill="#A80036" stroke="#a80036" d="M408 1746.367l-10 4 10 4-4-4z"/>
  <path stroke="#a80036" d="M402 1750.367h580"/>
  <text font-family="monospace" font-size="13" lengthAdjust="spacingAndGlyphs" textLength="96" x="414" y="1745.301">
    POST /quotes
  </text>
  <path fill="#A80036" stroke="#a80036" d="M971 1775.5l10 4-10 4 4-4z"/>
  <path stroke="#a80036" stroke-dasharray="2,2" d="M397 1779.5h580"/>
  <text font-family="monospace" font-size="13" lengthAdjust="spacingAndGlyphs" textLength="96" x="404" y="1774.434">
    202 Accepted
  </text>
  <path fill="#A80036" stroke="#a80036" d="M1400 1804.633l10 4-10 4 4-4z"/>
  <path stroke="#a80036" d="M397 1808.633h1009"/>
  <text font-family="monospace" font-size="13" lengthAdjust="spacingAndGlyphs" textLength="96" x="404" y="1803.567">
    POST /quotes
  </text>
  <path fill="#A80036" stroke="#a80036" d="M408 1833.766l-10 4 10 4-4-4z"/>
  <path stroke="#a80036" stroke-dasharray="2,2" d="M402 1837.766h1009"/>
  <text font-family="monospace" font-size="13" lengthAdjust="spacingAndGlyphs" textLength="96" x="414" y="1832.7">
    202 Accepted
  </text>
  <path fill="#FFF" filter="url(#a)" stroke="#a80036" d="M702 1850.766h276v310H702z"/>
  <text font-family="monospace" font-size="13" font-weight="bold" lengthAdjust="spacingAndGlyphs" textLength="120" x="706" y="1866.832">
    PUT /quotes/456
  </text>
  <text font-family="monospace" font-size="13" lengthAdjust="spacingAndGlyphs" textLength="160" x="706" y="1881.965">
    FSPIOP-Source: dfspb
  </text>
  <text font-family="monospace" font-size="13" lengthAdjust="spacingAndGlyphs" textLength="200" x="706" y="1897.098">
    FSPIOP-Destination: dfspa
  </text>
  <text font-family="sans-serif" font-size="13" lengthAdjust="spacingAndGlyphs" textLength="8" x="706" y="1912.231">
    {
  </text>
  <text font-family="sans-serif" font-size="13" lengthAdjust="spacingAndGlyphs" textLength="127" x="714" y="1927.364">
    &quot;transferAmount&quot;: {
  </text>
  <text font-family="sans-serif" font-size="13" lengthAdjust="spacingAndGlyphs" textLength="106" x="722" y="1942.497">
    &quot;amount&quot;: &quot;100&quot;,
  </text>
  <text font-family="sans-serif" font-size="13" lengthAdjust="spacingAndGlyphs" textLength="112" x="722" y="1957.629">
    &quot;currency&quot;: &quot;USD&quot;
  </text>
  <text font-family="sans-serif" font-size="13" lengthAdjust="spacingAndGlyphs" textLength="12" x="714" y="1972.762">
    },
  </text>
  <text font-family="sans-serif" font-size="13" lengthAdjust="spacingAndGlyphs" textLength="165" x="714" y="1987.895">
    &quot;payeeReceiveAmount&quot;: {
  </text>
  <text font-family="sans-serif" font-size="13" lengthAdjust="spacingAndGlyphs" textLength="98" x="722" y="2003.028">
    &quot;amount&quot;: &quot;99&quot;,
  </text>
  <text font-family="sans-serif" font-size="13" lengthAdjust="spacingAndGlyphs" textLength="112" x="722" y="2018.161">
    &quot;currency&quot;: &quot;USD&quot;
  </text>
  <text font-family="sans-serif" font-size="13" lengthAdjust="spacingAndGlyphs" textLength="12" x="714" y="2033.293">
    },
  </text>
  <text font-family="sans-serif" font-size="13" lengthAdjust="spacingAndGlyphs" textLength="110" x="714" y="2048.426">
    &quot;payeeFspFee&quot;: {
  </text>
  <text font-family="sans-serif" font-size="13" lengthAdjust="spacingAndGlyphs" textLength="90" x="722" y="2063.559">
    &quot;amount&quot;: &quot;1&quot;,
  </text>
  <text font-family="sans-serif" font-size="13" lengthAdjust="spacingAndGlyphs" textLength="112" x="722" y="2078.692">
    &quot;currency&quot;: &quot;USD&quot;
  </text>
  <text font-family="sans-serif" font-size="13" lengthAdjust="spacingAndGlyphs" textLength="12" x="714" y="2093.825">
    },
  </text>
  <text font-family="sans-serif" font-size="13" lengthAdjust="spacingAndGlyphs" textLength="260" x="714" y="2108.957">
    &quot;expiration&quot;: &quot;2020-06-15T12:00:00.000&quot;,
  </text>
  <text font-family="sans-serif" font-size="13" lengthAdjust="spacingAndGlyphs" textLength="101" x="714" y="2124.09">
    &quot;ilpPacket&quot;: &quot;...&quot;,
  </text>
  <text font-family="sans-serif" font-size="13" lengthAdjust="spacingAndGlyphs" textLength="102" x="714" y="2139.223">
    &quot;condition&quot;: &quot;...&quot;,
  </text>
  <text font-family="sans-serif" font-size="13" lengthAdjust="spacingAndGlyphs" textLength="8" x="706" y="2154.356">
    }
  </text>
  <path fill="#A80036" stroke="#a80036" d="M408 2183.555l-10 4 10 4-4-4z"/>
  <path stroke="#a80036" d="M402 2187.555h1009"/>
  <text font-family="monospace" font-size="13" lengthAdjust="spacingAndGlyphs" textLength="120" x="414" y="2182.489">
    PUT /quotes/456
  </text>
  <path fill="#A80036" stroke="#a80036" d="M1400 2212.688l10 4-10 4 4-4z"/>
  <path stroke="#a80036" stroke-dasharray="2,2" d="M397 2216.688h1009"/>
  <text font-family="monospace" font-size="13" lengthAdjust="spacingAndGlyphs" textLength="48" x="404" y="2211.622">
    200 OK
  </text>
  <path fill="#A80036" stroke="#a80036" d="M971 2241.82l10 4-10 4 4-4z"/>
  <path stroke="#a80036" d="M397 2245.82h580"/>
  <text font-family="monospace" font-size="13" lengthAdjust="spacingAndGlyphs" textLength="120" x="404" y="2240.754">
    PUT /quotes/456
  </text>
  <path fill="#A80036" stroke="#a80036" d="M408 2270.953l-10 4 10 4-4-4z"/>
  <path stroke="#a80036" stroke-dasharray="2,2" d="M402 2274.953h580"/>
  <text font-family="monospace" font-size="13" lengthAdjust="spacingAndGlyphs" textLength="48" x="414" y="2269.887">
    200 OK
  </text>
  <path d="M699 2287.953v40h275v-30l-10-10H699" fill="#FBFB77" filter="url(#a)" stroke="#a80036"/>
  <path d="M964 2287.953v10h10l-10-10" fill="#FBFB77" stroke="#a80036"/>
  <text font-family="sans-serif" font-size="13" lengthAdjust="spacingAndGlyphs" textLength="254" x="705" y="2305.02">
    DFSPA has the quote, they can now ask
  </text>
  <text font-family="sans-serif" font-size="13" lengthAdjust="spacingAndGlyphs" textLength="162" x="705" y="2320.153">
    the PISP for authorization
  </text>
  <path fill="#FFF" filter="url(#a)" stroke="#a80036" d="M487 2342.219h491v265H487z"/>
  <text font-family="monospace" font-size="13" font-weight="bold" lengthAdjust="spacingAndGlyphs" textLength="160" x="491" y="2358.286">
    POST /authorizations
  </text>
  <text font-family="monospace" font-size="13" lengthAdjust="spacingAndGlyphs" textLength="160" x="491" y="2373.419">
    FSPIOP-Source: dfspa
  </text>
  <text font-family="monospace" font-size="13" lengthAdjust="spacingAndGlyphs" textLength="200" x="491" y="2388.551">
    FSPIOP-Destination: pispa
  </text>
  <text font-family="sans-serif" font-size="13" lengthAdjust="spacingAndGlyphs" textLength="8" x="491" y="2403.684">
    {
  </text>
  <text font-family="sans-serif" font-size="13" lengthAdjust="spacingAndGlyphs" textLength="151" x="499" y="2418.817">
    &quot;authorizationId&quot;: &quot;999&quot;,
  </text>
  <text font-family="sans-serif" font-size="13" lengthAdjust="spacingAndGlyphs" textLength="181" x="499" y="2433.95">
    &quot;authenticationType&quot;: TODO,
  </text>
  <text font-family="sans-serif" font-size="13" lengthAdjust="spacingAndGlyphs" textLength="267" x="499" y="2464.215">
    //transactionRequestId is our &apos;primary key&apos;
  </text>
  <text font-family="sans-serif" font-size="13" lengthAdjust="spacingAndGlyphs" textLength="187" x="499" y="2479.348">
    //to refer to this authorization
  </text>
  <text font-family="sans-serif" font-size="13" font-weight="bold" lengthAdjust="spacingAndGlyphs" textLength="228" x="499" y="2494.481">
    &quot;transactionRequestId&quot;: &quot;123&quot;,
  </text>
  <text font-family="sans-serif" font-size="13" lengthAdjust="spacingAndGlyphs" textLength="179" x="499" y="2509.614">
    &quot;authenticationType&quot;: &quot;U2F&quot;,
  </text>
  <text font-family="sans-serif" font-size="13" lengthAdjust="spacingAndGlyphs" textLength="105" x="499" y="2524.747">
    &quot;retriesLeft&quot;: &quot;1&quot;,
  </text>
  <text font-family="sans-serif" font-size="13" lengthAdjust="spacingAndGlyphs" textLength="153" x="499" y="2539.879">
    &quot;transaction&quot;: &quot;TODO&quot;,...
  </text>
  <text font-family="sans-serif" font-size="13" lengthAdjust="spacingAndGlyphs" textLength="102" x="499" y="2555.012">
    &quot;condition&quot;: &quot;...&quot;,
  </text>
  <text font-family="sans-serif" font-size="13" lengthAdjust="spacingAndGlyphs" textLength="475" x="499" y="2570.145">
    // SHA_256(canonicalJson(transaction)), but provided here for convenience
  </text>
  <text font-family="sans-serif" font-size="13" lengthAdjust="spacingAndGlyphs" textLength="105" x="499" y="2585.278">
    &quot;challenge&quot;: &quot;...&quot;,
  </text>
  <text font-family="sans-serif" font-size="13" lengthAdjust="spacingAndGlyphs" textLength="8" x="491" y="2600.411">
    }
  </text>
  <path fill="#A80036" stroke="#a80036" d="M408 2629.61l-10 4 10 4-4-4z"/>
  <path stroke="#a80036" d="M402 2633.609h580"/>
  <text font-family="monospace" font-size="13" lengthAdjust="spacingAndGlyphs" textLength="160" x="414" y="2628.544">
    POST /authorizations
  </text>
  <path fill="#A80036" stroke="#a80036" d="M971 2658.742l10 4-10 4 4-4z"/>
  <path stroke="#a80036" stroke-dasharray="2,2" d="M397 2662.742h580"/>
  <text font-family="monospace" font-size="13" lengthAdjust="spacingAndGlyphs" textLength="96" x="404" y="2657.676">
    202 Accepted
  </text>
  <path fill="#A80036" stroke="#a80036" d="M64 2687.875l-10 4 10 4-4-4z"/>
  <path stroke="#a80036" d="M58 2691.875h338"/>
  <text font-family="monospace" font-size="13" lengthAdjust="spacingAndGlyphs" textLength="160" x="70" y="2686.809">
    POST /authorizations
  </text>
  <path fill="#A80036" stroke="#a80036" d="M385 2717.008l10 4-10 4 4-4z"/>
  <path stroke="#a80036" stroke-dasharray="2,2" d="M53 2721.008h338"/>
  <text font-family="monospace" font-size="13" lengthAdjust="spacingAndGlyphs" textLength="96" x="60" y="2715.942">
    202 Accepted
  </text>
  <path d="M58 2734.008v40h358v-30l-10-10H58" fill="#FBFB77" filter="url(#a)" stroke="#a80036"/>
  <path d="M406 2734.008v10h10l-10-10" fill="#FBFB77" stroke="#a80036"/>
  <text font-family="sans-serif" font-size="13" lengthAdjust="spacingAndGlyphs" textLength="232" x="64" y="2751.075">
    PISP checks the quote with the user,
  </text>
  <text font-family="sans-serif" font-size="13" lengthAdjust="spacingAndGlyphs" textLength="337" x="64" y="2766.207">
    and uses FIDO to sign the the QuoteResponse object
  </text>
  <path fill="#FFF" filter="url(#a)" stroke="#a80036" d="M58 2788.273h435v204H58z"/>
  <text font-family="monospace" font-size="13" font-weight="bold" lengthAdjust="spacingAndGlyphs" textLength="184" x="62" y="2804.34">
    PUT /authorizations/999
  </text>
  <text font-family="monospace" font-size="13" lengthAdjust="spacingAndGlyphs" textLength="160" x="62" y="2819.473">
    FSPIOP-Source: pispa
  </text>
  <text font-family="monospace" font-size="13" lengthAdjust="spacingAndGlyphs" textLength="200" x="62" y="2834.606">
    FSPIOP-Destination: dfspa
  </text>
  <text font-family="sans-serif" font-size="13" lengthAdjust="spacingAndGlyphs" textLength="8" x="62" y="2849.739">
    {
  </text>
  <text font-family="sans-serif" font-size="13" lengthAdjust="spacingAndGlyphs" textLength="141" x="70" y="2864.872">
    &quot;authenticationInfo&quot;: {
  </text>
  <text font-family="sans-serif" font-size="13" lengthAdjust="spacingAndGlyphs" textLength="149" x="78" y="2880.004">
    &quot;authentication&quot;: &quot;U2F&quot;,
  </text>
  <text font-family="sans-serif" font-size="13" lengthAdjust="spacingAndGlyphs" textLength="154" x="78" y="2895.137">
    &quot;authenticationValue&quot;: {
  </text>
  <text font-family="sans-serif" font-size="13" lengthAdjust="spacingAndGlyphs" textLength="403" x="86" y="2910.27">
    &quot;pinValue&quot;: &quot;&lt;base64 encoded binary - the signed challenge&gt;&quot;,
  </text>
  <text font-family="sans-serif" font-size="13" lengthAdjust="spacingAndGlyphs" textLength="85" x="86" y="2925.403">
    &quot;counter&quot;: &quot;1&quot;
  </text>
  <text font-family="sans-serif" font-size="13" lengthAdjust="spacingAndGlyphs" textLength="8" x="78" y="2940.536">
    }
  </text>
  <text font-family="sans-serif" font-size="13" lengthAdjust="spacingAndGlyphs" textLength="8" x="70" y="2955.669">
    }
  </text>
  <text font-family="sans-serif" font-size="13" lengthAdjust="spacingAndGlyphs" textLength="176" x="70" y="2970.801">
    &quot;responseType&quot;: &quot;ENTERED&quot;
  </text>
  <text font-family="sans-serif" font-size="13" lengthAdjust="spacingAndGlyphs" textLength="8" x="62" y="2985.934">
    }
  </text>
  <path fill="#A80036" stroke="#a80036" d="M385 3015.133l10 4-10 4 4-4z"/>
  <path stroke="#a80036" d="M53 3019.133h338"/>
  <text font-family="monospace" font-size="13" lengthAdjust="spacingAndGlyphs" textLength="184" x="60" y="3014.067">
    PUT /authorizations/999
  </text>
  <path fill="#A80036" stroke="#a80036" d="M64 3044.266l-10 4 10 4-4-4z"/>
  <path stroke="#a80036" stroke-dasharray="2,2" d="M58 3048.266h338"/>
  <text font-family="monospace" font-size="13" lengthAdjust="spacingAndGlyphs" textLength="48" x="70" y="3043.2">
    200 OK
  </text>
  <path fill="#A80036" stroke="#a80036" d="M971 3073.398l10 4-10 4 4-4z"/>
  <path stroke="#a80036" d="M397 3077.398h580"/>
  <text font-family="monospace" font-size="13" lengthAdjust="spacingAndGlyphs" textLength="184" x="404" y="3072.332">
    PUT /authorizations/999
  </text>
  <path fill="#A80036" stroke="#a80036" d="M408 3102.531l-10 4 10 4-4-4z"/>
  <path stroke="#a80036" stroke-dasharray="2,2" d="M402 3106.531h580"/>
  <text font-family="monospace" font-size="13" lengthAdjust="spacingAndGlyphs" textLength="48" x="414" y="3101.465">
    200 OK
  </text>
  <path stroke="#a80036" d="M983 3150.797h42M1025 3150.797v13M984 3163.797h41"/>
  <path fill="#A80036" stroke="#a80036" d="M994 3159.797l-10 4 10 4-4-4z"/>
  <text font-family="sans-serif" font-size="13" lengthAdjust="spacingAndGlyphs" textLength="71" x="990" y="3130.598">
    Lookup the
  </text>
  <text font-family="monospace" font-size="13" lengthAdjust="spacingAndGlyphs" textLength="240" x="1065" y="3130.598">
    thirdpartyRequests/transaction
  </text>
  <text font-family="sans-serif" font-size="13" lengthAdjust="spacingAndGlyphs" textLength="103" x="990" y="3145.731">
    request, get the
  </text>
  <text font-family="monospace" font-size="13" lengthAdjust="spacingAndGlyphs" textLength="72" x="1097" y="3145.731">
    consentId
  </text>
  <text font-family="sans-serif" font-size="13" lengthAdjust="spacingAndGlyphs" textLength="24" x="1173" y="3145.731">
    and
  </text>
  <text font-family="monospace" font-size="13" lengthAdjust="spacingAndGlyphs" textLength="120" x="1201" y="3145.731">
    sourceAccountId
  </text>
  <path stroke="#a80036" d="M983 3208.063h42M1025 3208.063v13M984 3221.063h41"/>
  <path fill="#A80036" stroke="#a80036" d="M994 3217.063l-10 4 10 4-4-4z"/>
  <text font-family="sans-serif" font-size="13" lengthAdjust="spacingAndGlyphs" textLength="125" x="990" y="3187.864">
    Confirm pispId from
  </text>
  <text font-family="monospace" font-size="13" lengthAdjust="spacingAndGlyphs" textLength="184" x="1119" y="3187.864">
    PUT /authorizations/123
  </text>
  <text font-family="sans-serif" font-size="13" lengthAdjust="spacingAndGlyphs" textLength="81" x="994" y="3202.997">
    matches the
  </text>
  <text font-family="monospace" font-size="13" lengthAdjust="spacingAndGlyphs" textLength="240" x="1079" y="3202.997">
    thirdpartyRequests/transaction
  </text>
  <path d="M752 3234.063v40h458v-30l-10-10H752" fill="#FBFB77" filter="url(#a)" stroke="#a80036"/>
  <path d="M1200 3234.063v10h10l-10-10" fill="#FBFB77" stroke="#a80036"/>
  <text font-family="sans-serif" font-size="13" lengthAdjust="spacingAndGlyphs" textLength="194" x="758" y="3251.129">
    DFSP has the signed condition
  </text>
  <text font-family="sans-serif" font-size="13" lengthAdjust="spacingAndGlyphs" textLength="437" x="758" y="3266.262">
    For 3rd party FIDO, it now needs to make sure everything checks out
  </text>
  <path fill="#FFF" filter="url(#a)" stroke="#a80036" d="M714 3288.328h264v174H714z"/>
  <text font-family="monospace" font-size="13" font-weight="bold" lengthAdjust="spacingAndGlyphs" textLength="168" x="718" y="3304.395">
    POST /authentications
  </text>
  <text font-family="monospace" font-size="13" lengthAdjust="spacingAndGlyphs" textLength="160" x="718" y="3319.528">
    FSPIOP-Source: dfspa
  </text>
  <text font-family="monospace" font-size="13" lengthAdjust="spacingAndGlyphs" textLength="256" x="718" y="3334.661">
    FSPIOP-Destination: central-auth
  </text>
  <text font-family="sans-serif" font-size="13" lengthAdjust="spacingAndGlyphs" textLength="8" x="718" y="3349.794">
    {
  </text>
  <text font-family="sans-serif" font-size="13" lengthAdjust="spacingAndGlyphs" textLength="211" x="726" y="3364.926">
    &quot;authenticationRequestId&quot;: &quot;888&quot;,
  </text>
  <text font-family="sans-serif" font-size="13" lengthAdjust="spacingAndGlyphs" textLength="113" x="726" y="3380.059">
    &quot;consentId&quot;: todo,
  </text>
  <text font-family="sans-serif" font-size="13" lengthAdjust="spacingAndGlyphs" textLength="154" x="726" y="3395.192">
    &quot;accountAddress&quot;: todo,
  </text>
  <text font-family="sans-serif" font-size="13" lengthAdjust="spacingAndGlyphs" textLength="100" x="726" y="3410.325">
    &quot;challenge: &quot;...&quot;,
  </text>
  <text font-family="sans-serif" font-size="13" lengthAdjust="spacingAndGlyphs" textLength="166" x="726" y="3425.457">
    //signed challenge by PISP
  </text>
  <text font-family="sans-serif" font-size="13" lengthAdjust="spacingAndGlyphs" textLength="99" x="726" y="3440.59">
    &quot;response&quot;: &quot;...&quot;
  </text>
  <text font-family="sans-serif" font-size="13" lengthAdjust="spacingAndGlyphs" textLength="8" x="718" y="3455.723">
    }
  </text>
  <path fill="#A80036" stroke="#a80036" d="M408 3484.922l-10 4 10 4-4-4z"/>
  <path stroke="#a80036" d="M402 3488.922h580"/>
  <text font-family="monospace" font-size="13" lengthAdjust="spacingAndGlyphs" textLength="168" x="414" y="3483.856">
    POST /authentications
  </text>
  <path fill="#A80036" stroke="#a80036" d="M971 3514.055l10 4-10 4 4-4z"/>
  <path stroke="#a80036" stroke-dasharray="2,2" d="M397 3518.055h580"/>
  <text font-family="monospace" font-size="13" lengthAdjust="spacingAndGlyphs" textLength="96" x="404" y="3512.989">
    202 Accepted
  </text>
  <path fill="#A80036" stroke="#a80036" d="M601 3543.188l10 4-10 4 4-4z"/>
  <path stroke="#a80036" d="M397 3547.188h210"/>
  <text font-family="monospace" font-size="13" lengthAdjust="spacingAndGlyphs" textLength="168" x="404" y="3542.122">
    POST /authentications
  </text>
  <path fill="#A80036" stroke="#a80036" d="M408 3572.32l-10 4 10 4-4-4z"/>
  <path stroke="#a80036" stroke-dasharray="2,2" d="M402 3576.32h210"/>
  <text font-family="monospace" font-size="13" lengthAdjust="spacingAndGlyphs" textLength="96" x="414" y="3571.254">
    202 Accepted
  </text>
  <path stroke="#a80036" d="M613 3605.453h42M655 3605.453v13M614 3618.453h41"/>
  <path fill="#A80036" stroke="#a80036" d="M624 3614.453l-10 4 10 4-4-4z"/>
  <text font-family="sans-serif" font-size="13" lengthAdjust="spacingAndGlyphs" textLength="257" x="620" y="3600.387">
    Lookup this consent based on consentId
  </text>
  <path stroke="#a80036" d="M613 3647.586h42M655 3647.586v13M614 3660.586h41"/>
  <path fill="#A80036" stroke="#a80036" d="M624 3656.586l-10 4 10 4-4-4z"/>
  <text font-family="sans-serif" font-size="13" lengthAdjust="spacingAndGlyphs" textLength="356" x="620" y="3642.52">
    Ensure the accountAddress matches what is in Consent
  </text>
  <path stroke="#a80036" d="M613 3704.852h42M655 3704.852v13M614 3717.852h41"/>
  <path fill="#A80036" stroke="#a80036" d="M624 3713.852l-10 4 10 4-4-4z"/>
  <text font-family="sans-serif" font-size="13" lengthAdjust="spacingAndGlyphs" textLength="249" x="620" y="3684.653">
    Check that the signed bytes match the
  </text>
  <text font-family="sans-serif" font-size="13" lengthAdjust="spacingAndGlyphs" textLength="261" x="620" y="3699.786">
    publickey we have stored for the consent
  </text>
  <path fill="#FFF" filter="url(#a)" stroke="#a80036" d="M618 3730.852h254v98H618z"/>
  <text font-family="monospace" font-size="13" font-weight="bold" lengthAdjust="spacingAndGlyphs" textLength="192" x="622" y="3746.919">
    PUT /authentications/888
  </text>
  <text font-family="monospace" font-size="13" lengthAdjust="spacingAndGlyphs" textLength="216" x="622" y="3762.051">
    FSPIOP-Source: central-auth
  </text>
  <text font-family="monospace" font-size="13" lengthAdjust="spacingAndGlyphs" textLength="200" x="622" y="3777.184">
    FSPIOP-Destination: dfspa
  </text>
  <text font-family="sans-serif" font-size="13" lengthAdjust="spacingAndGlyphs" textLength="8" x="622" y="3792.317">
    {
  </text>
  <text font-family="sans-serif" font-size="13" lengthAdjust="spacingAndGlyphs" textLength="238" x="630" y="3807.45">
    &quot;authenticationResponse&quot;: &quot;VERIFIED&quot;
  </text>
  <text font-family="sans-serif" font-size="13" lengthAdjust="spacingAndGlyphs" textLength="8" x="622" y="3822.582">
    }
  </text>
  <path fill="#A80036" stroke="#a80036" d="M408 3851.781l-10 4 10 4-4-4z"/>
  <path stroke="#a80036" d="M402 3855.781h210"/>
  <text font-family="monospace" font-size="13" lengthAdjust="spacingAndGlyphs" textLength="192" x="414" y="3850.715">
    PUT /authentications/888
  </text>
  <path fill="#A80036" stroke="#a80036" d="M601 3880.914l10 4-10 4 4-4z"/>
  <path stroke="#a80036" stroke-dasharray="2,2" d="M397 3884.914h210"/>
  <text font-family="monospace" font-size="13" lengthAdjust="spacingAndGlyphs" textLength="48" x="404" y="3879.848">
    200 OK
  </text>
  <path fill="#A80036" stroke="#a80036" d="M971 3910.047l10 4-10 4 4-4z"/>
  <path stroke="#a80036" d="M397 3914.047h580"/>
  <text font-family="monospace" font-size="13" lengthAdjust="spacingAndGlyphs" textLength="192" x="404" y="3908.981">
    PUT /authentications/888
  </text>
  <path fill="#A80036" stroke="#a80036" d="M408 3939.18l-10 4 10 4-4-4z"/>
  <path stroke="#a80036" stroke-dasharray="2,2" d="M402 3943.18h580"/>
  <text font-family="monospace" font-size="13" lengthAdjust="spacingAndGlyphs" textLength="48" x="414" y="3938.114">
    200 OK
  </text>
  <path d="M795 3956.18v40h372v-30l-10-10H795" fill="#FBFB77" filter="url(#a)" stroke="#a80036"/>
  <path d="M1157 3956.18v10h10l-10-10" fill="#FBFB77" stroke="#a80036"/>
  <text font-family="sans-serif" font-size="13" lengthAdjust="spacingAndGlyphs" textLength="351" x="801" y="3973.247">
    DFSPA now knows that the user signed this transaction
  </text>
  <text font-family="sans-serif" font-size="13" lengthAdjust="spacingAndGlyphs" textLength="269" x="801" y="3988.379">
    and can go ahead and initiate the transfer
  </text>
</svg>
