<svg xmlns="http://www.w3.org/2000/svg" height="1529" preserveAspectRatio="none" style="width:2005px;height:1529px" width="2005">
  <defs>
    <filter height="300%" id="a" width="300%" x="-1" y="-1">
      <feGaussianBlur result="blurOut" stdDeviation="2"/>
      <feColorMatrix in="blurOut" result="blurOut2" values="0 0 0 0 0 0 0 0 0 0 0 0 0 0 0 0 0 0 .4 0"/>
      <feOffset dx="4" dy="4" in="blurOut2" result="blurOut3"/>
      <feBlend in="SourceGraphic" in2="blurOut3"/>
    </filter>
  </defs>
  <text font-family="sans-serif" font-size="18" lengthAdjust="spacingAndGlyphs" textLength="323" x="841" y="28.708">
    PISP Linking: Request consent (OTP)
  </text>
  <path fill="#DDD" stroke="#a80036" d="M639.5 40.953h73v1482.156h-73z"/>
  <text font-family="sans-serif" font-size="13" font-weight="bold" lengthAdjust="spacingAndGlyphs" textLength="67" x="642.5" y="53.02">
    Mojaloop
  </text>
  <path fill="#FFF" filter="url(#a)" stroke="#fff" d="M24 105.383h10v67.133H24z"/>
  <path stroke="#a80036" d="M24 105.383v67.133M34 105.383v67.133M24 105.383h10"/>
  <path fill="#FFF" filter="url(#a)" stroke="#fff" d="M24 200.516h10v246.992H24z"/>
  <path stroke="#a80036" d="M24 200.516v246.992M34 200.516v246.992M24 447.508h10"/>
  <path fill="#FFF" filter="url(#a)" stroke="#a80036" d="M671 418.375h10V702.5h-10zM671 1104.422h10v323.258h-10zM1309 673.367h10v460.188h-10z"/>
  <path stroke="#a80036" d="M29 95.383v10"/>
  <path stroke="#a80036" stroke-dasharray="1,4" d="M29 105.383v28"/>
  <path stroke="#a80036" d="M29 133.383v39.133"/>
  <path stroke="#a80036" stroke-dasharray="1,4" d="M29 172.516v28"/>
  <path stroke="#a80036" d="M29 200.516v1284.297M675.5 95.383v10"/>
  <path stroke="#a80036" stroke-dasharray="1,4" d="M675.5 105.383v28"/>
  <path stroke="#a80036" d="M675.5 133.383v39.133"/>
  <path stroke="#a80036" stroke-dasharray="1,4" d="M675.5 172.516v28"/>
  <path stroke="#a80036" d="M675.5 200.516v1284.297M1313.5 95.383v10"/>
  <path stroke="#a80036" stroke-dasharray="1,4" d="M1313.5 105.383v28"/>
  <path stroke="#a80036" d="M1313.5 133.383v39.133"/>
  <path stroke="#a80036" stroke-dasharray="1,4" d="M1313.5 172.516v28"/>
  <path stroke="#a80036" d="M1313.5 200.516v1284.297M1622.5 95.383v10"/>
  <path stroke="#a80036" stroke-dasharray="1,4" d="M1622.5 105.383v28"/>
  <path stroke="#a80036" d="M1622.5 133.383v39.133"/>
  <path stroke="#a80036" stroke-dasharray="1,4" d="M1622.5 172.516v28"/>
  <path stroke="#a80036" d="M1622.5 200.516v1284.297"/>
  <path fill="#FEFECE" filter="url(#a)" stroke="#a80036" stroke-width="1.5" d="M5 60.086h44v30.297H5z"/>
  <text font-family="sans-serif" font-size="14" lengthAdjust="spacingAndGlyphs" textLength="30" x="12" y="80.081">
    PISP
  </text>
  <path fill="#FEFECE" filter="url(#a)" stroke="#a80036" stroke-width="1.5" d="M5 1483.813h44v30.297H5z"/>
  <text font-family="sans-serif" font-size="14" lengthAdjust="spacingAndGlyphs" textLength="30" x="12" y="1503.808">
    PISP
  </text>
  <path fill="#FEFECE" filter="url(#a)" stroke="#a80036" stroke-width="1.5" d="M644.5 60.086h59v30.297h-59z"/>
  <text font-family="sans-serif" font-size="14" lengthAdjust="spacingAndGlyphs" textLength="45" x="651.5" y="80.081">
    Switch
  </text>
  <path fill="#FEFECE" filter="url(#a)" stroke="#a80036" stroke-width="1.5" d="M644.5 1483.813h59v30.297h-59z"/>
  <text font-family="sans-serif" font-size="14" lengthAdjust="spacingAndGlyphs" textLength="45" x="651.5" y="1503.808">
    Switch
  </text>
  <path fill="#FEFECE" filter="url(#a)" stroke="#a80036" stroke-width="1.5" d="M1286.5 60.086h51v30.297h-51z"/>
  <text font-family="sans-serif" font-size="14" lengthAdjust="spacingAndGlyphs" textLength="37" x="1293.5" y="80.081">
    DFSP
  </text>
  <path fill="#FEFECE" filter="url(#a)" stroke="#a80036" stroke-width="1.5" d="M1286.5 1483.813h51v30.297h-51z"/>
  <text font-family="sans-serif" font-size="14" lengthAdjust="spacingAndGlyphs" textLength="37" x="1293.5" y="1503.808">
    DFSP
  </text>
  <path fill="#FEFECE" filter="url(#a)" stroke="#a80036" stroke-width="1.5" d="M1530.5 60.086h181v30.297h-181z"/>
  <text font-family="sans-serif" font-size="14" lengthAdjust="spacingAndGlyphs" textLength="167" x="1537.5" y="80.081">
    DFSPAuthorizeSimulator
  </text>
  <path fill="#FEFECE" filter="url(#a)" stroke="#a80036" stroke-width="1.5" d="M1530.5 1483.813h181v30.297h-181z"/>
  <text font-family="sans-serif" font-size="14" lengthAdjust="spacingAndGlyphs" textLength="167" x="1537.5" y="1503.808">
    DFSPAuthorizeSimulator
  </text>
  <path fill="#FFF" filter="url(#a)" stroke="#fff" d="M24 105.383h10v67.133H24z"/>
  <path stroke="#a80036" d="M24 105.383v67.133M34 105.383v67.133M24 105.383h10"/>
  <path fill="#FFF" filter="url(#a)" stroke="#fff" d="M24 200.516h10v246.992H24z"/>
  <path stroke="#a80036" d="M24 200.516v246.992M34 200.516v246.992M24 447.508h10"/>
  <path fill="#FFF" filter="url(#a)" stroke="#a80036" d="M671 418.375h10V702.5h-10zM671 1104.422h10v323.258h-10zM1309 673.367h10v460.188h-10z"/>
  <path d="M5 138.383v25h1331v-15l-10-10H5" fill="#FBFB77" filter="url(#a)" stroke="#a80036"/>
  <path d="M1326 138.383v10h10l-10-10" fill="#FBFB77" stroke="#a80036"/>
  <text font-family="sans-serif" font-size="13" lengthAdjust="spacingAndGlyphs" textLength="783" x="272.75" y="155.45">
    The user initiated some sort of account linking by choosing the appropriate DFSP from a screen inside the PISP application.
  </text>
  <path fill="#A80036" stroke="#a80036" d="M659 414.375l10 4-10 4 4-4z"/>
  <path stroke="#a80036" d="M34 418.375h631"/>
  <text font-family="sans-serif" font-size="13" font-weight="bold" lengthAdjust="spacingAndGlyphs" textLength="44" x="41" y="314.946">
    REQ-1
  </text>
  <text font-family="monospace" font-size="13" lengthAdjust="spacingAndGlyphs" textLength="168" x="89" y="216.583">
    POST /consentRequests
  </text>
  <text font-family="monospace" font-size="13" lengthAdjust="spacingAndGlyphs" textLength="152" x="113" y="231.715">
    FSIOP-Source: pispa
  </text>
  <text font-family="monospace" font-size="13" lengthAdjust="spacingAndGlyphs" textLength="192" x="113" y="246.848">
    FSIOP-Destination: dfspa
  </text>
  <text font-family="monospace" font-size="13" lengthAdjust="spacingAndGlyphs" textLength="8" x="89" y="261.981">
    {
  </text>
  <text font-family="monospace" font-size="13" lengthAdjust="spacingAndGlyphs" textLength="192" x="113" y="277.114">
    consentRequestId: &quot;456&quot;,
  </text>
  <text font-family="monospace" font-size="13" lengthAdjust="spacingAndGlyphs" textLength="72" x="113" y="292.247">
    scopes: [
  </text>
  <text font-family="monospace" font-size="13" lengthAdjust="spacingAndGlyphs" textLength="8" x="129" y="307.379">
    {
  </text>
  <text font-family="monospace" font-size="13" font-weight="bold" lengthAdjust="spacingAndGlyphs" textLength="424" x="145" y="307.379">
    accountId: &quot;dfsp.username.1234&quot;, // Required for OTP!
  </text>
  <text font-family="monospace" font-size="13" lengthAdjust="spacingAndGlyphs" textLength="464" x="145" y="322.512">
    actions: [ &quot;accounts.transfer&quot;, &quot;accounts.getBalance&quot; ] },
  </text>
  <text font-family="monospace" font-size="13" lengthAdjust="spacingAndGlyphs" textLength="272" x="129" y="337.645">
    { accountId: &quot;dfsp.username.5678&quot;,
  </text>
  <text font-family="monospace" font-size="13" lengthAdjust="spacingAndGlyphs" textLength="464" x="145" y="352.778">
    actions: [ &quot;accounts.transfer&quot;, &quot;accounts.getBalance&quot; ] },
  </text>
  <text font-family="monospace" font-size="13" lengthAdjust="spacingAndGlyphs" textLength="16" x="113" y="367.911">
    ],
  </text>
  <text font-family="monospace" font-size="13" lengthAdjust="spacingAndGlyphs" textLength="248" x="113" y="383.043">
    authChannels: [ &quot;Web&quot;, &quot;OTP&quot; ],
  </text>
  <text font-family="monospace" font-size="13" lengthAdjust="spacingAndGlyphs" textLength="288" x="113" y="398.176">
    callbackUri: &quot;pisp-app://callback...
  </text>
  <text font-family="sans-serif" font-size="13" lengthAdjust="spacingAndGlyphs" textLength="5" x="401" y="398.176">
    &quot;
  </text>
  <text font-family="monospace" font-size="13" lengthAdjust="spacingAndGlyphs" textLength="8" x="97" y="413.309">
    }
  </text>
  <path fill="#A80036" stroke="#a80036" d="M40 443.508l-10 4 10 4-4-4z"/>
  <path stroke="#a80036" stroke-dasharray="2,2" d="M34 447.508h636"/>
  <text font-family="sans-serif" font-size="13" font-weight="bold" lengthAdjust="spacingAndGlyphs" textLength="44" x="46" y="442.442">
    REQ-2
  </text>
  <text font-family="monospace" font-size="13" lengthAdjust="spacingAndGlyphs" textLength="96" x="94" y="442.442">
    202 Accepted
  </text>
  <path fill="#A80036" stroke="#a80036" d="M1297 669.367l10 4-10 4 4-4z"/>
  <path stroke="#a80036" d="M681 673.367h622"/>
  <text font-family="sans-serif" font-size="13" font-weight="bold" lengthAdjust="spacingAndGlyphs" textLength="44" x="688" y="569.938">
    REQ-3
  </text>
  <text font-family="monospace" font-size="13" lengthAdjust="spacingAndGlyphs" textLength="168" x="736" y="471.575">
    POST /consentRequests
  </text>
  <text font-family="monospace" font-size="13" lengthAdjust="spacingAndGlyphs" textLength="152" x="760" y="486.707">
    FSIOP-Source: pispa
  </text>
  <text font-family="monospace" font-size="13" lengthAdjust="spacingAndGlyphs" textLength="192" x="760" y="501.84">
    FSIOP-Destination: dfspa
  </text>
  <text font-family="monospace" font-size="13" lengthAdjust="spacingAndGlyphs" textLength="8" x="736" y="516.973">
    {
  </text>
  <text font-family="monospace" font-size="13" lengthAdjust="spacingAndGlyphs" textLength="192" x="760" y="532.106">
    consentRequestId: &quot;456&quot;,
  </text>
  <text font-family="monospace" font-size="13" lengthAdjust="spacingAndGlyphs" textLength="72" x="760" y="547.239">
    scopes: [
  </text>
  <text font-family="monospace" font-size="13" lengthAdjust="spacingAndGlyphs" textLength="8" x="776" y="562.372">
    {
  </text>
  <text font-family="monospace" font-size="13" font-weight="bold" lengthAdjust="spacingAndGlyphs" textLength="424" x="792" y="562.372">
    accountId: &quot;dfsp.username.1234&quot;, // Required for OTP!
  </text>
  <text font-family="monospace" font-size="13" lengthAdjust="spacingAndGlyphs" textLength="464" x="792" y="577.504">
    actions: [ &quot;accounts.transfer&quot;, &quot;accounts.getBalance&quot; ] },
  </text>
  <text font-family="monospace" font-size="13" lengthAdjust="spacingAndGlyphs" textLength="272" x="776" y="592.637">
    { accountId: &quot;dfsp.username.5678&quot;,
  </text>
  <text font-family="monospace" font-size="13" lengthAdjust="spacingAndGlyphs" textLength="464" x="792" y="607.77">
    actions: [ &quot;accounts.transfer&quot;, &quot;accounts.getBalance&quot; ] },
  </text>
  <text font-family="monospace" font-size="13" lengthAdjust="spacingAndGlyphs" textLength="16" x="760" y="622.903">
    ],
  </text>
  <text font-family="monospace" font-size="13" lengthAdjust="spacingAndGlyphs" textLength="248" x="760" y="638.036">
    authChannels: [ &quot;Web&quot;, &quot;OTP&quot; ],
  </text>
  <text font-family="monospace" font-size="13" lengthAdjust="spacingAndGlyphs" textLength="288" x="760" y="653.168">
    callbackUri: &quot;pisp-app://callback...
  </text>
  <text font-family="sans-serif" font-size="13" lengthAdjust="spacingAndGlyphs" textLength="5" x="1048" y="653.168">
    &quot;
  </text>
  <text font-family="monospace" font-size="13" lengthAdjust="spacingAndGlyphs" textLength="8" x="744" y="668.301">
    }
  </text>
  <path fill="#A80036" stroke="#a80036" d="M687 698.5l-10 4 10 4-4-4z"/>
  <path stroke="#a80036" stroke-dasharray="2,2" d="M681 702.5h627"/>
  <text font-family="sans-serif" font-size="13" font-weight="bold" lengthAdjust="spacingAndGlyphs" textLength="44" x="693" y="697.434">
    REQ-4
  </text>
  <text font-family="monospace" font-size="13" lengthAdjust="spacingAndGlyphs" textLength="96" x="741" y="697.434">
    202 Accepted
  </text>
  <path fill="#A80036" stroke="#a80036" d="M1611 803.297l10 4-10 4 4-4z"/>
  <path stroke="#a80036" d="M1319 807.297h298"/>
  <text font-family="sans-serif" font-size="13" font-weight="bold" lengthAdjust="spacingAndGlyphs" textLength="44" x="1326" y="764.399">
    REQ-5
  </text>
  <text font-family="monospace" font-size="13" lengthAdjust="spacingAndGlyphs" textLength="104" x="1374" y="726.567">
    POST /sendOTP
  </text>
  <text font-family="monospace" font-size="13" lengthAdjust="spacingAndGlyphs" textLength="8" x="1382" y="741.7">
    {
  </text>
  <text font-family="monospace" font-size="13" lengthAdjust="spacingAndGlyphs" textLength="192" x="1398" y="756.832">
    consentRequestId: &quot;456&quot;,
  </text>
  <text font-family="monospace" font-size="13" lengthAdjust="spacingAndGlyphs" textLength="200" x="1398" y="771.965">
    username:&quot;username.1234&quot;,
  </text>
  <text font-family="monospace" font-size="13" lengthAdjust="spacingAndGlyphs" textLength="120" x="1398" y="787.098">
    message: &quot;0987&quot;
  </text>
  <text font-family="monospace" font-size="13" lengthAdjust="spacingAndGlyphs" textLength="8" x="1382" y="802.231">
    }
  </text>
  <path stroke="#a80036" d="M1623 836.43h42M1665 836.43v13M1624 849.43h41"/>
  <path fill="#A80036" stroke="#a80036" d="M1634 845.43l-10 4 10 4-4-4z"/>
  <text font-family="sans-serif" font-size="13" font-weight="bold" lengthAdjust="spacingAndGlyphs" textLength="44" x="1630" y="831.364">
    REQ-6
  </text>
  <text font-family="sans-serif" font-size="13" lengthAdjust="spacingAndGlyphs" textLength="91" x="1678" y="831.364">
    take action on
  </text>
  <text font-family="sans-serif" font-size="13" font-weight="bold" lengthAdjust="spacingAndGlyphs" textLength="225" x="1773" y="831.364">
    TTK defined rule for username
  </text>
  <path fill="#A80036" stroke="#a80036" d="M1330 874.563l-10 4 10 4-4-4z"/>
  <path stroke="#a80036" d="M1324 878.563h298"/>
  <text font-family="sans-serif" font-size="13" font-weight="bold" lengthAdjust="spacingAndGlyphs" textLength="44" x="1336" y="873.497">
    REQ-7
  </text>
  <text font-family="sans-serif" font-size="13" lengthAdjust="spacingAndGlyphs" textLength="46" x="1384" y="873.497">
    201 OK
  </text>
  <path fill="#A80036" stroke="#a80036" d="M692 1100.422l-10 4 10 4-4-4z"/>
  <path stroke="#a80036" d="M686 1104.422h622"/>
  <text font-family="sans-serif" font-size="13" font-weight="bold" lengthAdjust="spacingAndGlyphs" textLength="44" x="698" y="1000.993">
    REQ-8
  </text>
  <text font-family="monospace" font-size="13" lengthAdjust="spacingAndGlyphs" textLength="192" x="746" y="902.629">
    PUT /consentRequests/456
  </text>
  <text font-family="monospace" font-size="13" lengthAdjust="spacingAndGlyphs" textLength="152" x="770" y="917.762">
    FSIOP-Source: dfspa
  </text>
  <text font-family="monospace" font-size="13" lengthAdjust="spacingAndGlyphs" textLength="192" x="770" y="932.895">
    FSIOP-Destination: pispa
  </text>
  <text font-family="monospace" font-size="13" lengthAdjust="spacingAndGlyphs" textLength="8" x="754" y="948.028">
    {
  </text>
  <text font-family="monospace" font-size="13" font-weight="bold" lengthAdjust="spacingAndGlyphs" textLength="536" x="770" y="963.161">
    authChannels: [ &quot;OTP&quot; ], // This is updated with the channel in use
  </text>
  <text font-family="monospace" font-size="13" lengthAdjust="spacingAndGlyphs" textLength="72" x="770" y="978.293">
    scopes: [
  </text>
  <text font-family="monospace" font-size="13" lengthAdjust="spacingAndGlyphs" textLength="272" x="786" y="993.426">
    { accountId: &quot;dfsp.username.1234&quot;,
  </text>
  <text font-family="monospace" font-size="13" lengthAdjust="spacingAndGlyphs" textLength="464" x="802" y="1008.559">
    actions: [ &quot;accounts.transfer&quot;, &quot;accounts.getBalance&quot; ] },
  </text>
  <text font-family="monospace" font-size="13" lengthAdjust="spacingAndGlyphs" textLength="272" x="786" y="1023.692">
    { accountId: &quot;dfsp.username.5678&quot;,
  </text>
  <text font-family="monospace" font-size="13" lengthAdjust="spacingAndGlyphs" textLength="464" x="802" y="1038.825">
    actions: [ &quot;accounts.transfer&quot;, &quot;accounts.getBalance&quot; ] },
  </text>
  <text font-family="monospace" font-size="13" lengthAdjust="spacingAndGlyphs" textLength="16" x="770" y="1053.957">
    ],
  </text>
  <text font-family="monospace" font-size="13" lengthAdjust="spacingAndGlyphs" textLength="288" x="770" y="1069.09">
    callbackUri: &quot;pisp-app://callback...
  </text>
  <text font-family="sans-serif" font-size="13" lengthAdjust="spacingAndGlyphs" textLength="5" x="1058" y="1069.09">
    &quot;
  </text>
  <text font-family="monospace" font-size="13" font-weight="bold" lengthAdjust="spacingAndGlyphs" textLength="248" x="770" y="1084.223">
    //note: no authUri for OTP flow
  </text>
  <text font-family="monospace" font-size="13" lengthAdjust="spacingAndGlyphs" textLength="8" x="754" y="1099.356">
    }
  </text>
  <path fill="#A80036" stroke="#a80036" d="M1302 1129.555l10 4-10 4 4-4z"/>
  <path stroke="#a80036" stroke-dasharray="2,2" d="M681 1133.555h627"/>
  <text font-family="sans-serif" font-size="13" font-weight="bold" lengthAdjust="spacingAndGlyphs" textLength="44" x="688" y="1128.489">
    REQ-9
  </text>
  <text font-family="monospace" font-size="13" lengthAdjust="spacingAndGlyphs" textLength="96" x="736" y="1128.489">
    202 Accepted
  </text>
  <path d="M5 1146.555v25h1331v-15l-10-10H5" fill="#FBFB77" filter="url(#a)" stroke="#a80036"/>
  <path d="M1326 1146.555v10h10l-10-10" fill="#FBFB77" stroke="#a80036"/>
  <text font-family="sans-serif" font-size="13" lengthAdjust="spacingAndGlyphs" textLength="414" x="457.25" y="1163.622">
    Here, the DFSP sends an OTP directly to the user (e.g., via SMS).
  </text>
  <path fill="#A80036" stroke="#a80036" d="M40 1394.547l-10 4 10 4-4-4z"/>
  <path stroke="#a80036" d="M34 1398.547h636"/>
  <text font-family="sans-serif" font-size="13" font-weight="bold" lengthAdjust="spacingAndGlyphs" textLength="53" x="46" y="1295.118">
    REQ-10
  </text>
  <text font-family="monospace" font-size="13" lengthAdjust="spacingAndGlyphs" textLength="192" x="103" y="1196.754">
    PUT /consentRequests/456
  </text>
  <text font-family="monospace" font-size="13" lengthAdjust="spacingAndGlyphs" textLength="152" x="127" y="1211.887">
    FSIOP-Source: dfspa
  </text>
  <text font-family="monospace" font-size="13" lengthAdjust="spacingAndGlyphs" textLength="192" x="127" y="1227.02">
    FSIOP-Destination: pispa
  </text>
  <text font-family="monospace" font-size="13" lengthAdjust="spacingAndGlyphs" textLength="8" x="103" y="1242.153">
    {
  </text>
  <text font-family="monospace" font-size="13" font-weight="bold" lengthAdjust="spacingAndGlyphs" textLength="536" x="127" y="1257.286">
    authChannels: [ &quot;OTP&quot; ], // This is updated with the channel in use
  </text>
  <text font-family="monospace" font-size="13" lengthAdjust="spacingAndGlyphs" textLength="72" x="127" y="1272.418">
    scopes: [
  </text>
  <text font-family="monospace" font-size="13" lengthAdjust="spacingAndGlyphs" textLength="272" x="143" y="1287.551">
    { accountId: &quot;dfsp.username.1234&quot;,
  </text>
  <text font-family="monospace" font-size="13" lengthAdjust="spacingAndGlyphs" textLength="464" x="159" y="1302.684">
    actions: [ &quot;accounts.transfer&quot;, &quot;accounts.getBalance&quot; ] },
  </text>
  <text font-family="monospace" font-size="13" lengthAdjust="spacingAndGlyphs" textLength="272" x="143" y="1317.817">
    { accountId: &quot;dfsp.username.5678&quot;,
  </text>
  <text font-family="monospace" font-size="13" lengthAdjust="spacingAndGlyphs" textLength="464" x="159" y="1332.95">
    actions: [ &quot;accounts.transfer&quot;, &quot;accounts.getBalance&quot; ] },
  </text>
  <text font-family="monospace" font-size="13" lengthAdjust="spacingAndGlyphs" textLength="16" x="127" y="1348.082">
    ],
  </text>
  <text font-family="monospace" font-size="13" lengthAdjust="spacingAndGlyphs" textLength="288" x="127" y="1363.215">
    callbackUri: &quot;pisp-app://callback...
  </text>
  <text font-family="sans-serif" font-size="13" lengthAdjust="spacingAndGlyphs" textLength="5" x="415" y="1363.215">
    &quot;
  </text>
  <text font-family="monospace" font-size="13" font-weight="bold" lengthAdjust="spacingAndGlyphs" textLength="248" x="127" y="1378.348">
    //note: no authUri for OTP flow
  </text>
  <text font-family="monospace" font-size="13" lengthAdjust="spacingAndGlyphs" textLength="8" x="111" y="1393.481">
    }
  </text>
  <path fill="#A80036" stroke="#a80036" d="M664 1423.68l10 4-10 4 4-4z"/>
  <path stroke="#a80036" stroke-dasharray="2,2" d="M29 1427.68h641"/>
  <text font-family="sans-serif" font-size="13" font-weight="bold" lengthAdjust="spacingAndGlyphs" textLength="53" x="36" y="1422.614">
    REQ-11
  </text>
  <text font-family="monospace" font-size="13" lengthAdjust="spacingAndGlyphs" textLength="96" x="93" y="1422.614">
    202 Accepted
  </text>
  <path d="M5 1440.68v25h1331v-15l-10-10H5" fill="#FBFB77" filter="url(#a)" stroke="#a80036"/>
  <path d="M1326 1440.68v10h10l-10-10" fill="#FBFB77" stroke="#a80036"/>
  <text font-family="sans-serif" font-size="13" lengthAdjust="spacingAndGlyphs" textLength="800" x="264.25" y="1457.747">
    At this point, the PISP knows that the OTP authChannel is in use and the PISP App should prompt the user to provide the OTP.
  </text>
</svg>
