<svg xmlns="http://www.w3.org/2000/svg" height="906" preserveAspectRatio="none" style="width:1487px;height:906px" width="1487">
  <defs>
    <filter height="300%" id="a" width="300%" x="-1" y="-1">
      <feGaussianBlur result="blurOut" stdDeviation="2"/>
      <feColorMatrix in="blurOut" result="blurOut2" values="0 0 0 0 0 0 0 0 0 0 0 0 0 0 0 0 0 0 .4 0"/>
      <feOffset dx="4" dy="4" in="blurOut2" result="blurOut3"/>
      <feBlend in="SourceGraphic" in2="blurOut3"/>
    </filter>
  </defs>
  <text font-family="sans-serif" font-size="18" lengthAdjust="spacingAndGlyphs" textLength="305" x="593.5" y="28.708">
    PISP Linking: Authentication (OTP)
  </text>
  <path fill="#DDD" stroke="#a80036" d="M602.5 40.953h73v859.641h-73z"/>
  <text font-family="sans-serif" font-size="13" font-weight="bold" lengthAdjust="spacingAndGlyphs" textLength="67" x="605.5" y="53.02">
    Mojaloop
  </text>
  <path fill="#FFF" filter="url(#a)" stroke="#a80036" d="M634 433.508h10v299.258h-10zM1249 703.633h10v149.664h-10z"/>
  <path stroke="#a80036" d="M29 95.383v10"/>
  <path stroke="#a80036" stroke-dasharray="1,4" d="M29 105.383v28"/>
  <path stroke="#a80036" d="M29 133.383v39.133"/>
  <path stroke="#a80036" stroke-dasharray="1,4" d="M29 172.516v28"/>
  <path stroke="#a80036" d="M29 200.516v661.781M638.5 95.383v10"/>
  <path stroke="#a80036" stroke-dasharray="1,4" d="M638.5 105.383v28"/>
  <path stroke="#a80036" d="M638.5 133.383v39.133"/>
  <path stroke="#a80036" stroke-dasharray="1,4" d="M638.5 172.516v28"/>
  <path stroke="#a80036" d="M638.5 200.516v661.781M1253.5 95.383v10"/>
  <path stroke="#a80036" stroke-dasharray="1,4" d="M1253.5 105.383v28"/>
  <path stroke="#a80036" d="M1253.5 133.383v39.133"/>
  <path stroke="#a80036" stroke-dasharray="1,4" d="M1253.5 172.516v28"/>
  <path stroke="#a80036" d="M1253.5 200.516v661.781"/>
  <path fill="#FEFECE" filter="url(#a)" stroke="#a80036" stroke-width="1.5" d="M5 60.086h44v30.297H5z"/>
  <text font-family="sans-serif" font-size="14" lengthAdjust="spacingAndGlyphs" textLength="30" x="12" y="80.081">
    PISP
  </text>
  <path fill="#FEFECE" filter="url(#a)" stroke="#a80036" stroke-width="1.5" d="M5 861.297h44v30.297H5z"/>
  <text font-family="sans-serif" font-size="14" lengthAdjust="spacingAndGlyphs" textLength="30" x="12" y="881.292">
    PISP
  </text>
  <path fill="#FEFECE" filter="url(#a)" stroke="#a80036" stroke-width="1.5" d="M607.5 60.086h59v30.297h-59z"/>
  <text font-family="sans-serif" font-size="14" lengthAdjust="spacingAndGlyphs" textLength="45" x="614.5" y="80.081">
    Switch
  </text>
  <path fill="#FEFECE" filter="url(#a)" stroke="#a80036" stroke-width="1.5" d="M607.5 861.297h59v30.297h-59z"/>
  <text font-family="sans-serif" font-size="14" lengthAdjust="spacingAndGlyphs" textLength="45" x="614.5" y="881.292">
    Switch
  </text>
  <path fill="#FEFECE" filter="url(#a)" stroke="#a80036" stroke-width="1.5" d="M1226.5 60.086h51v30.297h-51z"/>
  <text font-family="sans-serif" font-size="14" lengthAdjust="spacingAndGlyphs" textLength="37" x="1233.5" y="80.081">
    DFSP
  </text>
  <path fill="#FEFECE" filter="url(#a)" stroke="#a80036" stroke-width="1.5" d="M1226.5 861.297h51v30.297h-51z"/>
  <text font-family="sans-serif" font-size="14" lengthAdjust="spacingAndGlyphs" textLength="37" x="1233.5" y="881.292">
    DFSP
  </text>
  <path fill="#FFF" filter="url(#a)" stroke="#a80036" d="M634 433.508h10v299.258h-10zM1249 703.633h10v149.664h-10z"/>
  <path d="M5 138.383v25h1271v-15l-10-10H5" fill="#FBFB77" filter="url(#a)" stroke="#a80036"/>
  <path d="M1266 138.383v10h10l-10-10" fill="#FBFB77" stroke="#a80036"/>
  <text font-family="sans-serif" font-size="13" lengthAdjust="spacingAndGlyphs" textLength="1041" x="113.75" y="155.45">
    Here the user provides the OTP sent directly to them by the DFSP into the PISP App. It&apos;s then used as the secret to prove to the DFSP that the user trusts the PISP.
  </text>
  <path fill="#A80036" stroke="#a80036" d="M622 429.508l10 4-10 4 4-4z"/>
  <path stroke="#a80036" d="M29 433.508h599"/>
  <text font-family="sans-serif" font-size="13" font-weight="bold" lengthAdjust="spacingAndGlyphs" textLength="53" x="36" y="322.512">
    AUTH-1
  </text>
  <text font-family="monospace" font-size="13" lengthAdjust="spacingAndGlyphs" textLength="192" x="93" y="216.583">
    PUT /consentRequests/456
  </text>
  <text font-family="monospace" font-size="13" lengthAdjust="spacingAndGlyphs" textLength="152" x="125" y="231.715">
    FSIOP-Source: pispa
  </text>
  <text font-family="monospace" font-size="13" lengthAdjust="spacingAndGlyphs" textLength="192" x="125" y="246.848">
    FSIOP-Destination: dfspa
  </text>
  <text font-family="monospace" font-size="13" lengthAdjust="spacingAndGlyphs" textLength="8" x="101" y="261.981">
    {
  </text>
  <text font-family="monospace" font-size="13" lengthAdjust="spacingAndGlyphs" textLength="192" x="125" y="277.114">
    authChannels: [ &quot;OTP&quot; ],
  </text>
  <text font-family="monospace" font-size="13" lengthAdjust="spacingAndGlyphs" textLength="72" x="125" y="292.247">
    scopes: [
  </text>
  <text font-family="monospace" font-size="13" lengthAdjust="spacingAndGlyphs" textLength="272" x="141" y="307.379">
    { accountId: &quot;dfsp.username.1234&quot;,
  </text>
  <text font-family="monospace" font-size="13" lengthAdjust="spacingAndGlyphs" textLength="464" x="157" y="322.512">
    actions: [ &quot;accounts.transfer&quot;, &quot;accounts.getBalance&quot; ] },
  </text>
  <text font-family="monospace" font-size="13" lengthAdjust="spacingAndGlyphs" textLength="272" x="141" y="337.645">
    { accountId: &quot;dfsp.username.5678&quot;,
  </text>
  <text font-family="monospace" font-size="13" lengthAdjust="spacingAndGlyphs" textLength="464" x="157" y="352.778">
    actions: [ &quot;accounts.transfer&quot;, &quot;accounts.getBalance&quot; ] },
  </text>
  <text font-family="monospace" font-size="13" lengthAdjust="spacingAndGlyphs" textLength="16" x="125" y="367.911">
    ],
  </text>
  <text font-family="monospace" font-size="13" lengthAdjust="spacingAndGlyphs" textLength="288" x="125" y="383.043">
    callbackUri: &quot;pisp-app://callback...
  </text>
  <text font-family="sans-serif" font-size="13" lengthAdjust="spacingAndGlyphs" textLength="5" x="413" y="383.043">
    &quot;
  </text>
  <text font-family="monospace" font-size="13" lengthAdjust="spacingAndGlyphs" textLength="416" x="125" y="398.176">
    authUri: &quot;dfspa.com/authorize?consentRequestId=456&quot;,
  </text>
  <text font-family="monospace" font-size="13" font-weight="bold" lengthAdjust="spacingAndGlyphs" textLength="280" x="125" y="413.309">
    authToken: &quot;&lt;OTP&gt;&quot; // This is new !
  </text>
  <text font-family="monospace" font-size="13" lengthAdjust="spacingAndGlyphs" textLength="8" x="109" y="428.442">
    }
  </text>
  <path fill="#A80036" stroke="#a80036" d="M40 458.64l-10 4 10 4-4-4z"/>
  <path stroke="#a80036" stroke-dasharray="2,2" d="M34 462.641h599"/>
  <text font-family="sans-serif" font-size="13" font-weight="bold" lengthAdjust="spacingAndGlyphs" textLength="53" x="46" y="457.575">
    AUTH-2
  </text>
  <text font-family="monospace" font-size="13" lengthAdjust="spacingAndGlyphs" textLength="96" x="103" y="457.575">
    202 Accepted
  </text>
  <path fill="#A80036" stroke="#a80036" d="M1237 699.633l10 4-10 4 4-4z"/>
  <path stroke="#a80036" d="M644 703.633h599"/>
  <text font-family="sans-serif" font-size="13" font-weight="bold" lengthAdjust="spacingAndGlyphs" textLength="53" x="651" y="592.637">
    AUTH-3
  </text>
  <text font-family="monospace" font-size="13" lengthAdjust="spacingAndGlyphs" textLength="192" x="708" y="486.707">
    PUT /consentRequests/456
  </text>
  <text font-family="monospace" font-size="13" lengthAdjust="spacingAndGlyphs" textLength="152" x="740" y="501.84">
    FSIOP-Source: pispa
  </text>
  <text font-family="monospace" font-size="13" lengthAdjust="spacingAndGlyphs" textLength="192" x="740" y="516.973">
    FSIOP-Destination: dfspa
  </text>
  <text font-family="monospace" font-size="13" lengthAdjust="spacingAndGlyphs" textLength="8" x="716" y="532.106">
    {
  </text>
  <text font-family="monospace" font-size="13" lengthAdjust="spacingAndGlyphs" textLength="192" x="740" y="547.239">
    authChannels: [ &quot;OTP&quot; ],
  </text>
  <text font-family="monospace" font-size="13" lengthAdjust="spacingAndGlyphs" textLength="72" x="740" y="562.372">
    scopes: [
  </text>
  <text font-family="monospace" font-size="13" lengthAdjust="spacingAndGlyphs" textLength="272" x="756" y="577.504">
    { accountId: &quot;dfsp.username.1234&quot;,
  </text>
  <text font-family="monospace" font-size="13" lengthAdjust="spacingAndGlyphs" textLength="464" x="772" y="592.637">
    actions: [ &quot;accounts.transfer&quot;, &quot;accounts.getBalance&quot; ] },
  </text>
  <text font-family="monospace" font-size="13" lengthAdjust="spacingAndGlyphs" textLength="272" x="756" y="607.77">
    { accountId: &quot;dfsp.username.5678&quot;,
  </text>
  <text font-family="monospace" font-size="13" lengthAdjust="spacingAndGlyphs" textLength="464" x="772" y="622.903">
    actions: [ &quot;accounts.transfer&quot;, &quot;accounts.getBalance&quot; ] },
  </text>
  <text font-family="monospace" font-size="13" lengthAdjust="spacingAndGlyphs" textLength="16" x="740" y="638.036">
    ],
  </text>
  <text font-family="monospace" font-size="13" lengthAdjust="spacingAndGlyphs" textLength="288" x="740" y="653.168">
    callbackUri: &quot;pisp-app://callback...
  </text>
  <text font-family="sans-serif" font-size="13" lengthAdjust="spacingAndGlyphs" textLength="5" x="1028" y="653.168">
    &quot;
  </text>
  <text font-family="monospace" font-size="13" lengthAdjust="spacingAndGlyphs" textLength="416" x="740" y="668.301">
    authUri: &quot;dfspa.com/authorize?consentRequestId=456&quot;,
  </text>
  <text font-family="monospace" font-size="13" font-weight="bold" lengthAdjust="spacingAndGlyphs" textLength="280" x="740" y="683.434">
    authToken: &quot;&lt;OTP&gt;&quot; // This is new !
  </text>
  <text font-family="monospace" font-size="13" lengthAdjust="spacingAndGlyphs" textLength="8" x="724" y="698.567">
    }
  </text>
  <path fill="#A80036" stroke="#a80036" d="M650 728.766l-10 4 10 4-4-4z"/>
  <path stroke="#a80036" stroke-dasharray="2,2" d="M644 732.766h604"/>
  <text font-family="sans-serif" font-size="13" font-weight="bold" lengthAdjust="spacingAndGlyphs" textLength="53" x="656" y="727.7">
    AUTH-4
  </text>
  <text font-family="monospace" font-size="13" lengthAdjust="spacingAndGlyphs" textLength="96" x="713" y="727.7">
    202 Accepted
  </text>
  <path stroke="#a80036" d="M1259 761.898h42M1301 761.898v13M1260 774.898h41"/>
  <path fill="#A80036" stroke="#a80036" d="M1270 770.898l-10 4 10 4-4-4z"/>
  <text font-family="sans-serif" font-size="13" font-weight="bold" lengthAdjust="spacingAndGlyphs" textLength="53" x="1266" y="756.832">
    AUTH-5
  </text>
  <text font-family="sans-serif" font-size="13" lengthAdjust="spacingAndGlyphs" textLength="157" x="1323" y="756.832">
    Verify the OTP is correct.
  </text>
  <path d="M5 787.898v55h1271v-45l-10-10H5" fill="#FBFB77" filter="url(#a)" stroke="#a80036"/>
  <path d="M1266 787.898v10h10l-10-10" fill="#FBFB77" stroke="#a80036"/>
  <text font-family="sans-serif" font-size="13" lengthAdjust="spacingAndGlyphs" textLength="986" x="141.25" y="804.965">
    At this point, the DFSP believes that the User is their customer and that User trusts the PISP. This means that the DFSP can continue by granting consent.
  </text>
  <text font-family="sans-serif" font-size="13" lengthAdjust="spacingAndGlyphs" textLength="820" x="141.25" y="835.231">
    Note that the DFSP never &quot;responds&quot; to the Consent Request itself. Instead, it will create a Consent resource in the Grant phase.
  </text>
</svg>
