<svg xmlns="http://www.w3.org/2000/svg" height="591" preserveAspectRatio="none" style="width:1011px;height:591px" width="1011">
  <defs>
    <filter height="300%" id="a" width="300%" x="-1" y="-1">
      <feGaussianBlur result="blurOut" stdDeviation="2"/>
      <feColorMatrix in="blurOut" result="blurOut2" values="0 0 0 0 0 0 0 0 0 0 0 0 0 0 0 0 0 0 .4 0"/>
      <feOffset dx="4" dy="4" in="blurOut2" result="blurOut3"/>
      <feBlend in="SourceGraphic" in2="blurOut3"/>
    </filter>
  </defs>
  <path fill="#DDD" stroke="#a80036" d="M294.5 40.953H727v544.586H294.5z"/>
  <text font-family="sans-serif" font-size="13" font-weight="bold" lengthAdjust="spacingAndGlyphs" textLength="67" x="477.25" y="53.02">
    Mojaloop
  </text>
  <text font-family="sans-serif" font-size="18" lengthAdjust="spacingAndGlyphs" textLength="203" x="401.75" y="28.708">
    PISP Linking: Unlinking
  </text>
  <path stroke="#a80036" d="M29 95.383v8"/>
  <path stroke="#a80036" stroke-dasharray="1,4" d="M29 103.383v28"/>
  <path stroke="#a80036" d="M29 131.383v39.133"/>
  <path stroke="#a80036" stroke-dasharray="1,4" d="M29 170.516v28"/>
  <path stroke="#a80036" d="M29 198.516v345.726"/>
  <path fill="#FFF" filter="url(#a)" stroke="#fff" d="M24 103.383h10v67.133H24z"/>
  <path stroke="#a80036" d="M24 103.383v67.133M34 103.383v67.133M24 103.383h10"/>
  <path fill="#FFF" filter="url(#a)" stroke="#fff" d="M24 198.516h10v50.266H24z"/>
  <path stroke="#a80036" d="M24 198.516v50.265M34 198.516v50.265M24 248.781h10"/>
  <path fill="#FFF" filter="url(#a)" stroke="#a80036" d="M24 497.109h10v47.133H24z"/>
  <path stroke="#a80036" d="M330 95.383v8"/>
  <path stroke="#a80036" stroke-dasharray="1,4" d="M330 103.383v28"/>
  <path stroke="#a80036" d="M330 131.383v39.133"/>
  <path stroke="#a80036" stroke-dasharray="1,4" d="M330 170.516v28"/>
  <path stroke="#a80036" d="M330 198.516v345.726"/>
  <path fill="#FFF" filter="url(#a)" stroke="#a80036" d="M325 219.648h10v87.398h-10zM325 408.578h10v135.664h-10z"/>
  <path stroke="#a80036" d="M671 95.383v8"/>
  <path stroke="#a80036" stroke-dasharray="1,4" d="M671 103.383v28"/>
  <path stroke="#a80036" d="M671 131.383v39.133"/>
  <path stroke="#a80036" stroke-dasharray="1,4" d="M671 170.516v28"/>
  <path stroke="#a80036" d="M671 198.516v345.726"/>
  <path fill="#FFF" filter="url(#a)" stroke="#a80036" d="M666 277.914h10v159.797h-10z"/>
  <path stroke="#a80036" d="M974 95.383v8"/>
  <path stroke="#a80036" stroke-dasharray="1,4" d="M974 103.383v28"/>
  <path stroke="#a80036" d="M974 131.383v39.133"/>
  <path stroke="#a80036" stroke-dasharray="1,4" d="M974 170.516v28"/>
  <path stroke="#a80036" d="M974 198.516v345.726"/>
  <path fill="#FFF" filter="url(#a)" stroke="#a80036" d="M969 497.109h10v47.133h-10z"/>
  <path fill="#FEFECE" filter="url(#a)" stroke="#a80036" stroke-width="1.5" d="M5 60.086h44v30.297H5z"/>
  <text font-family="sans-serif" font-size="14" lengthAdjust="spacingAndGlyphs" textLength="30" x="12" y="80.081">
    PISP
  </text>
  <path fill="#FEFECE" filter="url(#a)" stroke="#a80036" stroke-width="1.5" d="M298.5 60.086h59v30.297h-59z"/>
  <text font-family="sans-serif" font-size="14" lengthAdjust="spacingAndGlyphs" textLength="45" x="305.5" y="80.081">
    Switch
  </text>
  <path fill="#FEFECE" filter="url(#a)" stroke="#a80036" stroke-width="1.5" d="M619 60.086h100v30.297H619z"/>
  <text font-family="sans-serif" font-size="14" lengthAdjust="spacingAndGlyphs" textLength="86" x="626" y="80.081">
    Auth Service
  </text>
  <path fill="#FEFECE" filter="url(#a)" stroke="#a80036" stroke-width="1.5" d="M946.5 60.086h51v30.297h-51z"/>
  <text font-family="sans-serif" font-size="14" lengthAdjust="spacingAndGlyphs" textLength="37" x="953.5" y="80.081">
    DFSP
  </text>
  <path fill="#FEFECE" filter="url(#a)" stroke="#a80036" stroke-width="1.5" d="M5 544.242h44v30.297H5z"/>
  <text font-family="sans-serif" font-size="14" lengthAdjust="spacingAndGlyphs" textLength="30" x="12" y="564.237">
    PISP
  </text>
  <path fill="#FEFECE" filter="url(#a)" stroke="#a80036" stroke-width="1.5" d="M298.5 544.242h59v30.297h-59z"/>
  <text font-family="sans-serif" font-size="14" lengthAdjust="spacingAndGlyphs" textLength="45" x="305.5" y="564.237">
    Switch
  </text>
  <path fill="#FEFECE" filter="url(#a)" stroke="#a80036" stroke-width="1.5" d="M619 544.242h100v30.297H619z"/>
  <text font-family="sans-serif" font-size="14" lengthAdjust="spacingAndGlyphs" textLength="86" x="626" y="564.237">
    Auth Service
  </text>
  <path fill="#FEFECE" filter="url(#a)" stroke="#a80036" stroke-width="1.5" d="M946.5 544.242h51v30.297h-51z"/>
  <text font-family="sans-serif" font-size="14" lengthAdjust="spacingAndGlyphs" textLength="37" x="953.5" y="564.237">
    DFSP
  </text>
  <path d="M8.25 136.383v25h986v-15l-10-10h-976" fill="#FBFB77" filter="url(#a)" stroke="#a80036"/>
  <path d="M984.25 136.383v10h10l-10-10" fill="#FBFB77" stroke="#a80036"/>
  <text font-family="sans-serif" font-size="13" lengthAdjust="spacingAndGlyphs" textLength="601" x="194.5" y="153.45">
    In this scenario the PISP is triggering the unlinking, however it could just as easily be the DFSP.
  </text>
  <path fill="#A80036" stroke="#a80036" d="M313 215.648l10 4-10 4 4-4z"/>
  <path stroke="#a80036" d="M34 219.648h285"/>
  <text font-family="sans-serif" font-size="13" font-weight="bold" lengthAdjust="spacingAndGlyphs" textLength="68" x="41" y="214.583">
    UNLINK-1
  </text>
  <text font-family="monospace" font-size="13" lengthAdjust="spacingAndGlyphs" textLength="200" x="113" y="214.583">
    POST /consents/123/revoke
  </text>
  <path fill="#A80036" stroke="#a80036" d="M45 244.781l-10 4 10 4-4-4z"/>
  <path stroke="#a80036" stroke-dasharray="2,2" d="M39 248.781h285"/>
  <text font-family="sans-serif" font-size="13" font-weight="bold" lengthAdjust="spacingAndGlyphs" textLength="68" x="51" y="243.715">
    UNLINK-2
  </text>
  <text font-family="monospace" font-size="13" lengthAdjust="spacingAndGlyphs" textLength="96" x="123" y="243.715">
    202 Accepted
  </text>
  <path fill="#A80036" stroke="#a80036" d="M654 273.914l10 4-10 4 4-4z"/>
  <path stroke="#a80036" d="M335 277.914h325"/>
  <text font-family="sans-serif" font-size="13" font-weight="bold" lengthAdjust="spacingAndGlyphs" textLength="68" x="342" y="272.848">
    UNLINK-3
  </text>
  <text font-family="monospace" font-size="13" lengthAdjust="spacingAndGlyphs" textLength="200" x="414" y="272.848">
    POST /consents/123/revoke
  </text>
  <path fill="#A80036" stroke="#a80036" d="M346 303.047l-10 4 10 4-4-4z"/>
  <path stroke="#a80036" stroke-dasharray="2,2" d="M340 307.047h325"/>
  <text font-family="sans-serif" font-size="13" font-weight="bold" lengthAdjust="spacingAndGlyphs" textLength="68" x="352" y="301.981">
    UNLINK-4
  </text>
  <text font-family="monospace" font-size="13" lengthAdjust="spacingAndGlyphs" textLength="96" x="424" y="301.981">
    202 Accepted
  </text>
  <path stroke="#a80036" d="M676 336.18h42M718 336.18v13M677 349.18h41"/>
  <path fill="#A80036" stroke="#a80036" d="M687 345.18l-10 4 10 4-4-4z"/>
  <text font-family="sans-serif" font-size="13" font-weight="bold" lengthAdjust="spacingAndGlyphs" textLength="68" x="683" y="331.114">
    UNLINK-5
  </text>
  <text font-family="sans-serif" font-size="13" lengthAdjust="spacingAndGlyphs" textLength="212" x="755" y="331.114">
    Delete the record of the consent.
  </text>
  <path fill="#A80036" stroke="#a80036" d="M346 404.578l-10 4 10 4-4-4z"/>
  <path stroke="#a80036" d="M340 408.578h325"/>
  <text font-family="sans-serif" font-size="13" font-weight="bold" lengthAdjust="spacingAndGlyphs" textLength="68" x="352" y="388.379">
    UNLINK-6
  </text>
  <text font-family="sans-serif" font-size="13" lengthAdjust="spacingAndGlyphs" textLength="147" x="424" y="373.247">
    &quot;&quot;PATCH /consents/123
  </text>
  <text font-family="sans-serif" font-size="13" lengthAdjust="spacingAndGlyphs" textLength="100" x="424" y="388.379">
    { status: string,
  </text>
  <text font-family="sans-serif" font-size="13" lengthAdjust="spacingAndGlyphs" textLength="227" x="432" y="403.512">
    revokedAt: string (of timestamp)}&quot;&quot;
  </text>
  <path fill="#A80036" stroke="#a80036" d="M654 433.71l10 4-10 4 4-4z"/>
  <path stroke="#a80036" stroke-dasharray="2,2" d="M335 437.711h325"/>
  <text font-family="sans-serif" font-size="13" font-weight="bold" lengthAdjust="spacingAndGlyphs" textLength="68" x="342" y="432.645">
    UNLINK-7
  </text>
  <text font-family="monospace" font-size="13" lengthAdjust="spacingAndGlyphs" textLength="48" x="414" y="432.645">
    200 OK
  </text>
  <path fill="#A80036" stroke="#a80036" d="M45 493.11l-10 4 10 4-4-4z"/>
  <path stroke="#a80036" d="M39 497.109h285"/>
  <text font-family="sans-serif" font-size="13" font-weight="bold" lengthAdjust="spacingAndGlyphs" textLength="68" x="51" y="476.911">
    UNLINK-8
  </text>
  <text font-family="sans-serif" font-size="13" lengthAdjust="spacingAndGlyphs" textLength="147" x="123" y="461.778">
    &quot;&quot;PATCH /consents/123
  </text>
  <text font-family="sans-serif" font-size="13" lengthAdjust="spacingAndGlyphs" textLength="100" x="123" y="476.911">
    { status: string,
  </text>
  <text font-family="sans-serif" font-size="13" lengthAdjust="spacingAndGlyphs" textLength="127" x="131" y="492.043">
    revokedAt: string}&quot;&quot;
  </text>
  <path fill="#A80036" stroke="#a80036" d="M957 493.11l10 4-10 4 4-4z"/>
  <path stroke="#a80036" d="M335 497.109h628"/>
  <text font-family="sans-serif" font-size="13" font-weight="bold" lengthAdjust="spacingAndGlyphs" textLength="68" x="342" y="476.911">
    UNLINK-9
  </text>
  <text font-family="sans-serif" font-size="13" lengthAdjust="spacingAndGlyphs" textLength="147" x="414" y="461.778">
    &quot;&quot;PATCH /consents/123
  </text>
  <text font-family="sans-serif" font-size="13" lengthAdjust="spacingAndGlyphs" textLength="100" x="414" y="476.911">
    { status: string,
  </text>
  <text font-family="sans-serif" font-size="13" lengthAdjust="spacingAndGlyphs" textLength="127" x="422" y="492.043">
    revokedAt: string}&quot;&quot;
  </text>
  <path fill="#A80036" stroke="#a80036" d="M313 522.242l10 4-10 4 4-4z"/>
  <path stroke="#a80036" stroke-dasharray="2,2" d="M34 526.242h285"/>
  <text font-family="sans-serif" font-size="13" font-weight="bold" lengthAdjust="spacingAndGlyphs" textLength="77" x="41" y="521.176">
    UNLINK-10
  </text>
  <text font-family="monospace" font-size="13" lengthAdjust="spacingAndGlyphs" textLength="48" x="122" y="521.176">
    200 OK
  </text>
  <path fill="#A80036" stroke="#a80036" d="M346 522.242l-10 4 10 4-4-4z"/>
  <path stroke="#a80036" stroke-dasharray="2,2" d="M340 526.242h628"/>
  <text font-family="sans-serif" font-size="13" font-weight="bold" lengthAdjust="spacingAndGlyphs" textLength="77" x="352" y="521.176">
    UNLINK-11
  </text>
  <text font-family="monospace" font-size="13" lengthAdjust="spacingAndGlyphs" textLength="48" x="433" y="521.176">
    200 OK
  </text>
</svg>
