<?xml version="1.0" encoding="UTF-8" standalone="no"?><svg xmlns="http://www.w3.org/2000/svg" xmlns:xlink="http://www.w3.org/1999/xlink" contentScriptType="application/ecmascript" contentStyleType="text/css" height="691px" preserveAspectRatio="none" style="width:395px;height:691px;" version="1.1" viewBox="0 0 395 691" width="395px" zoomAndPan="magnify"><defs><filter height="300%" id="f1quijm8mrvteb" width="300%" x="-1" y="-1"><feGaussianBlur result="blurOut" stdDeviation="2.0"/><feColorMatrix in="blurOut" result="blurOut2" type="matrix" values="0 0 0 0 0 0 0 0 0 0 0 0 0 0 0 0 0 0 .4 0"/><feOffset dx="4.0" dy="4.0" in="blurOut2" result="blurOut3"/><feBlend in="SourceGraphic" in2="blurOut3" mode="normal"/></filter></defs><g><ellipse cx="86" cy="18" fill="#000000" filter="url(#f1quijm8mrvteb)" rx="10" ry="10" style="stroke: none; stroke-width: 1.0;"/><rect fill="#FEFECE" filter="url(#f1quijm8mrvteb)" height="64.5898" rx="12.5" ry="12.5" style="stroke: #A80036; stroke-width: 1.5;" width="160" x="6" y="105"/><line style="stroke: #A80036; stroke-width: 1.5;" x1="6" x2="166" y1="131.4883" y2="131.4883"/><text fill="#000000" font-family="sans-serif" font-size="14" lengthAdjust="spacingAndGlyphs" textLength="94" x="39" y="123.5352">txReqCreated</text><text fill="#000000" font-family="sans-serif" font-size="12" lengthAdjust="spacingAndGlyphs" textLength="55" x="11" y="148.0898">Listeners:</text><text fill="#000000" font-family="monospace" font-size="12" lengthAdjust="spacingAndGlyphs" textLength="140" x="11" y="161.7598">transactionRequestId</text><rect fill="#FEFECE" filter="url(#f1quijm8mrvteb)" height="78.5586" rx="12.5" ry="12.5" style="stroke: #A80036; stroke-width: 1.5;" width="160" x="6" y="247"/><line style="stroke: #A80036; stroke-width: 1.5;" x1="6" x2="166" y1="273.4883" y2="273.4883"/><text fill="#000000" font-family="sans-serif" font-size="14" lengthAdjust="spacingAndGlyphs" textLength="82" x="45" y="265.5352">authWaiting</text><text fill="#000000" font-family="sans-serif" font-size="12" lengthAdjust="spacingAndGlyphs" textLength="55" x="11" y="290.0898">Listeners:</text><text fill="#000000" font-family="monospace" font-size="12" lengthAdjust="spacingAndGlyphs" textLength="140" x="11" y="303.7598">transactionRequestId</text><text fill="#000000" font-family="monospace" font-size="12" lengthAdjust="spacingAndGlyphs" textLength="91" x="11" y="317.7285">transactionId</text><rect fill="#FEFECE" filter="url(#f1quijm8mrvteb)" height="78.5586" rx="12.5" ry="12.5" style="stroke: #A80036; stroke-width: 1.5;" width="160" x="6" y="403"/><line style="stroke: #A80036; stroke-width: 1.5;" x1="6" x2="166" y1="429.4883" y2="429.4883"/><text fill="#000000" font-family="sans-serif" font-size="14" lengthAdjust="spacingAndGlyphs" textLength="105" x="33.5" y="421.5352">transferWaiting</text><text fill="#000000" font-family="sans-serif" font-size="12" lengthAdjust="spacingAndGlyphs" textLength="55" x="11" y="446.0898">Listeners:</text><text fill="#000000" font-family="monospace" font-size="12" lengthAdjust="spacingAndGlyphs" textLength="140" x="11" y="459.7598">transactionRequestId</text><text fill="#000000" font-family="monospace" font-size="12" lengthAdjust="spacingAndGlyphs" textLength="70" x="11" y="473.7285">transferId</text><rect fill="#FEFECE" filter="url(#f1quijm8mrvteb)" height="40" rx="12.5" ry="12.5" style="stroke: #A80036; stroke-width: 1.5;" width="130" x="21" y="559"/><text fill="#000000" font-family="sans-serif" font-size="14" lengthAdjust="spacingAndGlyphs" textLength="120" x="26" y="584.291">transferComplete</text><ellipse cx="86" cy="670" fill="none" filter="url(#f1quijm8mrvteb)" rx="10" ry="10" style="stroke: #000000; stroke-width: 1.0;"/><ellipse cx="86.5" cy="670.5" fill="#000000" rx="6" ry="6" style="stroke: none; stroke-width: 1.0;"/><!--link *start to txReqCreated--><path d="M86,28.22 C86,43.42 86,74.56 86,99.55 " fill="none" id="*start-txReqCreated" style="stroke: #A80036; stroke-width: 1.0;"/><polygon fill="#A80036" points="86,104.79,90,95.79,86,99.79,82,95.79,86,104.79" style="stroke: #A80036; stroke-width: 1.0;"/><text fill="#000000" font-family="sans-serif" font-size="13" font-weight="bold" lengthAdjust="spacingAndGlyphs" textLength="296" x="87" y="71.5684">ThirdpartyTransactionRequest Subscription</text><!--link txReqCreated to authWaiting--><path d="M86,170.04 C86,190.98 86,218.75 86,241.81 " fill="none" id="txReqCreated-authWaiting" style="stroke: #A80036; stroke-width: 1.0;"/><polygon fill="#A80036" points="86,246.96,90,237.96,86,241.96,82,237.96,86,246.96" style="stroke: #A80036; stroke-width: 1.0;"/><text fill="#000000" font-family="sans-serif" font-size="13" font-weight="bold" lengthAdjust="spacingAndGlyphs" textLength="221" x="87" y="213.5684">ThirdpartyAuthorizationRequest</text><!--link authWaiting to transferWaiting--><path d="M86,326.36 C86,348.15 86,375.38 86,397.9 " fill="none" id="authWaiting-transferWaiting" style="stroke: #A80036; stroke-width: 1.0;"/><polygon fill="#A80036" points="86,402.92,90,393.92,86,397.92,82,393.92,86,402.92" style="stroke: #A80036; stroke-width: 1.0;"/><text fill="#000000" font-family="sans-serif" font-size="13" font-weight="bold" lengthAdjust="spacingAndGlyphs" textLength="196" x="87" y="369.5684">Transfer Prepare Notification</text><!--link transferWaiting to transferComplete--><path d="M86,482.04 C86,505.13 86,533.77 86,553.73 " fill="none" id="transferWaiting-transferComplete" style="stroke: #A80036; stroke-width: 1.0;"/><polygon fill="#A80036" points="86,558.86,90,549.86,86,553.86,82,549.86,86,558.86" style="stroke: #A80036; stroke-width: 1.0;"/><text fill="#000000" font-family="sans-serif" font-size="13" font-weight="bold" lengthAdjust="spacingAndGlyphs" textLength="176" x="87" y="525.5684">Transfer Fulfil Notification</text><!--link transferComplete to *end--><path d="M86,599.31 C86,615.89 86,639.41 86,654.44 " fill="none" id="transferComplete-*end" style="stroke: #A80036; stroke-width: 1.0;"/><polygon fill="#A80036" points="86,659.56,90,650.56,86,654.56,82,650.56,86,659.56" style="stroke: #A80036; stroke-width: 1.0;"/><!--
@startuml

hide empty description

[*] - -> txReqCreated: **ThirdpartyTransactionRequest Subscription**
txReqCreated: Listeners:
txReqCreated: ""transactionRequestId""

txReqCreated - -> authWaiting: **ThirdpartyAuthorizationRequest**

authWaiting: Listeners:
authWaiting: ""transactionRequestId""
authWaiting: ""transactionId""

authWaiting - -> transferWaiting: **Transfer Prepare Notification**

transferWaiting: Listeners:
transferWaiting: ""transactionRequestId""
transferWaiting: ""transferId""

transferWaiting - -> transferComplete: **Transfer Fulfil Notification**

transferComplete - -> [*]


@enduml

PlantUML version 1.2019.06(Sat May 25 01:10:25 PHT 2019)
(GPL source distribution)
Java Runtime: Java(TM) SE Runtime Environment
JVM: Java HotSpot(TM) 64-Bit Server VM
Java Version: 1.8.0_171-b11
Operating System: Mac OS X
OS Version: 10.13.6
Default Encoding: UTF-8
Language: en
Country: AU
--></g></svg>