<?xml version="1.0" encoding="UTF-8" standalone="no"?><svg xmlns="http://www.w3.org/2000/svg" xmlns:xlink="http://www.w3.org/1999/xlink" contentScriptType="application/ecmascript" contentStyleType="text/css" height="691px" preserveAspectRatio="none" style="width:991px;height:691px;" version="1.1" viewBox="0 0 991 691" width="991px" zoomAndPan="magnify"><defs><filter height="300%" id="f9bzscqy21evm" width="300%" x="-1" y="-1"><feGaussianBlur result="blurOut" stdDeviation="2.0"/><feColorMatrix in="blurOut" result="blurOut2" type="matrix" values="0 0 0 0 0 0 0 0 0 0 0 0 0 0 0 0 0 0 .4 0"/><feOffset dx="4.0" dy="4.0" in="blurOut2" result="blurOut3"/><feBlend in="SourceGraphic" in2="blurOut3" mode="normal"/></filter></defs><g><ellipse cx="148.85" cy="18" fill="#000000" filter="url(#f9bzscqy21evm)" rx="10" ry="10" style="stroke: none; stroke-width: 1.0;"/><rect fill="#FEFECE" filter="url(#f9bzscqy21evm)" height="64.5898" rx="12.5" ry="12.5" style="stroke: #A80036; stroke-width: 1.5;" width="160" x="68.85" y="105"/><line style="stroke: #A80036; stroke-width: 1.5;" x1="68.85" x2="228.85" y1="131.4883" y2="131.4883"/><text fill="#000000" font-family="sans-serif" font-size="14" lengthAdjust="spacingAndGlyphs" textLength="94" x="101.85" y="123.5352">txReqCreated</text><text fill="#000000" font-family="sans-serif" font-size="12" lengthAdjust="spacingAndGlyphs" textLength="55" x="73.85" y="148.0898">Listeners:</text><text fill="#000000" font-family="monospace" font-size="12" lengthAdjust="spacingAndGlyphs" textLength="140" x="73.85" y="161.7598">transactionRequestId</text><rect fill="#FEFECE" filter="url(#f9bzscqy21evm)" height="40" rx="12.5" ry="12.5" style="stroke: #A80036; stroke-width: 1.5;" width="91" x="636.35" y="266.5"/><text fill="#000000" font-family="sans-serif" font-size="14" lengthAdjust="spacingAndGlyphs" textLength="81" x="641.35" y="291.791">txReqFailed</text><rect fill="#FEFECE" filter="url(#f9bzscqy21evm)" height="78.5586" rx="12.5" ry="12.5" style="stroke: #A80036; stroke-width: 1.5;" width="160" x="68.85" y="247"/><line style="stroke: #A80036; stroke-width: 1.5;" x1="68.85" x2="228.85" y1="273.4883" y2="273.4883"/><text fill="#000000" font-family="sans-serif" font-size="14" lengthAdjust="spacingAndGlyphs" textLength="82" x="107.85" y="265.5352">authWaiting</text><text fill="#000000" font-family="sans-serif" font-size="12" lengthAdjust="spacingAndGlyphs" textLength="55" x="73.85" y="290.0898">Listeners:</text><text fill="#000000" font-family="monospace" font-size="12" lengthAdjust="spacingAndGlyphs" textLength="140" x="73.85" y="303.7598">transactionRequestId</text><text fill="#000000" font-family="monospace" font-size="12" lengthAdjust="spacingAndGlyphs" textLength="91" x="73.85" y="317.7285">transactionId</text><rect fill="#FEFECE" filter="url(#f9bzscqy21evm)" height="40" rx="12.5" ry="12.5" style="stroke: #A80036; stroke-width: 1.5;" width="82" x="898.85" y="266.5"/><text fill="#000000" font-family="sans-serif" font-size="14" lengthAdjust="spacingAndGlyphs" textLength="72" x="903.85" y="291.791">authFailed</text><rect fill="#FEFECE" filter="url(#f9bzscqy21evm)" height="78.5586" rx="12.5" ry="12.5" style="stroke: #A80036; stroke-width: 1.5;" width="160" x="68.85" y="403"/><line style="stroke: #A80036; stroke-width: 1.5;" x1="68.85" x2="228.85" y1="429.4883" y2="429.4883"/><text fill="#000000" font-family="sans-serif" font-size="14" lengthAdjust="spacingAndGlyphs" textLength="105" x="96.35" y="421.5352">transferWaiting</text><text fill="#000000" font-family="sans-serif" font-size="12" lengthAdjust="spacingAndGlyphs" textLength="55" x="73.85" y="446.0898">Listeners:</text><text fill="#000000" font-family="monospace" font-size="12" lengthAdjust="spacingAndGlyphs" textLength="140" x="73.85" y="459.7598">transactionRequestId</text><text fill="#000000" font-family="monospace" font-size="12" lengthAdjust="spacingAndGlyphs" textLength="70" x="73.85" y="473.7285">transferId</text><rect fill="#FEFECE" filter="url(#f9bzscqy21evm)" height="40" rx="12.5" ry="12.5" style="stroke: #A80036; stroke-width: 1.5;" width="105" x="539.35" y="422.5"/><text fill="#000000" font-family="sans-serif" font-size="14" lengthAdjust="spacingAndGlyphs" textLength="95" x="544.35" y="447.791">transferFailed</text><rect fill="#FEFECE" filter="url(#f9bzscqy21evm)" height="40" rx="12.5" ry="12.5" style="stroke: #A80036; stroke-width: 1.5;" width="130" x="83.85" y="559"/><text fill="#000000" font-family="sans-serif" font-size="14" lengthAdjust="spacingAndGlyphs" textLength="120" x="88.85" y="584.291">transferComplete</text><ellipse cx="148.85" cy="670" fill="none" filter="url(#f9bzscqy21evm)" rx="10" ry="10" style="stroke: #000000; stroke-width: 1.0;"/><ellipse cx="149.35" cy="670.5" fill="#000000" rx="6" ry="6" style="stroke: none; stroke-width: 1.0;"/><!--link *start to txReqCreated--><path d="M148.85,28.22 C148.85,43.42 148.85,74.56 148.85,99.55 " fill="none" id="*start-txReqCreated" style="stroke: #A80036; stroke-width: 1.0;"/><polygon fill="#A80036" points="148.85,104.79,152.85,95.79,148.85,99.79,144.85,95.79,148.85,104.79" style="stroke: #A80036; stroke-width: 1.0;"/><text fill="#000000" font-family="sans-serif" font-size="13" font-weight="bold" lengthAdjust="spacingAndGlyphs" textLength="296" x="149.85" y="71.5684">ThirdpartyTransactionRequest Subscription</text><!--link txReqCreated to txReqFailed--><path d="M191.5,170.13 C215.67,186.55 247.15,205.54 277.85,217 C399.48,262.41 553,277.89 631.14,283.03 " fill="none" id="txReqCreated-txReqFailed" style="stroke: #A80036; stroke-width: 1.0;"/><polygon fill="#A80036" points="636.17,283.36,627.4395,278.8017,631.1799,283.0454,626.9362,286.7859,636.17,283.36" style="stroke: #A80036; stroke-width: 1.0;"/><text fill="#000000" font-family="monospace" font-size="13" lengthAdjust="spacingAndGlyphs" textLength="368" x="278.85" y="213.0669">PUT /thirdpartyRequests/transaction/{id}/error</text><!--link txReqCreated to authWaiting--><path d="M68.62,156.94 C46.47,166.11 24.95,179.75 11.85,200 C-7.25,229.51 25.22,250.62 63.32,264.48 " fill="none" id="txReqCreated-authWaiting" style="stroke: #A80036; stroke-width: 1.0;"/><polygon fill="#A80036" points="68.48,266.31,61.3158,259.5517,63.7629,264.6519,58.6628,267.099,68.48,266.31" style="stroke: #A80036; stroke-width: 1.0;"/><text fill="#000000" font-family="sans-serif" font-size="13" font-weight="bold" lengthAdjust="spacingAndGlyphs" textLength="221" x="12.85" y="213.5684">ThirdpartyAuthorizationRequest</text><!--link authWaiting to txReqFailed--><path d="M228.93,286.5 C340.17,286.5 538.22,286.5 631.11,286.5 " fill="none" id="authWaiting-txReqFailed" style="stroke: #A80036; stroke-width: 1.0;"/><polygon fill="#A80036" points="636.26,286.5,627.26,282.5,631.26,286.5,627.26,290.5,636.26,286.5" style="stroke: #A80036; stroke-width: 1.0;"/><text fill="#000000" font-family="monospace" font-size="13" lengthAdjust="spacingAndGlyphs" textLength="368" x="248.6" y="279.5669">PUT /thirdpartyRequests/transaction/{id}/error</text><!--link authWaiting to authFailed--><path d="M228.97,271.27 C328.75,253.14 504.64,223.95 656.85,213 C683.67,211.07 875.66,199.38 898.85,213 C916.43,223.33 927.03,244.24 933.03,261.12 " fill="none" id="authWaiting-authFailed" style="stroke: #A80036; stroke-width: 1.0;"/><polygon fill="#A80036" points="934.75,266.22,935.6543,256.4127,933.1474,261.4838,928.0764,258.9769,934.75,266.22" style="stroke: #A80036; stroke-width: 1.0;"/><text fill="#000000" font-family="monospace" font-size="13" lengthAdjust="spacingAndGlyphs" textLength="240" x="657.85" y="213.0669">PUT /authorizations/{id}/error</text><!--link authWaiting to transferWaiting--><path d="M148.85,326.36 C148.85,348.15 148.85,375.38 148.85,397.9 " fill="none" id="authWaiting-transferWaiting" style="stroke: #A80036; stroke-width: 1.0;"/><polygon fill="#A80036" points="148.85,402.92,152.85,393.92,148.85,397.92,144.85,393.92,148.85,402.92" style="stroke: #A80036; stroke-width: 1.0;"/><text fill="#000000" font-family="sans-serif" font-size="13" font-weight="bold" lengthAdjust="spacingAndGlyphs" textLength="196" x="149.85" y="369.5684">Transfer Prepare Notification</text><!--link transferWaiting to transferFailed--><path d="M229.07,442.5 C317.15,442.5 456.38,442.5 534.25,442.5 " fill="none" id="transferWaiting-transferFailed" style="stroke: #A80036; stroke-width: 1.0;"/><polygon fill="#A80036" points="539.29,442.5,530.29,438.5,534.29,442.5,530.29,446.5,539.29,442.5" style="stroke: #A80036; stroke-width: 1.0;"/><text fill="#000000" font-family="monospace" font-size="13" lengthAdjust="spacingAndGlyphs" textLength="184" x="292.1" y="420.5669">PUT/transfer/{id}/error</text><text fill="#000000" font-family="sans-serif" font-size="13" lengthAdjust="spacingAndGlyphs" textLength="271" x="248.6" y="436.2012">Timeout Notification, Rejected Notification</text><!--link transferWaiting to transferComplete--><path d="M148.85,482.04 C148.85,505.13 148.85,533.77 148.85,553.73 " fill="none" id="transferWaiting-transferComplete" style="stroke: #A80036; stroke-width: 1.0;"/><polygon fill="#A80036" points="148.85,558.86,152.85,549.86,148.85,553.86,144.85,549.86,148.85,558.86" style="stroke: #A80036; stroke-width: 1.0;"/><text fill="#000000" font-family="sans-serif" font-size="13" font-weight="bold" lengthAdjust="spacingAndGlyphs" textLength="176" x="149.85" y="525.5684">Transfer Fulfil Notification</text><!--link transferComplete to *end--><path d="M148.85,599.31 C148.85,615.89 148.85,639.41 148.85,654.44 " fill="none" id="transferComplete-*end" style="stroke: #A80036; stroke-width: 1.0;"/><polygon fill="#A80036" points="148.85,659.56,152.85,650.56,148.85,654.56,144.85,650.56,148.85,659.56" style="stroke: #A80036; stroke-width: 1.0;"/><!--
@startuml

hide empty description

[*] - -> txReqCreated: **ThirdpartyTransactionRequest Subscription**
txReqCreated: Listeners:
txReqCreated: ""transactionRequestId""

txReqCreated -> txReqFailed: ""PUT /thirdpartyRequests/transaction/{id}/error""

txReqCreated - -> authWaiting: **ThirdpartyAuthorizationRequest**

authWaiting: Listeners:
authWaiting: ""transactionRequestId""
authWaiting: ""transactionId""

authWaiting -> txReqFailed: ""PUT /thirdpartyRequests/transaction/{id}/error""
authWaiting -> authFailed: ""PUT /authorizations/{id}/error""

authWaiting - -> transferWaiting: **Transfer Prepare Notification**

transferWaiting: Listeners:
transferWaiting: ""transactionRequestId""
transferWaiting: ""transferId""

transferWaiting -> transferFailed: ""PUT/transfer/{id}/error""\nTimeout Notification, Rejected Notification


transferWaiting - -> transferComplete: **Transfer Fulfil Notification**

transferComplete - -> [*]


@enduml

PlantUML version 1.2019.06(Sat May 25 01:10:25 PHT 2019)
(GPL source distribution)
Java Runtime: Java(TM) SE Runtime Environment
JVM: Java HotSpot(TM) 64-Bit Server VM
Java Version: 1.8.0_171-b11
Operating System: Mac OS X
OS Version: 10.13.6
Default Encoding: UTF-8
Language: en
Country: AU
--></g></svg>